<?xml version="1.0" encoding="utf-8"?>
<!-- Generator: Adobe Illustrator 18.0.0, SVG Export Plug-In . SVG Version: 6.00 Build 0)  -->
<!DOCTYPE svg PUBLIC "-//W3C//DTD SVG 1.1//EN" "http://www.w3.org/Graphics/SVG/1.1/DTD/svg11.dtd">
<svg version="1.1" id="Layer_1" xmlns="http://www.w3.org/2000/svg" xmlns:xlink="http://www.w3.org/1999/xlink" x="0px" y="0px"
	 viewBox="0 0 573.4 108.3" enable-background="new 0 0 573.4 108.3" xml:space="preserve">
<g>
	<path fill="#F26531" d="M327.5,106.7v-7.1h3c1.2,0,2.1,1.1,2.1,2.3c0,1.2-0.8,2.3-2.1,2.3h-2.1v2.5H327.5z M328.4,103.4h2.1
		c0.7,0,1.2-0.7,1.2-1.5c0-0.8-0.6-1.5-1.3-1.5h-2V103.4z"/>
	<path fill="#F26531" d="M334.7,106.7v-7.1h3c1.2,0,2.1,1.1,2.1,2.3c0,1-0.6,1.9-1.5,2.1l1.7,2.7h-1l-1.6-2.5h-1.9v2.5H334.7z
		 M335.6,103.4h2.1c0.7,0,1.2-0.7,1.2-1.5c0-0.8-0.6-1.5-1.3-1.5h-2.1V103.4z"/>
	<path fill="#F26531" d="M341.9,103.2c0-1.9,1.4-3.6,3.4-3.6c2,0,3.3,1.8,3.3,3.6c0,1.9-1.4,3.6-3.3,3.6
		C343.2,106.8,341.9,105,341.9,103.2z M345.2,106c1.5,0,2.4-1.4,2.4-2.8c0-1.4-1-2.8-2.4-2.8c-1.5,0-2.4,1.4-2.4,2.8
		C342.8,104.6,343.8,106,345.2,106z"/>
	<path fill="#F26531" d="M350.8,106.7v-7.1h2.5c2.3,0,3.4,1.6,3.4,3.5c0,2.1-1.3,3.6-3.4,3.6H350.8z M353.3,100.4h-1.6v5.5h1.6
		c1.6,0,2.5-1.2,2.5-2.8C355.8,101.6,354.9,100.4,353.3,100.4z"/>
	<path fill="#F26531" d="M364.1,103.2v-3.6h0.9v3.6c0,1.9-0.8,3.6-3,3.6c-2.3,0-3-1.7-3-3.6v-3.6h0.9v3.6c0,1.4,0.5,2.7,2.1,2.7
		C363.6,106,364.1,104.6,364.1,103.2z"/>
	<path fill="#F26531" d="M370.5,99.6c1.3,0,2.2,0.6,2.6,1.5l-0.7,0.5c-0.4-0.9-1.2-1.2-2-1.2c-1.6,0-2.4,1.4-2.4,2.8
		c0,1.5,1,2.8,2.5,2.8c0.7,0,1.6-0.4,2-1.2l0.8,0.4c-0.5,1.1-1.7,1.6-2.8,1.6c-1.9,0-3.3-1.9-3.3-3.7
		C367.1,101.4,368.3,99.6,370.5,99.6z"/>
	<path fill="#F26531" d="M380.4,100.4H378v6.3h-0.9v-6.3h-2.4v-0.8h5.8V100.4z"/>
</g>
<g>
	<path fill="#F26531" d="M160.1,106.7v-5.5l-2.4,4.2h-0.5l-2.4-4.2v5.5h-0.9v-7.1h0.9l2.6,4.6l2.6-4.6h0.9v7.1H160.1z"/>
	<path fill="#F26531" d="M168.5,105.9v0.8h-4.8v-7.1h4.7v0.8h-3.8v2.3h3.3v0.8h-3.3v2.4H168.5z"/>
	<path fill="#F26531" d="M170.8,106.7v-7.1h3c1.2,0,2.1,1.1,2.1,2.3c0,1-0.6,1.9-1.5,2.1l1.7,2.7h-1l-1.6-2.5h-1.9v2.5H170.8z
		 M171.7,103.4h2.1c0.7,0,1.2-0.7,1.2-1.5c0-0.8-0.6-1.5-1.3-1.5h-2.1V103.4z"/>
	<path fill="#F26531" d="M181.4,99.6c1.3,0,2.2,0.6,2.6,1.5l-0.7,0.5c-0.4-0.9-1.2-1.2-2-1.2c-1.6,0-2.4,1.4-2.4,2.8
		c0,1.5,1,2.8,2.5,2.8c0.7,0,1.6-0.4,2-1.2l0.7,0.4c-0.4,1.1-1.7,1.6-2.8,1.6c-1.9,0-3.3-1.9-3.3-3.7
		C178,101.4,179.2,99.6,181.4,99.6z"/>
	<path fill="#F26531" d="M192,99.6v7.1h-0.9v-3.2h-3.9v3.2h-0.9v-7.1h0.9v3.1h3.9v-3.1H192z"/>
	<path fill="#F26531" d="M193.9,106.7l2.9-7.1h0.7l2.9,7.1h-1l-0.8-2.1h-3l-0.8,2.1H193.9z M197.2,100.7l-1.3,3.3h2.6L197.2,100.7z"
		/>
	<path fill="#F26531" d="M203.3,101.3v5.4h-0.9v-7.1h0.7l4.4,5.5v-5.5h0.9v7.1h-0.8L203.3,101.3z"/>
	<path fill="#F26531" d="M211.1,106.7v-7.1h2.5c2.3,0,3.4,1.6,3.4,3.5c0,2.1-1.3,3.6-3.4,3.6H211.1z M213.6,100.4H212v5.5h1.6
		c1.6,0,2.5-1.2,2.5-2.8C216.1,101.6,215.2,100.4,213.6,100.4z"/>
	<path fill="#F26531" d="M219.3,106.7v-7.1h0.9v7.1H219.3z"/>
	<path fill="#F26531" d="M227.1,101.1c-0.3-0.4-1.1-0.7-1.9-0.7c-1.1,0-1.6,0.4-1.6,1.2c0,0.8,0.6,1,1.9,1.2c1.5,0.3,2.4,0.7,2.4,2
		c0,1.4-1.1,2-2.6,2c-1.1,0-2.1-0.4-2.9-1l0.4-0.8c0.4,0.5,1.4,1,2.5,1c1,0,1.6-0.4,1.6-1.1c0-0.8-0.7-1-2-1.4
		c-1.4-0.3-2.2-0.7-2.2-1.9c0-1.4,1.1-2.1,2.5-2.1c0.9,0,1.7,0.3,2.3,0.8L227.1,101.1z"/>
	<path fill="#F26531" d="M230,106.7v-7.1h0.9v7.1H230z"/>
	<path fill="#F26531" d="M234.5,101.3v5.4h-0.9v-7.1h0.7l4.4,5.5v-5.5h0.9v7.1h-0.8L234.5,101.3z"/>
	<path fill="#F26531" d="M247.4,105.8c-0.6,0.7-1.3,1-2.2,1c-1.9,0-3.3-1.8-3.3-3.6c0-1.9,1.4-3.6,3.3-3.6c1.4,0,2.2,0.6,2.7,1.5
		l-0.7,0.5c-0.4-0.8-1.2-1.2-2-1.2c-1.4,0-2.4,1.3-2.4,2.8c0,1.5,1.1,2.8,2.5,2.8c0.8,0,1.5-0.4,2.1-1.1v-1h-1.5v-0.7h2.3v3.5h-0.8
		V105.8z"/>
</g>
<g>
	<polygon fill="#F26531" points="198.1,8.6 173.5,8.6 173.5,69.9 184.4,69.9 184.4,44.9 198.1,44.9 	"/>
	<g>
		<path fill="#C85427" d="M187.7,14.8c0,1-0.8,1.9-1.9,1.9c-1,0-1.9-0.8-1.9-1.9s0.8-1.9,1.9-1.9C186.8,12.9,187.7,13.8,187.7,14.8"
			/>
	</g>
	<polygon fill="#F26531" points="238.7,44.9 198.1,44.9 198.1,69.9 184.4,69.9 184.4,78.8 238.7,78.8 	"/>
	<rect x="184.4" y="44.9" fill="#C85427" width="13.7" height="25"/>
</g>
<g>
	<path fill="#F26531" d="M507.6,106.7v-5.5l-2.4,4.2h-0.5l-2.4-4.2v5.5h-0.9v-7.1h0.9l2.6,4.6l2.6-4.6h0.9v7.1H507.6z"/>
	<path fill="#F26531" d="M516,105.9v0.8h-4.8v-7.1h4.7v0.8h-3.8v2.3h3.3v0.8h-3.3v2.4H516z"/>
	<path fill="#F26531" d="M518.3,106.7v-7.1h2.5c2.3,0,3.4,1.6,3.4,3.5c0,2.1-1.3,3.6-3.4,3.6H518.3z M520.8,100.4h-1.6v5.5h1.6
		c1.6,0,2.5-1.2,2.5-2.8C523.3,101.6,522.4,100.4,520.8,100.4z"/>
	<path fill="#F26531" d="M526.5,106.7v-7.1h0.9v7.1H526.5z"/>
	<path fill="#F26531" d="M529.4,106.7l2.9-7.1h0.7l2.9,7.1h-1l-0.8-2.1h-3l-0.8,2.1H529.4z M532.6,100.7l-1.3,3.3h2.6L532.6,100.7z"
		/>
</g>
<g>
	<path fill="#F26531" d="M14.3,106.7v-7.1h3c1.2,0,2.1,1.1,2.1,2.3c0,1.2-0.8,2.3-2.1,2.3h-2.1v2.5H14.3z M15.2,103.4h2.1
		c0.7,0,1.2-0.7,1.2-1.5c0-0.8-0.6-1.5-1.3-1.5h-2V103.4z"/>
	<path fill="#F26531" d="M21.1,103.2c0-1.9,1.4-3.6,3.4-3.6c2,0,3.3,1.8,3.3,3.6c0,1.9-1.4,3.6-3.3,3.6
		C22.4,106.8,21.1,105,21.1,103.2z M24.4,106c1.5,0,2.4-1.4,2.4-2.8c0-1.4-1-2.8-2.4-2.8c-1.5,0-2.4,1.4-2.4,2.8
		C22,104.6,22.9,106,24.4,106z"/>
	<path fill="#F26531" d="M34.2,101.1c-0.3-0.4-1.1-0.7-1.9-0.7c-1.1,0-1.6,0.4-1.6,1.2c0,0.8,0.6,1,1.9,1.2c1.5,0.3,2.4,0.7,2.4,2
		c0,1.4-1.1,2-2.6,2c-1.1,0-2.1-0.4-2.9-1l0.4-0.8c0.4,0.5,1.4,1,2.5,1c1,0,1.6-0.4,1.6-1.1c0-0.8-0.7-1-2-1.4
		c-1.4-0.3-2.2-0.7-2.2-1.9c0-1.4,1.1-2.1,2.5-2.1c0.9,0,1.7,0.3,2.3,0.8L34.2,101.1z"/>
	<path fill="#F26531" d="M37.1,106.7v-7.1H38v7.1H37.1z"/>
	<path fill="#F26531" d="M45.9,100.4h-2.4v6.3h-0.9v-6.3h-2.4v-0.8h5.8V100.4z"/>
	<path fill="#F26531" d="M47.9,106.7v-7.1h0.9v7.1H47.9z"/>
	<path fill="#F26531" d="M51,103.2c0-1.9,1.4-3.6,3.4-3.6c2,0,3.3,1.8,3.3,3.6c0,1.9-1.4,3.6-3.3,3.6C52.4,106.8,51,105,51,103.2z
		 M54.4,106c1.5,0,2.4-1.4,2.4-2.8c0-1.4-1-2.8-2.4-2.8c-1.5,0-2.4,1.4-2.4,2.8C51.9,104.6,52.9,106,54.4,106z"/>
	<path fill="#F26531" d="M60.9,101.3v5.4H60v-7.1h0.7l4.4,5.5v-5.5H66v7.1h-0.8L60.9,101.3z"/>
	<path fill="#F26531" d="M68.7,106.7v-7.1h0.9v7.1H68.7z"/>
	<path fill="#F26531" d="M73.2,101.3v5.4h-0.9v-7.1H73l4.4,5.5v-5.5h0.9v7.1h-0.8L73.2,101.3z"/>
	<path fill="#F26531" d="M86,105.8c-0.6,0.7-1.3,1-2.2,1c-1.9,0-3.3-1.8-3.3-3.6c0-1.9,1.4-3.6,3.3-3.6c1.4,0,2.2,0.6,2.7,1.5
		l-0.7,0.5c-0.4-0.8-1.2-1.2-2-1.2c-1.4,0-2.4,1.3-2.4,2.8c0,1.5,1.1,2.8,2.5,2.8c0.8,0,1.5-0.4,2.1-1.1v-1h-1.5v-0.7h2.3v3.5H86
		V105.8z"/>
</g>
<g>
	<path fill="#F26522" d="M17,28.7c-8,0-12.6,3.7-12.9,11.2h2.5c0.3-5.9,4.3-9,10.4-9c7.7,0,9.4,5.1,9.4,6.6c0,5.5-0.5,6.2-11.6,7
		C9.2,45,2.4,46.7,2.4,54.5c0,7.1,4.9,9.5,11.3,9.5c6.4,0,11-3.5,12.6-7.5h0.1v1.8c0,2.8,0.6,4.9,4.5,4.9c0.7,0,1.3-0.1,2-0.3v-2.1
		c-0.8,0.1-1.4,0.2-1.8,0.2c-2.2,0-2.2-2.1-2.2-4.1V37.5C28.9,30.5,23,28.7,17,28.7 M13.8,61.9c-5.9,0-8.9-3.3-8.9-7.4
		c0-5.1,3.4-7.2,9.3-7.8c4.9-0.7,10.3-0.4,12.2-2.6v6.3C26.4,52.2,25.1,61.9,13.8,61.9"/>
	<path fill="#F26522" d="M38.3,16.3h-2.5v46.9h2.5v-7.6h0.1c0.5,1.8,3.9,8.3,12.8,8.3c4.7,0,14.7-2.4,14.7-18.5
		c0-9.4-4.7-16.9-14.7-16.9c-5.5,0-10.9,2.7-12.8,8h-0.1V16.3z M51.2,61.9c-9.2,0-12.9-8-12.9-16.3c0-8.5,4.1-14.7,12.9-14.7
		c8.1,0,12.2,7.2,12.2,14.7C63.4,53.4,60.1,61.9,51.2,61.9"/>
	<path fill="#F26522" d="M84.1,28.7c-10,0-15.5,8-15.5,17.4c0,9.4,4.5,18,15.5,18c7.3,0,13.2-4.6,14.3-12.7h-2.5
		c-0.9,6.2-5.5,10.5-11.8,10.5c-8.7,0-13-6.7-13-15.8c0-7.7,4.5-15.2,13-15.2c6.1,0,11,3.1,11.4,9.1H98
		C97.3,32.3,91.4,28.7,84.1,28.7"/>
</g>
<g>
	<g>
		<path fill="#F26522" d="M357.1,77.5c-0.7,0-5,0-8.4,0v0c0,0-0.4,0-1.1,0V43.9l28.5-22.2H317l28.5,22.2v33.6c-0.7,0-1.1,0-1.1,0v0
			c-3.4,0-7.7,0-8.4,0c-1.2,0-1.6,1.5-1.6,1.5h24.2C358.7,79,358.3,77.5,357.1,77.5z"/>
		<g>
			<path fill="#C85427" d="M349,34.8c0,1.3-1.1,2.4-2.4,2.4c-1.3,0-2.4-1.1-2.4-2.4c0-1.3,1.1-2.4,2.4-2.4
				C347.9,32.4,349,33.5,349,34.8"/>
		</g>
	</g>
	<path fill="#F26522" d="M383.1,51.4c-0.5,0-1,0.1-1.5,0.2l0.2-5h-27.3l0.4,24.3h25.9l0.2-4.9c0.7,0.2,1.3,0.3,2.1,0.3
		c4,0,7.2-3.3,7.2-7.4C390.3,54.7,387,51.4,383.1,51.4z M383.1,62.9c-0.7,0-1.3-0.2-1.9-0.5l0.3-7.4c0.5-0.2,1-0.3,1.6-0.3
		c2.3,0,4.2,1.8,4.2,4.1C387.3,61.1,385.4,62.9,383.1,62.9z"/>
</g>
<g>
	<g>
		<path fill="#F26531" d="M570.3,11.8h-15.7c-1.7,0-3.1,1.4-3.1,3.1v36.3c0,1.7,1.4,3.1,3.1,3.1h15.7c1.7,0,3.1-1.4,3.1-3.1V14.9
			C573.4,13.2,572,11.8,570.3,11.8"/>
		<path fill="#C85427" d="M562.5,48c-1.2,0-2.1,0.9-2.1,2.1c0,1.2,0.9,2.1,2.1,2.1c1.2,0,2.1-0.9,2.1-2.1
			C564.6,48.9,563.6,48,562.5,48"/>
		<rect x="553.6" y="17.5" fill="#C85427" width="17.7" height="28.4"/>
	</g>
	<g>
		<path fill="#F26531" d="M542.1,2.8h-73.7c-2.8,0-5.1,2.3-5.1,5.1v50.4c0,2.8,2.3,5.1,5.1,5.1h30.7c0,0,0,0,0,0h0.1
			c0.1,2.5,0.2,5.6-1.3,7.7c-2.3,3.1-7.2,3.9-6.8,6.4c0.3,2.1,2.6,1.9,6.1,1.9c1.4,0,3.1-0.1,4.9-0.1h6.4c1.8,0,3.4,0.1,4.9,0.1
			c3.5,0,5.8,0.3,6.1-1.9c0.4-2.5-4.6-3.2-6.8-6.4c-2-2.8-1.2-7.4-1.2-7.7v0h0c0,0,0,0,0,0h30.7c2.8,0,5.1-2.3,5.1-5.1V7.9
			C547.2,5.1,544.9,2.8,542.1,2.8z"/>
		<rect x="469.8" y="8.6" fill="#C85427" width="71" height="49"/>
	</g>
</g>
</svg>
