<?xml version="1.0" encoding="utf-8"?>
<!-- Generator: Adobe Illustrator 18.0.0, SVG Export Plug-In . SVG Version: 6.00 Build 0)  -->
<!DOCTYPE svg PUBLIC "-//W3C//DTD SVG 1.1//EN" "http://www.w3.org/Graphics/SVG/1.1/DTD/svg11.dtd">
<svg version="1.1" id="Layer_1" xmlns="http://www.w3.org/2000/svg" xmlns:xlink="http://www.w3.org/1999/xlink" x="0px" y="0px"
	 viewBox="0 0 501.6 195.7" enable-background="new 0 0 501.6 195.7" xml:space="preserve">
<polygon fill="#F26531" points="75.5,192.3 0,192.3 0,97.8 75.5,97.8 98,145.1 "/>
<polygon fill="#F26531" points="176.3,192.3 100.8,192.3 100.8,97.8 176.3,97.8 198.8,145.1 "/>
<polygon fill="#F26531" points="277.5,192.3 202,192.3 202,97.8 277.5,97.8 300,145.1 "/>
<polygon fill="#F26531" points="379.8,192.3 304.3,192.3 304.3,97.8 379.8,97.8 402.2,145.1 "/>
<path d="M453.9,192.8c26.4,0,47.7-21.4,47.7-47.7c0-26.4-21.4-47.7-47.7-47.7c-26.4,0-47.7,21.4-47.7,47.7
	C406.2,171.4,427.5,192.8,453.9,192.8"/>
<text transform="matrix(1 0 0 1 466.1421 120.8418)" fill="#FFFFFF" font-family="'Raleway-Medium'" font-size="8"> </text>
<text transform="matrix(1 0 0 1 483.4224 134.8418)" fill="#FFFFFF" font-family="'Raleway-Medium'" font-size="8"> </text>
<text transform="matrix(1 0 0 1 475.7427 162.8418)" fill="#FFFFFF" font-family="'Raleway-Medium'" font-size="8"> </text>
<g>
	<path fill="#FFFFFF" d="M442.3,114.2l1.7,3l1.7-3h0.8l-2.2,3.6v2.1h-0.7v-2.1l-2.2-3.6H442.3z"/>
	<path fill="#FFFFFF" d="M447.4,117c0-1.5,1.2-2.9,2.7-2.9c1.6,0,2.7,1.5,2.7,2.9c0,1.5-1.1,2.9-2.7,2.9
		C448.4,119.9,447.4,118.5,447.4,117z M450,119.2c1.2,0,1.9-1.1,1.9-2.2c0-1.2-0.8-2.2-1.9-2.2c-1.2,0-2,1.1-2,2.2
		C448.1,118.2,448.9,119.2,450,119.2z"/>
	<path fill="#FFFFFF" d="M458.6,117v-2.9h0.7v2.9c0,1.5-0.7,2.8-2.4,2.8c-1.8,0-2.4-1.4-2.4-2.8v-2.9h0.7v2.9c0,1.1,0.4,2.2,1.7,2.2
		C458.2,119.2,458.6,118.1,458.6,117z"/>
	<path fill="#FFFFFF" d="M461.4,119.9v-5.7h2.4c1,0,1.7,0.9,1.7,1.8c0,0.8-0.5,1.5-1.2,1.7l1.4,2.2h-0.8l-1.3-2h-1.5v2H461.4z
		 M462.1,117.2h1.7c0.6,0,1-0.6,1-1.2c0-0.6-0.5-1.2-1-1.2h-1.7V117.2z"/>
	<path fill="#FFFFFF" d="M428.7,133.2v0.6h-3.9v-5.7h3.8v0.6h-3.1v1.8h2.7v0.6h-2.7v2H428.7z"/>
	<path fill="#FFFFFF" d="M430.7,128.2l1.7,2.4l1.7-2.4h0.8l-2.1,2.9l2.1,2.8h-0.8l-1.7-2.3l-1.7,2.3h-0.8l2.1-2.8l-2.1-2.9H430.7z"
		/>
	<path fill="#FFFFFF" d="M440.5,128.8h-2v5h-0.7v-5h-2v-0.6h4.6V128.8z"/>
	<path fill="#FFFFFF" d="M446,133.2v0.6h-3.9v-5.7h3.8v0.6h-3.1v1.8h2.7v0.6h-2.7v2H446z"/>
	<path fill="#FFFFFF" d="M448.6,129.5v4.3h-0.7v-5.7h0.6l3.5,4.4v-4.4h0.7v5.7H452L448.6,129.5z"/>
	<path fill="#FFFFFF" d="M454.8,133.9v-5.7h2c1.8,0,2.7,1.3,2.7,2.8c0,1.7-1.1,2.8-2.7,2.8H454.8z M456.8,128.8h-1.2v4.4h1.2
		c1.3,0,2-1,2-2.2C458.8,129.7,458,128.8,456.8,128.8z"/>
	<path fill="#FFFFFF" d="M460.5,133.9l2.3-5.7h0.6l2.3,5.7H465l-0.7-1.7H462l-0.7,1.7H460.5z M463.2,129l-1.1,2.6h2.1L463.2,129z"/>
	<path fill="#FFFFFF" d="M470.1,133.9h-2.7v-5.7h2.8c0.8,0,1.3,0.7,1.3,1.4c0,0.6-0.3,1.1-0.8,1.3c0.6,0.2,1.1,0.7,1.1,1.4
		C471.7,133.3,471,133.9,470.1,133.9z M468.1,128.8v1.9h1.8c0.5,0,0.9-0.4,0.9-0.9c0-0.5-0.4-1-0.8-1H468.1z M470.1,131.3h-2v2h2
		c0.5,0,0.9-0.5,0.9-1C471,131.7,470.6,131.3,470.1,131.3z"/>
	<path fill="#FFFFFF" d="M473.5,133.9v-5.7h0.7v5h3.2v0.6H473.5z"/>
	<path fill="#FFFFFF" d="M482.9,133.2v0.6h-3.9v-5.7h3.8v0.6h-3.1v1.8h2.7v0.6h-2.7v2H482.9z"/>
	<path fill="#FFFFFF" d="M430.8,147.2v0.6h-3.9v-5.7h3.8v0.6h-3.1v1.8h2.7v0.6h-2.7v2H430.8z"/>
	<path fill="#FFFFFF" d="M436.4,147.4c-0.4,0.3-0.9,0.5-1.5,0.5c-1.6,0-2.7-1.4-2.7-2.9c0-1.5,1.2-2.9,2.7-2.9
		c1.6,0,2.7,1.5,2.7,2.9c0,0.8-0.3,1.5-0.8,2l0.7,0.8h-0.7L436.4,147.4z M436,146.9l-0.8-0.9h0.7l0.4,0.5c0.3-0.4,0.5-1,0.5-1.5
		c0-1.2-0.8-2.2-1.9-2.2c-1.2,0-2,1.1-2,2.2c0,1.2,0.8,2.2,2,2.2C435.3,147.2,435.7,147.1,436,146.9z"/>
	<path fill="#FFFFFF" d="M443.4,145v-2.9h0.7v2.9c0,1.5-0.7,2.8-2.4,2.8c-1.8,0-2.4-1.4-2.4-2.8v-2.9h0.7v2.9c0,1.1,0.4,2.2,1.7,2.2
		C443,147.2,443.4,146.1,443.4,145z"/>
	<path fill="#FFFFFF" d="M446.2,147.9v-5.7h0.7v5.7H446.2z"/>
	<path fill="#FFFFFF" d="M453.2,142.8h-2v5h-0.7v-5h-2v-0.6h4.6V142.8z"/>
	<path fill="#FFFFFF" d="M455,142.2l1.7,3l1.7-3h0.8l-2.2,3.6v2.1h-0.7v-2.1l-2.2-3.6H455z"/>
	<path fill="#FFFFFF" d="M462.4,147.9l2.3-5.7h0.6l2.3,5.7h-0.8l-0.7-1.7h-2.4l-0.7,1.7H462.4z M465,143l-1.1,2.6h2.1L465,143z"/>
	<path fill="#FFFFFF" d="M469.9,143.5v4.3h-0.7v-5.7h0.6l3.5,4.4v-4.4h0.7v5.7h-0.6L469.9,143.5z"/>
	<path fill="#FFFFFF" d="M476.2,147.9v-5.7h2c1.8,0,2.7,1.3,2.7,2.8c0,1.7-1.1,2.8-2.7,2.8H476.2z M478.1,142.8h-1.2v4.4h1.2
		c1.3,0,2-1,2-2.2C480.1,143.7,479.4,142.8,478.1,142.8z"/>
	<path fill="#FFFFFF" d="M436.2,161.9v-5.7h2.4c1,0,1.7,0.9,1.7,1.8c0,0.9-0.7,1.8-1.7,1.8h-1.7v2H436.2z M436.9,159.2h1.7
		c0.6,0,1-0.5,1-1.2c0-0.7-0.5-1.2-1-1.2h-1.6V159.2z"/>
	<path fill="#FFFFFF" d="M441.9,161.9v-5.7h2.4c1,0,1.7,0.9,1.7,1.8c0,0.8-0.5,1.5-1.2,1.7l1.4,2.2h-0.8l-1.3-2h-1.5v2H441.9z
		 M442.6,159.2h1.7c0.6,0,1-0.6,1-1.2c0-0.6-0.5-1.2-1-1.2h-1.7V159.2z"/>
	<path fill="#FFFFFF" d="M447.6,159c0-1.5,1.2-2.9,2.7-2.9c1.6,0,2.7,1.5,2.7,2.9c0,1.5-1.1,2.9-2.7,2.9
		C448.7,161.9,447.6,160.5,447.6,159z M450.3,161.2c1.2,0,1.9-1.1,1.9-2.2c0-1.2-0.8-2.2-1.9-2.2c-1.2,0-2,1.1-2,2.2
		C448.4,160.2,449.1,161.2,450.3,161.2z"/>
	<path fill="#FFFFFF" d="M454.7,156.2l1.9,4.8l1.9-4.8h0.8l-2.3,5.7h-0.6l-2.3-5.7H454.7z"/>
	<path fill="#FFFFFF" d="M464.7,161.2v0.6h-3.9v-5.7h3.8v0.6h-3.1v1.8h2.7v0.6h-2.7v2H464.7z"/>
	<path fill="#FFFFFF" d="M467.2,157.5v4.3h-0.7v-5.7h0.6l3.5,4.4v-4.4h0.7v5.7h-0.6L467.2,157.5z"/>
	<path fill="#FFFFFF" d="M432.6,170.1c1,0,1.8,0.5,2.1,1.2l-0.6,0.4c-0.3-0.7-1-1-1.6-1c-1.3,0-1.9,1.1-1.9,2.2c0,1.2,0.8,2.2,2,2.2
		c0.6,0,1.3-0.3,1.6-1l0.6,0.3c-0.4,0.8-1.4,1.3-2.3,1.3c-1.6,0-2.7-1.5-2.7-2.9C429.9,171.6,430.9,170.1,432.6,170.1z"/>
	<path fill="#FFFFFF" d="M436.1,173c0-1.5,1.2-2.9,2.7-2.9c1.6,0,2.7,1.5,2.7,2.9c0,1.5-1.1,2.9-2.7,2.9
		C437.2,175.9,436.1,174.5,436.1,173z M438.8,175.2c1.2,0,1.9-1.1,1.9-2.2c0-1.2-0.8-2.2-1.9-2.2c-1.2,0-2,1.1-2,2.2
		C436.9,174.2,437.6,175.2,438.8,175.2z"/>
	<path fill="#FFFFFF" d="M444,171.5v4.3h-0.7v-5.7h0.6l3.5,4.4v-4.4h0.7v5.7h-0.6L444,171.5z"/>
	<path fill="#FFFFFF" d="M452.6,170.1c1,0,1.8,0.5,2.1,1.2l-0.6,0.4c-0.3-0.7-1-1-1.6-1c-1.3,0-1.9,1.1-1.9,2.2c0,1.2,0.8,2.2,2,2.2
		c0.6,0,1.3-0.3,1.6-1l0.6,0.3c-0.4,0.8-1.4,1.3-2.3,1.3c-1.6,0-2.7-1.5-2.7-2.9C449.9,171.6,450.9,170.1,452.6,170.1z"/>
	<path fill="#FFFFFF" d="M460.4,175.2v0.6h-3.9v-5.7h3.8v0.6h-3.1v1.8h2.7v0.6h-2.7v2H460.4z"/>
	<path fill="#FFFFFF" d="M462.2,175.9v-5.7h2.4c1,0,1.7,0.9,1.7,1.8c0,0.9-0.7,1.8-1.7,1.8h-1.7v2H462.2z M462.9,173.2h1.7
		c0.6,0,1-0.5,1-1.2c0-0.7-0.5-1.2-1-1.2h-1.6V173.2z"/>
	<path fill="#FFFFFF" d="M472,170.8h-2v5h-0.7v-5h-2v-0.6h4.6V170.8z"/>
	<path fill="#FFFFFF" d="M477,171.4c-0.3-0.3-0.9-0.6-1.5-0.6c-0.9,0-1.3,0.4-1.3,0.9c0,0.6,0.5,0.8,1.5,1c1.2,0.3,1.9,0.6,1.9,1.6
		c0,1.1-0.9,1.6-2.1,1.6c-0.9,0-1.7-0.3-2.3-0.8l0.3-0.6c0.3,0.4,1.1,0.8,2,0.8c0.8,0,1.3-0.3,1.3-0.9c0-0.6-0.6-0.8-1.6-1.1
		c-1.2-0.3-1.8-0.6-1.8-1.5c0-1.1,0.9-1.7,2-1.7c0.8,0,1.4,0.3,1.9,0.6L477,171.4z"/>
</g>
<g>
	<path fill="#FFFFFF" d="M11.9,141.7H9.2v-5.7h2.8c0.8,0,1.3,0.7,1.3,1.4c0,0.6-0.3,1.1-0.8,1.3c0.6,0.2,1.1,0.7,1.1,1.4
		C13.6,141.2,12.8,141.7,11.9,141.7z M9.9,136.7v1.9h1.8c0.5,0,0.9-0.4,0.9-0.9c0-0.5-0.4-1-0.8-1H9.9z M12,139.2h-2v2h2
		c0.5,0,0.9-0.5,0.9-1C12.9,139.6,12.5,139.2,12,139.2z"/>
	<path fill="#FFFFFF" d="M19.4,138.9v-2.9h0.7v2.9c0,1.5-0.7,2.8-2.4,2.8c-1.8,0-2.4-1.4-2.4-2.8v-2.9H16v2.9c0,1.1,0.4,2.2,1.7,2.2
		C19.1,141.1,19.4,140,19.4,138.9z"/>
	<path fill="#FFFFFF" d="M25.6,137.3c-0.3-0.3-0.9-0.6-1.5-0.6c-0.9,0-1.3,0.4-1.3,0.9c0,0.6,0.5,0.8,1.5,1c1.2,0.3,1.9,0.6,1.9,1.6
		c0,1.1-0.9,1.6-2.1,1.6c-0.9,0-1.7-0.3-2.3-0.8l0.3-0.6c0.3,0.4,1.1,0.8,2,0.8c0.8,0,1.3-0.3,1.3-0.9c0-0.6-0.6-0.8-1.6-1.1
		c-1.2-0.3-1.8-0.6-1.8-1.5c0-1.1,0.9-1.7,2-1.7c0.8,0,1.4,0.3,1.9,0.6L25.6,137.3z"/>
	<path fill="#FFFFFF" d="M27.9,141.7v-5.7h0.7v5.7H27.9z"/>
	<path fill="#FFFFFF" d="M31.5,137.4v4.3h-0.7v-5.7h0.6l3.5,4.4v-4.4h0.7v5.7H35L31.5,137.4z"/>
	<path fill="#FFFFFF" d="M41.6,141.1v0.6h-3.9v-5.7h3.8v0.6h-3.1v1.8h2.7v0.6h-2.7v2H41.6z"/>
	<path fill="#FFFFFF" d="M46.7,137.3c-0.3-0.3-0.9-0.6-1.5-0.6c-0.9,0-1.3,0.4-1.3,0.9c0,0.6,0.5,0.8,1.5,1c1.2,0.3,1.9,0.6,1.9,1.6
		c0,1.1-0.9,1.6-2.1,1.6c-0.9,0-1.7-0.3-2.3-0.8l0.3-0.6c0.3,0.4,1.1,0.8,2,0.8c0.8,0,1.3-0.3,1.3-0.9c0-0.6-0.6-0.8-1.6-1.1
		c-1.2-0.3-1.8-0.6-1.8-1.5c0-1.1,0.9-1.7,2-1.7c0.8,0,1.4,0.3,1.9,0.6L46.7,137.3z"/>
	<path fill="#FFFFFF" d="M52.4,137.3c-0.3-0.3-0.9-0.6-1.5-0.6c-0.9,0-1.3,0.4-1.3,0.9c0,0.6,0.5,0.8,1.5,1c1.2,0.3,1.9,0.6,1.9,1.6
		c0,1.1-0.9,1.6-2.1,1.6c-0.9,0-1.7-0.3-2.3-0.8l0.3-0.6c0.3,0.4,1.1,0.8,2,0.8c0.8,0,1.3-0.3,1.3-0.9c0-0.6-0.6-0.8-1.6-1.1
		c-1.2-0.3-1.8-0.6-1.8-1.5c0-1.1,0.9-1.7,2-1.7c0.8,0,1.4,0.3,1.9,0.6L52.4,137.3z"/>
	<path fill="#FFFFFF" d="M9.2,155.7v-5.7h0.7v5.7H9.2z"/>
	<path fill="#FFFFFF" d="M17,155.7v-4.4l-1.9,3.4h-0.4l-1.9-3.4v4.4h-0.7v-5.7h0.8l2.1,3.7l2.1-3.7h0.8v5.7H17z"/>
	<path fill="#FFFFFF" d="M24.8,155.7v-4.4l-1.9,3.4h-0.4l-1.9-3.4v4.4h-0.7v-5.7h0.8l2.1,3.7l2.1-3.7h0.8v5.7H24.8z"/>
	<path fill="#FFFFFF" d="M31.5,155.1v0.6h-3.9v-5.7h3.8v0.6h-3.1v1.8h2.7v0.6h-2.7v2H31.5z"/>
	<path fill="#FFFFFF" d="M33.4,155.7v-5.7h2.4c1,0,1.7,0.9,1.7,1.8c0,0.8-0.5,1.5-1.2,1.7l1.4,2.2h-0.8l-1.3-2h-1.5v2H33.4z
		 M34.1,153.1h1.7c0.6,0,1-0.6,1-1.2c0-0.6-0.5-1.2-1-1.2h-1.7V153.1z"/>
	<path fill="#FFFFFF" d="M42.8,151.3c-0.3-0.3-0.9-0.6-1.5-0.6c-0.9,0-1.3,0.4-1.3,0.9c0,0.6,0.5,0.8,1.5,1c1.2,0.3,1.9,0.6,1.9,1.6
		c0,1.1-0.9,1.6-2.1,1.6c-0.9,0-1.7-0.3-2.3-0.8l0.3-0.6c0.3,0.4,1.1,0.8,2,0.8c0.8,0,1.3-0.3,1.3-0.9c0-0.6-0.6-0.8-1.6-1.1
		c-1.2-0.3-1.8-0.6-1.8-1.5c0-1.1,0.9-1.7,2-1.7c0.8,0,1.4,0.3,1.9,0.6L42.8,151.3z"/>
	<path fill="#FFFFFF" d="M45.2,155.7v-5.7h0.7v5.7H45.2z"/>
	<path fill="#FFFFFF" d="M47.7,152.9c0-1.5,1.2-2.9,2.7-2.9c1.6,0,2.7,1.5,2.7,2.9c0,1.5-1.1,2.9-2.7,2.9
		C48.8,155.8,47.7,154.4,47.7,152.9z M50.4,155.1c1.2,0,1.9-1.1,1.9-2.2c0-1.2-0.8-2.2-1.9-2.2c-1.2,0-2,1.1-2,2.2
		C48.4,154.1,49.2,155.1,50.4,155.1z"/>
	<path fill="#FFFFFF" d="M55.6,151.4v4.3h-0.7v-5.7h0.6l3.5,4.4v-4.4h0.7v5.7h-0.6L55.6,151.4z"/>
	<path fill="#FFFFFF" d="M65.2,151.3c-0.3-0.3-0.9-0.6-1.5-0.6c-0.9,0-1.3,0.4-1.3,0.9c0,0.6,0.5,0.8,1.5,1c1.2,0.3,1.9,0.6,1.9,1.6
		c0,1.1-0.9,1.6-2.1,1.6c-0.9,0-1.7-0.3-2.3-0.8l0.3-0.6c0.3,0.4,1.1,0.8,2,0.8c0.8,0,1.3-0.3,1.3-0.9c0-0.6-0.6-0.8-1.6-1.1
		c-1.2-0.3-1.8-0.6-1.8-1.5c0-1.1,0.9-1.7,2-1.7c0.8,0,1.4,0.3,1.9,0.6L65.2,151.3z"/>
</g>
<g>
	<path fill="#FFFFFF" d="M109.7,135v-5.7h2.4c1,0,1.7,0.9,1.7,1.8c0,0.9-0.7,1.8-1.7,1.8h-1.7v2H109.7z M110.4,132.3h1.7
		c0.6,0,1-0.5,1-1.2c0-0.7-0.5-1.2-1-1.2h-1.6V132.3z"/>
	<path fill="#FFFFFF" d="M115.5,135v-5.7h2.4c1,0,1.7,0.9,1.7,1.8c0,0.8-0.5,1.5-1.2,1.7l1.4,2.2H119l-1.3-2h-1.5v2H115.5z
		 M116.2,132.3h1.7c0.6,0,1-0.6,1-1.2c0-0.6-0.5-1.2-1-1.2h-1.7V132.3z"/>
	<path fill="#FFFFFF" d="M121.2,132.2c0-1.5,1.2-2.9,2.7-2.9c1.6,0,2.7,1.5,2.7,2.9c0,1.5-1.1,2.9-2.7,2.9
		C122.3,135,121.2,133.6,121.2,132.2z M123.9,134.4c1.2,0,1.9-1.1,1.9-2.2c0-1.2-0.8-2.2-1.9-2.2c-1.2,0-2,1.1-2,2.2
		C121.9,133.3,122.7,134.4,123.9,134.4z"/>
	<path fill="#FFFFFF" d="M128.4,135v-5.7h2.4c1,0,1.7,0.9,1.7,1.8c0,0.9-0.7,1.8-1.7,1.8h-1.7v2H128.4z M129.1,132.3h1.7
		c0.6,0,1-0.5,1-1.2c0-0.7-0.5-1.2-1-1.2h-1.6V132.3z"/>
	<path fill="#FFFFFF" d="M134.1,135v-5.7h2.4c1,0,1.7,0.9,1.7,1.8c0,0.8-0.5,1.5-1.2,1.7l1.4,2.2h-0.8l-1.3-2h-1.5v2H134.1z
		 M134.9,132.3h1.7c0.6,0,1-0.6,1-1.2c0-0.6-0.5-1.2-1-1.2h-1.7V132.3z"/>
	<path fill="#FFFFFF" d="M140.3,135v-5.7h0.7v5.7H140.3z"/>
	<path fill="#FFFFFF" d="M147,134.4v0.6h-3.9v-5.7h3.8v0.6h-3.1v1.8h2.7v0.6h-2.7v2H147z"/>
	<path fill="#FFFFFF" d="M152.9,130h-2v5h-0.7v-5h-2v-0.6h4.6V130z"/>
	<path fill="#FFFFFF" d="M153.4,135l2.3-5.7h0.6l2.3,5.7h-0.8l-0.7-1.7h-2.4l-0.7,1.7H153.4z M156,130.2l-1.1,2.6h2.1L156,130.2z"/>
	<path fill="#FFFFFF" d="M160.2,135v-5.7h2.4c1,0,1.7,0.9,1.7,1.8c0,0.8-0.5,1.5-1.2,1.7l1.4,2.2h-0.8l-1.3-2h-1.5v2H160.2z
		 M160.9,132.3h1.7c0.6,0,1-0.6,1-1.2c0-0.6-0.5-1.2-1-1.2h-1.7V132.3z"/>
	<path fill="#FFFFFF" d="M166.2,129.3l1.7,3l1.7-3h0.8l-2.2,3.6v2.1h-0.7v-2.1l-2.2-3.6H166.2z"/>
	<path fill="#FFFFFF" d="M112.1,143.3c1,0,1.8,0.5,2.1,1.2l-0.6,0.4c-0.3-0.7-1-1-1.6-1c-1.3,0-1.9,1.1-1.9,2.2c0,1.2,0.8,2.2,2,2.2
		c0.6,0,1.3-0.3,1.6-1l0.6,0.3c-0.4,0.8-1.4,1.3-2.3,1.3c-1.6,0-2.7-1.5-2.7-2.9C109.4,144.7,110.4,143.3,112.1,143.3z"/>
	<path fill="#FFFFFF" d="M115.6,146.2c0-1.5,1.2-2.9,2.7-2.9c1.6,0,2.7,1.5,2.7,2.9c0,1.5-1.1,2.9-2.7,2.9
		C116.7,149,115.6,147.6,115.6,146.2z M118.3,148.4c1.2,0,1.9-1.1,1.9-2.2c0-1.2-0.8-2.2-1.9-2.2c-1.2,0-2,1.1-2,2.2
		C116.3,147.3,117.1,148.4,118.3,148.4z"/>
	<path fill="#FFFFFF" d="M123.5,144.7v4.3h-0.7v-5.7h0.6l3.5,4.4v-4.4h0.7v5.7h-0.6L123.5,144.7z"/>
	<path fill="#FFFFFF" d="M132,143.3c1,0,1.8,0.5,2.1,1.2l-0.6,0.4c-0.3-0.7-1-1-1.6-1c-1.3,0-1.9,1.1-1.9,2.2c0,1.2,0.8,2.2,2,2.2
		c0.6,0,1.3-0.3,1.6-1l0.6,0.3c-0.4,0.8-1.4,1.3-2.3,1.3c-1.6,0-2.7-1.5-2.7-2.9C129.3,144.7,130.3,143.3,132,143.3z"/>
	<path fill="#FFFFFF" d="M139.8,148.4v0.6H136v-5.7h3.8v0.6h-3.1v1.8h2.7v0.6h-2.7v2H139.8z"/>
	<path fill="#FFFFFF" d="M141.6,149v-5.7h2.4c1,0,1.7,0.9,1.7,1.8c0,0.9-0.7,1.8-1.7,1.8h-1.7v2H141.6z M142.4,146.3h1.7
		c0.6,0,1-0.5,1-1.2c0-0.7-0.5-1.2-1-1.2h-1.6V146.3z"/>
	<path fill="#FFFFFF" d="M151.5,144h-2v5h-0.7v-5h-2v-0.6h4.6V144z"/>
	<path fill="#FFFFFF" d="M109.7,163v-5.7h2c1.8,0,2.7,1.3,2.7,2.8c0,1.7-1.1,2.8-2.7,2.8H109.7z M111.7,158h-1.2v4.4h1.2
		c1.3,0,2-1,2-2.2C113.7,158.9,113,158,111.7,158z"/>
	<path fill="#FFFFFF" d="M120.1,162.4v0.6h-3.9v-5.7h3.8v0.6H117v1.8h2.7v0.6H117v2H120.1z"/>
	<path fill="#FFFFFF" d="M122.1,157.3l1.9,4.8l1.9-4.8h0.8l-2.3,5.7h-0.6l-2.3-5.7H122.1z"/>
	<path fill="#FFFFFF" d="M132,162.4v0.6h-3.9v-5.7h3.8v0.6h-3.1v1.8h2.7v0.6h-2.7v2H132z"/>
	<path fill="#FFFFFF" d="M133.8,163v-5.7h0.7v5h3.2v0.6H133.8z"/>
	<path fill="#FFFFFF" d="M138.7,160.2c0-1.5,1.2-2.9,2.7-2.9c1.6,0,2.7,1.5,2.7,2.9c0,1.5-1.1,2.9-2.7,2.9
		C139.8,163,138.7,161.6,138.7,160.2z M141.4,162.4c1.2,0,1.9-1.1,1.9-2.2c0-1.2-0.8-2.2-1.9-2.2c-1.2,0-2,1.1-2,2.2
		C139.4,161.3,140.2,162.4,141.4,162.4z"/>
	<path fill="#FFFFFF" d="M145.8,163v-5.7h2.4c1,0,1.7,0.9,1.7,1.8c0,0.9-0.7,1.8-1.7,1.8h-1.7v2H145.8z M146.6,160.3h1.7
		c0.6,0,1-0.5,1-1.2c0-0.7-0.5-1.2-1-1.2h-1.6V160.3z"/>
	<path fill="#FFFFFF" d="M156.5,163v-4.4l-1.9,3.4h-0.4l-1.9-3.4v4.4h-0.7v-5.7h0.8l2.1,3.7l2.1-3.7h0.8v5.7H156.5z"/>
	<path fill="#FFFFFF" d="M163.3,162.4v0.6h-3.9v-5.7h3.8v0.6h-3.1v1.8h2.7v0.6h-2.7v2H163.3z"/>
	<path fill="#FFFFFF" d="M165.8,158.7v4.3h-0.7v-5.7h0.6l3.5,4.4v-4.4h0.7v5.7h-0.6L165.8,158.7z"/>
	<path fill="#FFFFFF" d="M176.1,158h-2v5h-0.7v-5h-2v-0.6h4.6V158z"/>
</g>
<g>
	<path fill="#FFFFFF" d="M211,135v-5.7h0.7v5.7H211z"/>
	<path fill="#FFFFFF" d="M218,130h-2v5h-0.7v-5h-2v-0.6h4.6V130z"/>
	<path fill="#FFFFFF" d="M223.4,134.4v0.6h-3.9v-5.7h3.8v0.6h-3.1v1.8h2.7v0.6h-2.7v2H223.4z"/>
	<path fill="#FFFFFF" d="M225.3,135v-5.7h2.4c1,0,1.7,0.9,1.7,1.8c0,0.8-0.5,1.5-1.2,1.7l1.4,2.2h-0.8l-1.3-2H226v2H225.3z
		 M226,132.3h1.7c0.6,0,1-0.6,1-1.2c0-0.6-0.5-1.2-1-1.2H226V132.3z"/>
	<path fill="#FFFFFF" d="M230.7,135l2.3-5.7h0.6l2.3,5.7h-0.8l-0.7-1.7h-2.4l-0.7,1.7H230.7z M233.4,130.2l-1.1,2.6h2.1L233.4,130.2
		z"/>
	<path fill="#FFFFFF" d="M241.1,130h-2v5h-0.7v-5h-2v-0.6h4.6V130z"/>
	<path fill="#FFFFFF" d="M242.7,135v-5.7h0.7v5.7H242.7z"/>
	<path fill="#FFFFFF" d="M245.7,129.3l1.9,4.8l1.9-4.8h0.8l-2.3,5.7h-0.6l-2.3-5.7H245.7z"/>
	<path fill="#FFFFFF" d="M255.7,134.4v0.6h-3.9v-5.7h3.8v0.6h-3.1v1.8h2.7v0.6h-2.7v2H255.7z"/>
	<path fill="#FFFFFF" d="M213.3,143.3c1,0,1.8,0.5,2.1,1.2l-0.6,0.4c-0.3-0.7-1-1-1.6-1c-1.3,0-1.9,1.1-1.9,2.2c0,1.2,0.8,2.2,2,2.2
		c0.6,0,1.3-0.3,1.6-1l0.6,0.3c-0.4,0.8-1.4,1.3-2.3,1.3c-1.6,0-2.7-1.5-2.7-2.9C210.6,144.7,211.6,143.3,213.3,143.3z"/>
	<path fill="#FFFFFF" d="M216.8,146.2c0-1.5,1.2-2.9,2.7-2.9c1.6,0,2.7,1.5,2.7,2.9c0,1.5-1.1,2.9-2.7,2.9
		C217.9,149,216.8,147.6,216.8,146.2z M219.5,148.4c1.2,0,1.9-1.1,1.9-2.2c0-1.2-0.8-2.2-1.9-2.2c-1.2,0-2,1.1-2,2.2
		C217.6,147.3,218.3,148.4,219.5,148.4z"/>
	<path fill="#FFFFFF" d="M224.7,144.7v4.3H224v-5.7h0.6l3.5,4.4v-4.4h0.7v5.7h-0.6L224.7,144.7z"/>
	<path fill="#FFFFFF" d="M234.3,144.5c-0.3-0.3-0.9-0.6-1.5-0.6c-0.9,0-1.3,0.4-1.3,0.9c0,0.6,0.5,0.8,1.5,1
		c1.2,0.3,1.9,0.6,1.9,1.6c0,1.1-0.9,1.6-2.1,1.6c-0.9,0-1.7-0.3-2.3-0.8l0.3-0.6c0.3,0.4,1.1,0.8,2,0.8c0.8,0,1.3-0.3,1.3-0.9
		c0-0.6-0.6-0.8-1.6-1.1c-1.2-0.3-1.8-0.6-1.8-1.5c0-1.1,0.9-1.7,2-1.7c0.8,0,1.4,0.3,1.9,0.6L234.3,144.5z"/>
	<path fill="#FFFFFF" d="M240.7,146.2v-2.9h0.7v2.9c0,1.5-0.7,2.8-2.4,2.8c-1.8,0-2.4-1.4-2.4-2.8v-2.9h0.7v2.9
		c0,1.1,0.4,2.2,1.7,2.2C240.3,148.4,240.7,147.3,240.7,146.2z"/>
	<path fill="#FFFFFF" d="M248.4,149v-4.4l-1.9,3.4h-0.4l-1.9-3.4v4.4h-0.7v-5.7h0.8l2.1,3.7l2.1-3.7h0.8v5.7H248.4z"/>
	<path fill="#FFFFFF" d="M255.1,148.4v0.6h-3.9v-5.7h3.8v0.6H252v1.8h2.7v0.6H252v2H255.1z"/>
	<path fill="#FFFFFF" d="M256.9,149v-5.7h2.4c1,0,1.7,0.9,1.7,1.8c0,0.8-0.5,1.5-1.2,1.7l1.4,2.2h-0.8l-1.3-2h-1.5v2H256.9z
		 M257.7,146.3h1.7c0.6,0,1-0.6,1-1.2c0-0.6-0.5-1.2-1-1.2h-1.7V146.3z"/>
	<path fill="#FFFFFF" d="M211,163v-5.7h0.7v5h3.2v0.6H211z"/>
	<path fill="#FFFFFF" d="M220.4,162.4v0.6h-3.9v-5.7h3.8v0.6h-3.1v1.8h2.7v0.6h-2.7v2H220.4z"/>
	<path fill="#FFFFFF" d="M221.6,163l2.3-5.7h0.6l2.3,5.7h-0.8l-0.7-1.7H223l-0.7,1.7H221.6z M224.2,158.2l-1.1,2.6h2.1L224.2,158.2z
		"/>
	<path fill="#FFFFFF" d="M228.4,163v-5.7h2.4c1,0,1.7,0.9,1.7,1.8c0,0.8-0.5,1.5-1.2,1.7l1.4,2.2h-0.8l-1.3-2h-1.5v2H228.4z
		 M229.1,160.3h1.7c0.6,0,1-0.6,1-1.2c0-0.6-0.5-1.2-1-1.2h-1.7V160.3z"/>
	<path fill="#FFFFFF" d="M235.2,158.7v4.3h-0.7v-5.7h0.6l3.5,4.4v-4.4h0.7v5.7h-0.6L235.2,158.7z"/>
	<path fill="#FFFFFF" d="M241.5,163v-5.7h0.7v5.7H241.5z"/>
	<path fill="#FFFFFF" d="M245.1,158.7v4.3h-0.7v-5.7h0.6l3.5,4.4v-4.4h0.7v5.7h-0.6L245.1,158.7z"/>
	<path fill="#FFFFFF" d="M255.3,162.2c-0.5,0.5-1.1,0.8-1.7,0.8c-1.5,0-2.6-1.4-2.6-2.9c0-1.5,1.1-2.9,2.6-2.9
		c1.1,0,1.8,0.5,2.2,1.2l-0.6,0.4c-0.3-0.7-0.9-1-1.6-1c-1.2,0-1.9,1.1-1.9,2.2c0,1.2,0.9,2.2,2,2.2c0.6,0,1.2-0.3,1.7-0.9v-0.8
		h-1.2v-0.5h1.8v2.8h-0.6V162.2z"/>
</g>
<g>
	<path fill="#FFFFFF" d="M312.8,148.7l2.3-5.7h0.6l2.3,5.7h-0.8l-0.7-1.7h-2.4l-0.7,1.7H312.8z M315.4,143.8l-1.1,2.6h2.1
		L315.4,143.8z"/>
	<path fill="#FFFFFF" d="M322,143c1,0,1.8,0.5,2.1,1.2l-0.6,0.4c-0.3-0.7-1-1-1.6-1c-1.3,0-1.9,1.1-1.9,2.2c0,1.2,0.8,2.2,2,2.2
		c0.6,0,1.3-0.3,1.6-1l0.6,0.3c-0.4,0.8-1.4,1.3-2.3,1.3c-1.6,0-2.7-1.5-2.7-2.9C319.3,144.4,320.3,143,322,143z"/>
	<path fill="#FFFFFF" d="M329.9,143.6h-2v5h-0.7v-5h-2V143h4.6V143.6z"/>
	<path fill="#FFFFFF" d="M331.6,148.7V143h0.7v5.7H331.6z"/>
	<path fill="#FFFFFF" d="M334.1,145.8c0-1.5,1.2-2.9,2.7-2.9c1.6,0,2.7,1.5,2.7,2.9c0,1.5-1.1,2.9-2.7,2.9
		C335.2,148.7,334.1,147.3,334.1,145.8z M336.8,148.1c1.2,0,1.9-1.1,1.9-2.2c0-1.2-0.8-2.2-1.9-2.2c-1.2,0-2,1.1-2,2.2
		C334.8,147,335.6,148.1,336.8,148.1z"/>
	<path fill="#FFFFFF" d="M342,144.3v4.3h-0.7V143h0.6l3.5,4.4V143h0.7v5.7h-0.6L342,144.3z"/>
	<path fill="#FFFFFF" d="M351,148.7V143h2.4c1,0,1.7,0.9,1.7,1.8c0,0.9-0.7,1.8-1.7,1.8h-1.7v2H351z M351.7,146h1.7
		c0.6,0,1-0.5,1-1.2c0-0.7-0.5-1.2-1-1.2h-1.6V146z"/>
	<path fill="#FFFFFF" d="M356.8,148.7V143h0.7v5h3.2v0.6H356.8z"/>
	<path fill="#FFFFFF" d="M361.7,148.7l2.3-5.7h0.6l2.3,5.7h-0.8l-0.7-1.7h-2.4l-0.7,1.7H361.7z M364.3,143.8l-1.1,2.6h2.1
		L364.3,143.8z"/>
	<path fill="#FFFFFF" d="M369.2,144.3v4.3h-0.7V143h0.6l3.5,4.4V143h0.7v5.7h-0.6L369.2,144.3z"/>
</g>
<g>
	<path fill="#231F20" d="M395.3,13.1h0.1c0.3,0,0.4-0.1,0.4-0.4V8.4l1.3,2.9c0.1,0.2,0.2,0.4,0.6,0.4c0.4,0,0.5-0.2,0.6-0.4l1.3-2.9
		v4.3c0,0.3,0.1,0.4,0.4,0.4h0.1c0.3,0,0.4-0.1,0.4-0.4v-5c0-0.3-0.2-0.5-0.6-0.5h-0.2c-0.3,0-0.5,0.1-0.6,0.5l-1.4,3.1l-1.4-3.1
		c-0.1-0.3-0.2-0.5-0.6-0.5h-0.2c-0.3,0-0.5,0.2-0.5,0.5v5C395,12.9,395.1,13.1,395.3,13.1 M390.7,8v4.6c0,0.3,0.1,0.4,0.4,0.4h0.1
		c0.3,0,0.4-0.1,0.4-0.4V8h1.6c0.3,0,0.4-0.1,0.4-0.4v0c0-0.3-0.1-0.4-0.4-0.4h-4.2c-0.3,0-0.4,0.1-0.4,0.4v0c0,0.3,0.2,0.4,0.4,0.4
		H390.7z"/>
	<path fill="#00ABC4" d="M364.1,25.9l8.3,11.5c1.8,2.6,3.8,3.5,5.8,3.5c3.8,0,6.7-3.3,6.4-3.9l-10-13.7l9.5-13
		c0.3-0.6-2.4-3.9-6-3.9c-1.9,0-4,0.9-5.8,3.6l-8.2,11.5V11.2c0-3.3-1.6-4.9-4.6-4.9H358c-2.9,0-4.5,1.6-4.5,4.9V36
		c0,3.2,1.6,4.9,4.5,4.9h1.5c3,0,4.6-1.7,4.6-4.9V25.9z M331.5,41.3c10.3,0,15.4-4.2,15.4-11.6c0-6.3-5.1-9.1-11.8-10.6
		c-3.6-0.8-6.3-0.6-6.3-2.6c0-1.7,1.5-2.7,4.6-2.7c3.2,0,6.7,1.6,9,3.7c0.2,0.2,3.7-2.3,3.7-5.3c0-3.4-3.9-6.5-12.8-6.5
		c-9.4,0-14.5,4.4-14.5,11.3c0,7.1,5.7,9.5,11.4,10.6c3.4,0.7,6.1,0.7,6.1,2.8c0,1.7-1.5,2.7-4.7,2.7c-3.6,0-7.9-1.9-10.1-3.9
		c-0.3-0.3-3.5,2.5-3.5,5C317.9,37.9,321.5,41.3,331.5,41.3 M302,33.6l0.9,2.5c1.5,3.8,3.8,5,6,5c3.2,0,6-2.4,5.6-3.4L303.2,9.3
		c-0.5-1.7-1.7-2.9-6.5-2.9c-4.8,0-6.2,1.2-6.7,2.9l-11,28.5c-0.3,0.9,2.6,3.3,5.5,3.3c2.3,0,4.5-1.3,5.7-4.9l1-2.6H302z M292.8,26
		l3.7-9.9l3.6,9.9H292.8z"/>
	<path fill="#00ABC4" d="M244.4,15.7V36c0,3.2,1.5,4.9,4.4,4.9h1.5c3,0,4.7-1.7,4.7-4.9V15.7h5.5c3.3,0,4.9-1.6,4.9-4.6V11
		c0-2.9-1.6-4.4-4.9-4.4h-21.8c-3.2,0-4.8,1.5-4.8,4.4v0.2c0,3,1.7,4.6,4.8,4.6H244.4z"/>
	<path fill="#231F20" d="M219.6,19.4c-1.4-2.3-4.6-4.4-9.1-4.4c-6.9,0-12,5.3-12,13.2c0,7.9,5.2,13.1,11.8,13.1
		c4.2,0,7.1-1.7,9.4-4.8v2.7c0,1.3,0.6,1.6,1.5,1.6h0.4c0.9,0,1.5-0.4,1.5-1.6V8.1c0-2.7-1.1-3.3-2.3-3.3c-0.6,0-1.2,0.3-1.2,0.4
		V19.4z M219.6,29.8c0,4.8-4.3,8.4-9,8.4c-5,0-8.7-4.3-8.7-10.1c0-6,3.5-10.1,8.8-10.1c4.4,0,7.3,2.3,8.9,5.9V29.8z M175.9,19.5
		v-0.8c0-2.7-1-3.3-2.2-3.3c-0.6,0-1.2,0.3-1.2,0.4v23.4c0,1.3,0.6,1.6,1.5,1.6h0.4c0.9,0,1.5-0.4,1.5-1.6V23.5
		c1.5-3.2,4.4-5.3,8.3-5.3c4.3,0,6.7,3,6.7,8v13c0,1.3,0.6,1.6,1.5,1.6h0.4c0.9,0,1.5-0.4,1.5-1.6V26c0-6.6-3.3-11-9.9-11
		C180.5,15,177.6,16.8,175.9,19.5 M163.4,25.7h-0.5c-11.6,0.3-17.4,2.7-17.4,8.5c0,4.2,3.2,7,8.6,7c4,0,7.4-1.7,9.4-4.6v0.9
		c0,2.7,1,3.3,2.2,3.3c0.6,0,1.2-0.3,1.2-0.4V24.7c0-6-3.8-9.7-10.1-9.7c-6.6,0-10.2,4-10.2,5.8c0,1.8,1.9,2,1.9,2
		c1.4-2.6,3.9-4.6,8-4.6c4.5,0,7,2.4,7,6.7V25.7z M154.4,38.3c-3.4,0-5.5-1.6-5.5-4.2c0-3.9,4.4-5.5,13-5.8l1.5-0.1v2.3
		C163.4,35.1,159.5,38.3,154.4,38.3 M133.7,20.2v-1.5c0-2.7-1.1-3.3-2.2-3.3c-0.6,0-1.2,0.3-1.2,0.4v23.4c0,1.3,0.6,1.6,1.5,1.6h0.4
		c0.9,0,1.5-0.4,1.5-1.6v-9.8c0-6.4,1.7-11.1,6.2-11.1c1.4,0,2.3,0.4,3,1.1c0.1,0.1,0.9-0.5,0.9-1.8c0-1.6-1.3-2.6-3.6-2.6
		C136.9,15,134.8,16.7,133.7,20.2 M104.8,36.8c1.4,2.3,4.6,4.5,9.1,4.5c6.9,0,12-5.3,12-13.2c0-7.9-5.2-13.1-11.8-13.1
		c-4.1,0-7,1.7-9.3,4.7V8.1c0-2.7-1.1-3.3-2.3-3.3c-0.6,0-1.2,0.3-1.2,0.4v34c0,1.3,0.6,1.6,1.5,1.6h0.4c0.9,0,1.5-0.4,1.5-1.6V36.8
		z M104.8,23.9c1.6-3.6,4.6-5.9,9-5.9c5,0,8.7,4.3,8.7,10.1c0,6-3.5,10.1-8.8,10.1c-4.7,0-8.9-3.7-8.9-8.5V23.9z"/>
	<g>
		<path fill="#010101" d="M264.6,44.3c0-0.5,0.2-1.2,0.4-2l12.2-39.8c0,0,0.3-0.2,0.6-0.2c0.8,0,2.2,0.2,2.2,1.9
			c0,0.5-0.2,1.2-0.4,2l-12.2,39.8c0,0.1-0.3,0.2-0.6,0.2C266,46.2,264.6,46,264.6,44.3z"/>
	</g>
</g>
<g>
	<path d="M80.4,60.3l2.6-6.3h0.5l2.6,6.3h-0.7l-0.8-2h-2.8l-0.8,2H80.4z M83.3,54.8L82,57.9h2.5L83.3,54.8z"/>
	<path d="M91.5,55.2c-0.4-0.4-1-0.7-1.7-0.7c-1.1,0-1.6,0.5-1.6,1.2c0,0.7,0.5,0.9,1.8,1.2c1.3,0.3,2.2,0.6,2.2,1.8
		c0,1.2-0.9,1.7-2.3,1.7c-1,0-1.8-0.3-2.5-0.9l0.3-0.5c0.5,0.5,1.3,0.9,2.2,0.9c1,0,1.6-0.4,1.6-1.1c0-0.8-0.6-1-1.9-1.3
		c-1.3-0.3-2-0.6-2-1.6c0-1.2,0.9-1.8,2.2-1.8c0.8,0,1.5,0.3,2,0.7L91.5,55.2z"/>
	<path d="M94.1,60.3v-6.3h0.6v3.6l3.5-3.7h0.7l-2.6,2.8l2.7,3.5h-0.7l-2.4-3.2l-1.2,1.2v1.9H94.1z"/>
	<path d="M107.9,54.6h-2.2v5.7h-0.6v-5.7h-2.2v-0.5h5.1V54.6z"/>
	<path d="M114.7,54.1v6.3h-0.6v-2.9h-3.7v2.9h-0.6v-6.3h0.6v2.8h3.7v-2.8H114.7z"/>
	<path d="M121.4,59.8v0.5h-4.2v-6.3h4.1v0.5h-3.5v2.3h3.1v0.5h-3.1v2.4H121.4z"/>
	<path d="M126.6,60.3v-6.3h2.6c1.1,0,1.9,1,1.9,2c0,0.9-0.6,1.7-1.4,1.9l1.5,2.4h-0.7l-1.5-2.3h-1.9v2.3H126.6z M127.2,57.5h2.1
		c0.7,0,1.2-0.7,1.2-1.4c0-0.8-0.6-1.4-1.3-1.4h-2V57.5z"/>
	<path d="M133.3,60.3v-6.3h0.6v6.3H133.3z"/>
	<path d="M141,59.4c-0.6,0.6-1.3,1-2,1c-1.7,0-2.9-1.6-2.9-3.2c0-1.7,1.2-3.2,2.9-3.2c1.2,0,2,0.6,2.4,1.4l-0.5,0.3
		c-0.4-0.8-1.1-1.1-1.9-1.1c-1.4,0-2.3,1.3-2.3,2.6c0,1.4,1,2.6,2.4,2.6c0.7,0,1.4-0.3,2-1v-1.1h-1.4v-0.5h1.9v3.1H141V59.4z"/>
	<path d="M148.6,54.1v6.3H148v-2.9h-3.7v2.9h-0.6v-6.3h0.6v2.8h3.7v-2.8H148.6z"/>
	<path d="M155.5,54.6h-2.2v5.7h-0.6v-5.7h-2.2v-0.5h5.1V54.6z"/>
	<path d="M164.6,59.8c-0.5,0.4-1.1,0.6-1.7,0.6c-1.7,0-2.9-1.6-2.9-3.2c0-1.7,1.3-3.2,3-3.2c1.8,0,2.9,1.6,2.9,3.2
		c0,0.9-0.3,1.7-0.9,2.3l0.7,0.9H165L164.6,59.8z M164.2,59.3l-0.8-0.9h0.6l0.5,0.6c0.4-0.5,0.6-1.2,0.6-1.8c0-1.4-1-2.6-2.3-2.6
		c-1.4,0-2.3,1.3-2.3,2.6c0,1.4,0.9,2.6,2.3,2.6C163.4,59.8,163.8,59.6,164.2,59.3z"/>
	<path d="M172.4,57.2v-3.2h0.6v3.2c0,1.7-0.7,3.2-2.6,3.2c-2,0-2.6-1.6-2.6-3.2v-3.2h0.6v3.2c0,1.3,0.5,2.6,2,2.6
		C172,59.8,172.4,58.5,172.4,57.2z"/>
	<path d="M179.6,59.8v0.5h-4.2v-6.3h4.1v0.5H176v2.3h3.1v0.5H176v2.4H179.6z"/>
	<path d="M185.3,55.2c-0.4-0.4-1-0.7-1.7-0.7c-1.1,0-1.6,0.5-1.6,1.2c0,0.7,0.5,0.9,1.7,1.2c1.3,0.3,2.2,0.6,2.2,1.8
		c0,1.2-0.9,1.7-2.3,1.7c-1,0-1.8-0.3-2.5-0.9l0.3-0.5c0.5,0.5,1.3,0.9,2.2,0.9c1,0,1.6-0.4,1.6-1.1c0-0.8-0.6-1-1.9-1.3
		c-1.3-0.3-2-0.6-2-1.6c0-1.2,0.9-1.8,2.2-1.8c0.8,0,1.5,0.3,2,0.7L185.3,55.2z"/>
	<path d="M192.3,54.6h-2.2v5.7h-0.6v-5.7h-2.2v-0.5h5.1V54.6z"/>
	<path d="M194.1,60.3v-6.3h0.6v6.3H194.1z"/>
	<path d="M196.8,57.2c0-1.7,1.3-3.2,3-3.2c1.7,0,2.9,1.6,2.9,3.2c0,1.7-1.3,3.2-2.9,3.2C198,60.4,196.8,58.8,196.8,57.2z
		 M199.8,59.8c1.4,0,2.3-1.3,2.3-2.6c0-1.4-1-2.6-2.3-2.6c-1.4,0-2.3,1.3-2.3,2.6C197.4,58.6,198.4,59.8,199.8,59.8z"/>
	<path d="M205.4,55.2v5.1h-0.6v-6.3h0.5l4.2,5.2v-5.2h0.6v6.3h-0.5L205.4,55.2z"/>
	<path d="M216.2,55.2c-0.4-0.4-1-0.7-1.7-0.7c-1.1,0-1.6,0.5-1.6,1.2c0,0.7,0.5,0.9,1.8,1.2c1.3,0.3,2.2,0.6,2.2,1.8
		c0,1.2-0.9,1.7-2.3,1.7c-1,0-1.8-0.3-2.5-0.9l0.3-0.5c0.5,0.5,1.3,0.9,2.2,0.9c1,0,1.6-0.4,1.6-1.1c0-0.8-0.6-1-1.9-1.3
		c-1.3-0.3-2-0.6-2-1.6c0-1.2,0.9-1.8,2.2-1.8c0.8,0,1.5,0.3,2,0.7L216.2,55.2z"/>
	<path d="M218.6,60.3v-0.9h0.5v0.9H218.6z"/>
	<path d="M224.5,60.3v-6.3h2.1c2,0,3,1.4,3,3.1c0,1.9-1.2,3.1-3,3.1H224.5z M226.6,54.6h-1.5v5.2h1.5c1.6,0,2.4-1.1,2.4-2.6
		C229,55.7,228.1,54.6,226.6,54.6z"/>
	<path d="M235.9,59.8v0.5h-4.2v-6.3h4.1v0.5h-3.5v2.3h3.1v0.5h-3.1v2.4H235.9z"/>
	<path d="M238,60.3v-6.3h4.1v0.5h-3.5v2.3h3v0.5h-3v2.9H238z"/>
	<path d="M244.1,60.3v-6.3h0.6v6.3H244.1z"/>
	<path d="M247.8,55.2v5.1h-0.6v-6.3h0.5l4.2,5.2v-5.2h0.6v6.3h-0.5L247.8,55.2z"/>
	<path d="M259.1,59.8v0.5h-4.2v-6.3h4.1v0.5h-3.5v2.3h3.1v0.5h-3.1v2.4H259.1z"/>
	<path d="M268.5,54.6h-2.2v5.7h-0.6v-5.7h-2.2v-0.5h5.1V54.6z"/>
	<path d="M275.3,54.1v6.3h-0.6v-2.9H271v2.9h-0.6v-6.3h0.6v2.8h3.7v-2.8H275.3z"/>
	<path d="M282,59.8v0.5h-4.2v-6.3h4.1v0.5h-3.5v2.3h3.1v0.5h-3.1v2.4H282z"/>
	<path d="M290.2,60.3h-3v-6.3h3c0.9,0,1.4,0.8,1.4,1.6c0,0.6-0.3,1.2-0.9,1.5c0.7,0.2,1.2,0.8,1.2,1.6
		C291.9,59.6,291.1,60.3,290.2,60.3z M287.8,54.6v2.3h2.2c0.6,0,1.1-0.5,1.1-1.2c0-0.6-0.4-1.2-1-1.2H287.8z M290.2,57.4h-2.4v2.4
		h2.3c0.6,0,1.1-0.6,1.1-1.2C291.3,58,290.9,57.4,290.2,57.4z"/>
	<path d="M298.2,59.8v0.5H294v-6.3h4.1v0.5h-3.5v2.3h3.1v0.5h-3.1v2.4H298.2z"/>
	<path d="M303.9,55.2c-0.4-0.4-1-0.7-1.7-0.7c-1.1,0-1.6,0.5-1.6,1.2c0,0.7,0.5,0.9,1.8,1.2c1.3,0.3,2.2,0.6,2.2,1.8
		c0,1.2-0.9,1.7-2.3,1.7c-1,0-1.8-0.3-2.5-0.9L300,59c0.5,0.5,1.3,0.9,2.2,0.9c1,0,1.6-0.4,1.6-1.1c0-0.8-0.6-1-1.9-1.3
		c-1.3-0.3-2-0.6-2-1.6c0-1.2,0.9-1.8,2.2-1.8c0.8,0,1.5,0.3,2,0.7L303.9,55.2z"/>
	<path d="M310.9,54.6h-2.2v5.7H308v-5.7h-2.2v-0.5h5.1V54.6z"/>
	<path d="M318.2,54c1.1,0,1.9,0.6,2.3,1.4l-0.5,0.3c-0.4-0.8-1.2-1.1-1.9-1.1c-1.5,0-2.3,1.3-2.3,2.6c0,1.4,1,2.6,2.4,2.6
		c0.7,0,1.5-0.4,1.9-1.2l0.5,0.3c-0.4,0.9-1.5,1.5-2.5,1.5c-1.7,0-2.9-1.6-2.9-3.2C315.2,55.6,316.3,54,318.2,54z"/>
	<path d="M322.1,57.2c0-1.7,1.3-3.2,3-3.2c1.8,0,2.9,1.6,2.9,3.2c0,1.7-1.3,3.2-2.9,3.2C323.3,60.4,322.1,58.8,322.1,57.2z
		 M325.1,59.8c1.4,0,2.3-1.3,2.3-2.6c0-1.4-1-2.6-2.3-2.6c-1.4,0-2.3,1.3-2.3,2.6C322.8,58.6,323.7,59.8,325.1,59.8z"/>
	<path d="M334.7,57.2v-3.2h0.6v3.2c0,1.7-0.7,3.2-2.6,3.2c-2,0-2.6-1.6-2.6-3.2v-3.2h0.6v3.2c0,1.3,0.5,2.6,2,2.6
		C334.2,59.8,334.7,58.5,334.7,57.2z"/>
	<path d="M337.7,60.3v-6.3h2.6c1.1,0,1.9,1,1.9,2c0,0.9-0.6,1.7-1.4,1.9l1.5,2.4h-0.7l-1.5-2.3h-1.9v2.3H337.7z M338.3,57.5h2.1
		c0.7,0,1.2-0.7,1.2-1.4c0-0.8-0.6-1.4-1.3-1.4h-2V57.5z"/>
	<path d="M348.1,55.2c-0.4-0.4-1-0.7-1.7-0.7c-1.1,0-1.6,0.5-1.6,1.2c0,0.7,0.5,0.9,1.8,1.2c1.3,0.3,2.2,0.6,2.2,1.8
		c0,1.2-0.9,1.7-2.3,1.7c-1,0-1.8-0.3-2.5-0.9l0.3-0.5c0.5,0.5,1.3,0.9,2.2,0.9c1,0,1.6-0.4,1.6-1.1c0-0.8-0.6-1-1.9-1.3
		c-1.3-0.3-2-0.6-2-1.6c0-1.2,0.9-1.8,2.2-1.8c0.8,0,1.5,0.3,2,0.7L348.1,55.2z"/>
	<path d="M354.9,59.8v0.5h-4.2v-6.3h4.1v0.5h-3.5v2.3h3.1v0.5h-3.1v2.4H354.9z"/>
	<path d="M359.7,57.2c0-1.7,1.3-3.2,3-3.2c1.8,0,2.9,1.6,2.9,3.2c0,1.7-1.3,3.2-2.9,3.2C360.9,60.4,359.7,58.8,359.7,57.2z
		 M362.6,59.8c1.4,0,2.3-1.3,2.3-2.6c0-1.4-1-2.6-2.3-2.6c-1.4,0-2.3,1.3-2.3,2.6C360.3,58.6,361.3,59.8,362.6,59.8z"/>
	<path d="M367.7,60.3v-6.3h4.1v0.5h-3.5v2.3h3v0.5h-3v2.9H367.7z"/>
	<path d="M375.7,60.3l2.6-6.3h0.5l2.6,6.3h-0.7l-0.8-2h-2.8l-0.8,2H375.7z M378.6,54.8l-1.3,3.1h2.5L378.6,54.8z"/>
	<path d="M385.8,54c1.1,0,1.9,0.6,2.3,1.4l-0.5,0.3c-0.4-0.8-1.2-1.1-1.9-1.1c-1.5,0-2.3,1.3-2.3,2.6c0,1.4,1,2.6,2.4,2.6
		c0.7,0,1.5-0.4,1.9-1.2l0.5,0.3c-0.4,0.9-1.5,1.5-2.5,1.5c-1.7,0-2.9-1.6-2.9-3.2C382.9,55.6,384,54,385.8,54z"/>
	<path d="M394.6,54.6h-2.2v5.7h-0.6v-5.7h-2.2v-0.5h5.1V54.6z"/>
	<path d="M396.5,60.3v-6.3h0.6v6.3H396.5z"/>
	<path d="M399.2,57.2c0-1.7,1.3-3.2,3-3.2c1.8,0,2.9,1.6,2.9,3.2c0,1.7-1.3,3.2-2.9,3.2C400.4,60.4,399.2,58.8,399.2,57.2z
		 M402.1,59.8c1.4,0,2.3-1.3,2.3-2.6c0-1.4-1-2.6-2.3-2.6c-1.4,0-2.3,1.3-2.3,2.6C399.8,58.6,400.7,59.8,402.1,59.8z"/>
	<path d="M407.7,55.2v5.1h-0.6v-6.3h0.5l4.2,5.2v-5.2h0.6v6.3h-0.5L407.7,55.2z"/>
	<path d="M414.6,60.3v-0.9h0.5v0.9H414.6z"/>
</g>
</svg>
