<?xml version="1.0" encoding="utf-8"?>
<!-- Generator: Adobe Illustrator 18.0.0, SVG Export Plug-In . SVG Version: 6.00 Build 0)  -->
<!DOCTYPE svg PUBLIC "-//W3C//DTD SVG 1.1//EN" "http://www.w3.org/Graphics/SVG/1.1/DTD/svg11.dtd">
<svg version="1.1" id="Layer_1" xmlns="http://www.w3.org/2000/svg" xmlns:xlink="http://www.w3.org/1999/xlink" x="0px" y="0px"
	 viewBox="0 0 186.5 154.9" enable-background="new 0 0 186.5 154.9" xml:space="preserve">
<path fill="#939598" d="M156,12.1c0,0-22.3-25.7-54-2.3C82.9,24,92.1,48.6,88.1,48.3C32.8,42.9,9.2,7.1,9.2,7.1s-19,27.8,9.1,52.2
	c2.3,2-15.9-4.4-15.9-4.4s-1.5,26.3,28.9,39c1.3,0.6-14.9,0.3-14.9,0.3S22.2,120,53.3,120c2.9,0-13.6,19.2-57.4,17.9
	c-2.2-0.1,80.2,48.5,141.2-18.3c35.7-39.1,29.9-81.1,29.9-81.1s5.4-3.7,10.1-8.5c3.7-3.7,9.2-11.5,9.2-11.5s-6.5,2.1-11.4,3.9
	c-6.6,2.4-11.7,2-11.7,2s8-4.1,12.3-10.5c3.9-5.8,5.6-11.2,5.6-11.2S172.1,9,156,12.1z"/>
</svg>
