<?xml version="1.0" encoding="utf-8"?>
<!-- Generator: Adobe Illustrator 18.0.0, SVG Export Plug-In . SVG Version: 6.00 Build 0)  -->
<!DOCTYPE svg PUBLIC "-//W3C//DTD SVG 1.1//EN" "http://www.w3.org/Graphics/SVG/1.1/DTD/svg11.dtd">
<svg version="1.1" id="Layer_1" xmlns="http://www.w3.org/2000/svg" xmlns:xlink="http://www.w3.org/1999/xlink" x="0px" y="0px"
	 viewBox="0 0 310 159.9" enable-background="new 0 0 310 159.9" xml:space="preserve">
<g>
	<path fill="#A6CE39" d="M33.8,76.8v-0.1c0-6.1-4.4-11.5-10.9-11.5c-6.4,0-10.8,5.2-10.8,11.4v0.1c0,6.1,4.4,11.5,10.9,11.5
		C29.5,88.2,33.8,83,33.8,76.8 M0,76.8v-0.1c0-12.2,9.9-22.1,23-22.1c13.1,0,22.9,9.8,22.9,22v0.1c0,12.2-9.8,22.1-23,22.1
		C9.7,98.9,0,89.1,0,76.8"/>
	<polygon fill="#A6CE39" points="53.4,55.4 64.4,55.4 82,77.9 82,55.4 93.6,55.4 93.6,98 83.3,98 65.1,74.7 65.1,98 53.4,98 	"/>
	<path fill="#A6CE39" d="M135,76.8v-0.1c0-6.1-4.4-11.5-10.9-11.5c-6.4,0-10.8,5.2-10.8,11.4v0.1c0,6.1,4.4,11.5,10.9,11.5
		C130.7,88.2,135,83,135,76.8 M101.2,76.8v-0.1c0-12.2,9.9-22.1,23-22.1c13.1,0,22.9,9.8,22.9,22v0.1c0,12.2-9.8,22.1-23,22.1
		S101.2,89.1,101.2,76.8"/>
	<polygon fill="#A6CE39" points="154.6,55.4 167.1,55.4 177.2,71.9 187.4,55.4 199.9,55.4 199.9,98 188.1,98 188.1,73.6 177.2,90.2 
		177,90.2 166.2,73.7 166.2,98 154.6,98 	"/>
	<rect x="209.1" y="55.4" fill="#A6CE39" width="11.9" height="42.6"/>
	<path fill="#A6CE39" d="M228.7,76.8v-0.1c0-12.4,9.5-22.1,22.4-22.1c8.7,0,14.3,3.6,18.1,8.9l-8.9,6.9c-2.4-3-5.2-5-9.3-5
		c-6,0-10.2,5-10.2,11.2v0.1c0,6.4,4.2,11.4,10.2,11.4c4.4,0,7.1-2.1,9.6-5.2l8.9,6.3c-4,5.5-9.4,9.6-18.8,9.6
		C238.5,98.9,228.7,89.6,228.7,76.8"/>
	<path fill="#A6CE39" d="M272.8,91.7l6.6-7.8c4.2,3.3,8.9,5.1,13.8,5.1c3.2,0,4.9-1.1,4.9-2.9v-0.1c0-1.8-1.4-2.7-7.2-4.1
		c-9.1-2.1-16.1-4.6-16.1-13.4v-0.1c0-7.9,6.3-13.6,16.5-13.6c7.2,0,12.9,1.9,17.5,5.7l-5.9,8.3c-3.9-2.7-8.1-4.2-11.9-4.2
		c-2.9,0-4.3,1.2-4.3,2.7v0.1c0,1.9,1.5,2.8,7.4,4.1c9.8,2.1,15.9,5.3,15.9,13.3v0.1c0,8.7-6.9,13.9-17.2,13.9
		C285.2,98.7,278,96.4,272.8,91.7"/>
</g>
<g>
	<polygon fill="#FFDD00" points="24.4,0 24.4,42.6 58.9,42.6 58.9,32.5 36.1,32.5 36.1,25.8 56.5,25.8 56.5,16.5 36.1,16.5 36.1,10 
		58.6,10 58.6,0 	"/>
	<polygon fill="#FFDD00" points="77.9,20.9 63.9,0 77.5,0 85,12 92.6,0 105.9,0 91.9,20.8 106.5,42.6 92.9,42.6 84.8,29.7 
		76.5,42.6 63.3,42.6 	"/>
	<polygon fill="#FFDD00" points="122.8,10.3 110,10.3 110,0 147.3,0 147.3,10.3 134.6,10.3 134.6,42.6 122.8,42.6 	"/>
	<polygon fill="#FFDD00" points="153.9,0 188.2,0 188.2,10 165.6,10 165.6,16.5 186.1,16.5 186.1,25.8 165.6,25.8 165.6,32.5 
		188.5,32.5 188.5,42.6 153.9,42.6 	"/>
	<polygon fill="#FFDD00" points="196,0 207,0 224.5,22.5 224.5,0 236.2,0 236.2,42.6 225.8,42.6 207.6,19.2 207.6,42.6 196,42.6 	
		"/>
	<path fill="#FFDD00" d="M261.7,32.1c7.1,0,11.7-3.9,11.7-10.8v-0.1c0-6.8-4.7-10.8-11.7-10.8h-4.8v21.6H261.7z M245.1,0h16.4
		c15.2,0,24,8.8,24,21v0.1c0,12.3-8.9,21.4-24.3,21.4h-16.2V0z"/>
</g>
<g>
	<polygon points="7.1,124.7 3.3,124.7 3.3,121.6 14.6,121.6 14.6,124.7 10.7,124.7 10.7,134.4 7.1,134.4 	"/>
	<polygon points="16.8,121.6 20.4,121.6 20.4,126.4 25,126.4 25,121.6 28.5,121.6 28.5,134.4 25,134.4 25,129.6 20.4,129.6 
		20.4,134.4 16.8,134.4 	"/>
	<polygon points="31.5,121.6 41.8,121.6 41.8,124.6 35,124.6 35,126.6 41.2,126.6 41.2,129.4 35,129.4 35,131.4 41.9,131.4 
		41.9,134.4 31.5,134.4 	"/>
	<path d="M56.4,131.6c1.1,0,1.7-0.4,1.7-1.2v0c0-0.7-0.6-1.2-1.7-1.2h-2.7v2.4H56.4z M55.9,126.7c1.1,0,1.7-0.4,1.7-1.1v0
		c0-0.7-0.6-1.1-1.6-1.1h-2.3v2.3H55.9z M50.2,121.6h6.6c1.6,0,2.8,0.4,3.5,1.2c0.5,0.5,0.8,1.2,0.8,2.1v0c0,1.5-0.8,2.4-2,2.9
		c1.6,0.5,2.6,1.4,2.6,3.1v0c0,2.2-1.8,3.5-4.9,3.5h-6.6V121.6z"/>
	<path d="M69.9,127.8c1.2,0,1.9-0.6,1.9-1.5v0c0-1-0.7-1.5-1.9-1.5h-2.3v3.1H69.9z M64,121.6h6.1c2,0,3.3,0.5,4.2,1.4
		c0.8,0.7,1.1,1.7,1.1,3v0c0,2-1,3.3-2.6,4l3.1,4.5h-4.1l-2.6-3.9h0h-1.5v3.9H64V121.6z"/>
	<path d="M85.4,129.4l-1.4-3.7l-1.5,3.7H85.4z M82.3,121.5h3.4l5.5,13h-3.8l-0.9-2.3h-5l-0.9,2.3h-3.8L82.3,121.5z"/>
	<polygon points="93.1,121.6 96.5,121.6 101.8,128.4 101.8,121.6 105.3,121.6 105.3,134.4 102.2,134.4 96.7,127.4 96.7,134.4 
		93.1,134.4 	"/>
	<path d="M113.3,131.3c2.1,0,3.5-1.2,3.5-3.3v0c0-2.1-1.4-3.3-3.5-3.3h-1.5v6.5H113.3z M108.2,121.6h5c4.6,0,7.3,2.6,7.3,6.4v0
		c0,3.7-2.7,6.5-7.3,6.5h-4.9V121.6z"/>
	<polygon points="128.7,121.6 139.1,121.6 139.1,124.6 132.3,124.6 132.3,126.6 138.4,126.6 138.4,129.4 132.3,129.4 132.3,131.4 
		139.2,131.4 139.2,134.4 128.7,134.4 	"/>
	<polygon points="145.1,127.9 140.9,121.6 145,121.6 147.3,125.2 149.6,121.6 153.6,121.6 149.4,127.9 153.8,134.4 149.7,134.4 
		147.2,130.6 144.7,134.4 140.7,134.4 	"/>
	<polygon points="158.9,124.7 155.1,124.7 155.1,121.6 166.4,121.6 166.4,124.7 162.5,124.7 162.5,134.4 158.9,134.4 	"/>
	<polygon points="168.6,121.6 178.9,121.6 178.9,124.6 172.1,124.6 172.1,126.6 178.3,126.6 178.3,129.4 172.1,129.4 172.1,131.4 
		179,131.4 179,134.4 168.6,134.4 	"/>
	<polygon points="181.5,121.6 184.9,121.6 190.2,128.4 190.2,121.6 193.7,121.6 193.7,134.4 190.6,134.4 185.1,127.4 185.1,134.4 
		181.5,134.4 	"/>
	<path d="M195.7,132.5l2-2.4c1.3,1,2.7,1.5,4.2,1.5c1,0,1.5-0.3,1.5-0.9v0c0-0.5-0.4-0.8-2.2-1.2c-2.7-0.6-4.9-1.4-4.9-4v0
		c0-2.4,1.9-4.1,5-4.1c2.2,0,3.9,0.6,5.3,1.7l-1.8,2.5c-1.2-0.8-2.5-1.3-3.6-1.3c-0.9,0-1.3,0.4-1.3,0.8v0c0,0.6,0.4,0.8,2.2,1.2
		c3,0.6,4.8,1.6,4.8,4v0c0,2.6-2.1,4.2-5.2,4.2C199.4,134.7,197.2,134,195.7,132.5"/>
	<rect x="209.4" y="121.6" width="3.6" height="12.9"/>
	<path d="M225.7,128L225.7,128c0-1.9-1.3-3.5-3.3-3.5c-2,0-3.3,1.6-3.3,3.4v0c0,1.9,1.3,3.5,3.3,3.5
		C224.4,131.5,225.7,129.9,225.7,128 M215.5,128L215.5,128c0-3.7,3-6.7,6.9-6.7c4,0,6.9,3,6.9,6.7v0c0,3.7-3,6.7-6.9,6.7
		C218.5,134.7,215.5,131.7,215.5,128"/>
	<polygon points="231.9,121.6 235.2,121.6 240.5,128.4 240.5,121.6 244.1,121.6 244.1,134.4 240.9,134.4 235.4,127.4 235.4,134.4 
		231.9,134.4 	"/>
	<path d="M259,131.6c1.1,0,1.7-0.4,1.7-1.2v0c0-0.7-0.6-1.2-1.7-1.2h-2.7v2.4H259z M258.5,126.7c1.1,0,1.7-0.4,1.7-1.1v0
		c0-0.7-0.6-1.1-1.6-1.1h-2.3v2.3H258.5z M252.8,121.6h6.6c1.6,0,2.8,0.4,3.5,1.2c0.5,0.5,0.8,1.2,0.8,2.1v0c0,1.5-0.8,2.4-2,2.9
		c1.6,0.5,2.6,1.4,2.6,3.1v0c0,2.2-1.8,3.5-4.9,3.5h-6.6V121.6z"/>
	<polygon points="266.6,121.6 270.2,121.6 270.2,131.3 276.4,131.3 276.4,134.4 266.6,134.4 	"/>
	<path d="M288.4,128L288.4,128c0-1.9-1.3-3.5-3.3-3.5c-1.9,0-3.3,1.6-3.3,3.4v0c0,1.9,1.3,3.5,3.3,3.5
		C287.1,131.5,288.4,129.9,288.4,128 M278.1,128L278.1,128c0-3.7,3-6.7,6.9-6.7c4,0,6.9,3,6.9,6.7v0c0,3.7-3,6.7-6.9,6.7
		C281.1,134.7,278.1,131.7,278.1,128"/>
	<path d="M294.1,128L294.1,128c0-3.8,2.9-6.7,6.9-6.7c2.3,0,3.9,0.7,5.2,1.9l-2.1,2.5c-0.9-0.8-1.8-1.2-3.1-1.2
		c-1.9,0-3.3,1.6-3.3,3.5v0c0,2.1,1.5,3.6,3.5,3.6c0.9,0,1.5-0.2,2.1-0.5v-1.6h-2.5v-2.6h5.9v5.8c-1.4,1.1-3.3,2-5.6,2
		C297.1,134.7,294.1,131.9,294.1,128"/>
</g>
<g>
	<path d="M47.4,157.1c1.1,0,1.7-0.4,1.7-1.2v0c0-0.7-0.6-1.2-1.7-1.2h-2.7v2.4H47.4z M46.9,152.2c1.1,0,1.7-0.4,1.7-1.1v0
		c0-0.7-0.6-1.1-1.6-1.1h-2.3v2.3H46.9z M41.1,147.1h6.6c1.6,0,2.8,0.4,3.5,1.2c0.5,0.5,0.8,1.2,0.8,2.1v0c0,1.5-0.8,2.4-2,2.9
		c1.6,0.5,2.6,1.4,2.6,3.1v0c0,2.2-1.8,3.5-4.9,3.5h-6.6V147.1z"/>
	<polygon points="58.7,155.1 53.8,147.1 57.8,147.1 60.5,151.7 63.2,147.1 67.1,147.1 62.3,155 62.3,159.9 58.7,159.9 	"/>
	<path d="M79.9,153.4c1.3,0,2-0.7,2-1.7v0c0-1.1-0.8-1.7-2.1-1.7h-1.7v3.4H79.9z M74.7,147.1h5.5c3.3,0,5.3,1.7,5.3,4.5v0
		c0,3-2.3,4.6-5.5,4.6h-1.8v3.7h-3.6V147.1z"/>
	<path d="M95.3,154.8l-1.4-3.7l-1.5,3.7H95.3z M92.2,147h3.4l5.5,13h-3.8l-0.9-2.3h-5l-0.9,2.3h-3.8L92.2,147z"/>
	<path d="M108.9,153.2c1.2,0,1.9-0.6,1.9-1.5v0c0-1-0.7-1.5-1.9-1.5h-2.3v3.1H108.9z M103,147.1h6.1c2,0,3.3,0.5,4.2,1.4
		c0.8,0.7,1.1,1.7,1.1,3v0c0,2-1,3.3-2.6,4l3.1,4.5h-4.1l-2.6-3.9h0h-1.5v3.9H103V147.1z"/>
	<polygon points="116.9,147.1 120.5,147.1 120.5,151.9 125,151.9 125,147.1 128.6,147.1 128.6,159.9 125,159.9 125,155 120.5,155 
		120.5,159.9 116.9,159.9 	"/>
	<path d="M139.1,154.8l-1.4-3.7l-1.5,3.7H139.1z M136,147h3.4l5.5,13h-3.8l-0.9-2.3h-5l-0.9,2.3h-3.8L136,147z"/>
	<polygon points="146.8,147.1 150.6,147.1 153.7,152 156.7,147.1 160.5,147.1 160.5,159.9 157,159.9 157,152.5 153.7,157.6 
		153.6,157.6 150.3,152.6 150.3,159.9 146.8,159.9 	"/>
	<path d="M168.2,158l2-2.4c1.3,1,2.7,1.5,4.2,1.5c1,0,1.5-0.3,1.5-0.9v0c0-0.5-0.4-0.8-2.2-1.2c-2.7-0.6-4.9-1.4-4.9-4v0
		c0-2.4,1.9-4.1,5-4.1c2.2,0,3.9,0.6,5.3,1.7l-1.8,2.5c-1.2-0.8-2.5-1.3-3.6-1.3c-0.9,0-1.3,0.4-1.3,0.8v0c0,0.6,0.4,0.8,2.2,1.2
		c3,0.6,4.8,1.6,4.8,4v0c0,2.6-2.1,4.2-5.2,4.2C172,160.1,169.8,159.4,168.2,158"/>
	<path d="M189.5,154.8l-1.4-3.7l-1.5,3.7H189.5z M186.3,147h3.4l5.5,13h-3.8l-0.9-2.3h-5l-0.9,2.3h-3.8L186.3,147z"/>
	<polygon points="197.2,147.1 200.5,147.1 205.8,153.9 205.8,147.1 209.3,147.1 209.3,159.9 206.2,159.9 200.7,152.9 200.7,159.9 
		197.2,159.9 	"/>
	<polygon points="215.4,150.2 211.6,150.2 211.6,147 222.8,147 222.8,150.2 219,150.2 219,159.9 215.4,159.9 	"/>
	<path d="M232.6,154.8l-1.4-3.7l-1.5,3.7H232.6z M229.5,147h3.4l5.5,13h-3.8l-0.9-2.3h-5l-0.9,2.3H224L229.5,147z"/>
	<polygon points="240.4,147.1 243.7,147.1 249,153.9 249,147.1 252.5,147.1 252.5,159.9 249.4,159.9 243.9,152.9 243.9,159.9 
		240.4,159.9 	"/>
	<path d="M263,154.8l-1.4-3.7l-1.5,3.7H263z M259.9,147h3.4l5.5,13H265l-0.9-2.3h-5l-0.9,2.3h-3.8L259.9,147z"/>
</g>
</svg>
