<?xml version="1.0" encoding="utf-8"?>
<!-- Generator: Adobe Illustrator 18.0.0, SVG Export Plug-In . SVG Version: 6.00 Build 0)  -->
<!DOCTYPE svg PUBLIC "-//W3C//DTD SVG 1.1//EN" "http://www.w3.org/Graphics/SVG/1.1/DTD/svg11.dtd">
<svg version="1.1" id="Layer_1" xmlns="http://www.w3.org/2000/svg" xmlns:xlink="http://www.w3.org/1999/xlink" x="0px" y="0px"
	 viewBox="0 0 216 216" enable-background="new 0 0 216 216" xml:space="preserve">
<path d="M108,216c59.6,0,108-48.4,108-108C216,48.4,167.6,0,108,0S0,48.4,0,108C0,167.6,48.4,216,108,216"/>
<g>
	<circle fill="none" cx="108" cy="108" r="99"/>
	<path fill="#FFFFFF" d="M61,28.3l3.5,5.7l3.5-5.7h1.1L65,35v4h-1v-4l-4.1-6.7H61z"/>
	<path fill="#FFFFFF" d="M68.8,35.1c0-2.2,1.7-4.1,3.9-4.1c2.2,0,3.9,1.9,3.9,4.1c0,2.2-1.6,4-3.9,4C70.4,39.1,68.8,37.2,68.8,35.1z
		 M72.7,38.2c1.6,0,2.8-1.4,2.8-3.1c0-1.7-1.3-3.1-2.8-3.1c-1.6,0-2.8,1.4-2.8,3.2C69.8,36.8,71.1,38.2,72.7,38.2z"/>
	<path fill="#FFFFFF" d="M78.5,35.7v-4.6h1v4.4c0,1.8,0.6,2.7,1.8,2.7s2.4-0.8,2.8-2.1v-4.9h1v6.5c0,0.3,0.1,0.4,0.4,0.4v0.9
		c-0.2,0-0.3,0-0.4,0c-0.5,0-0.8-0.3-0.8-0.7v-1.1c-0.7,1.2-1.9,1.9-3.3,1.9C79.3,39.1,78.5,37.9,78.5,35.7z"/>
	<path fill="#FFFFFF" d="M91.6,32c-1.4,0-2.5,0.8-2.9,2.1v4.9h-1v-7.8h1V33c0.5-1.1,1.5-1.9,2.5-1.9c0.2,0,0.3,0,0.5,0V32z"/>
	<path fill="#FFFFFF" d="M96.6,35.1c0-2.2,1.7-4.1,3.9-4.1c2.2,0,3.9,1.9,3.9,4.1c0,2.2-1.6,4-3.9,4C98.2,39.1,96.6,37.2,96.6,35.1z
		 M100.5,38.2c1.6,0,2.8-1.4,2.8-3.1c0-1.7-1.3-3.1-2.8-3.1c-1.6,0-2.8,1.4-2.8,3.2C97.7,36.8,98.9,38.2,100.5,38.2z"/>
	<path fill="#FFFFFF" d="M107.4,37.3v4.8h-1v-11h0.9v1.5c0.6-1,1.7-1.6,2.9-1.6c2.2,0,3.7,2,3.7,4c0,2.2-1.4,4-3.5,4
		C109,39.1,108,38.3,107.4,37.3z M112.8,35c0-1.7-1.3-3.1-2.9-3.1c-1,0-2.4,0.9-2.6,1.9v2.4c0.5,1.1,1.5,2,2.7,2
		C111.7,38.2,112.8,36.6,112.8,35z"/>
	<path fill="#FFFFFF" d="M115.9,29.5V28h1v1.5H115.9z M115.9,38.9v-7.8h1v7.8H115.9z"/>
	<path fill="#FFFFFF" d="M125.9,38.9h-1v-4.4c0-1.8-0.5-2.7-1.7-2.7c-1.2,0-2.5,0.9-2.9,2.2v4.8h-1v-7.8h0.9v1.8
		c0.6-1.1,1.9-1.9,3.3-1.9c1.8,0,2.3,1.3,2.3,3.4V38.9z"/>
	<path fill="#FFFFFF" d="M128.4,29.5V28h1v1.5H128.4z M128.4,38.9v-7.8h1v7.8H128.4z"/>
	<path fill="#FFFFFF" d="M131.4,35.1c0-2.2,1.7-4.1,3.9-4.1c2.2,0,3.9,1.9,3.9,4.1c0,2.2-1.6,4-3.9,4
		C133,39.1,131.4,37.2,131.4,35.1z M135.2,38.2c1.6,0,2.8-1.4,2.8-3.1c0-1.7-1.3-3.1-2.8-3.1c-1.6,0-2.8,1.4-2.8,3.2
		C132.4,36.8,133.7,38.2,135.2,38.2z"/>
	<path fill="#FFFFFF" d="M147.7,38.9h-1v-4.4c0-1.8-0.5-2.7-1.7-2.7c-1.2,0-2.5,0.9-2.9,2.2v4.8h-1v-7.8h0.9v1.8
		c0.6-1.1,1.9-1.9,3.3-1.9c1.8,0,2.3,1.3,2.3,3.4V38.9z"/>
	<path fill="#FFFFFF" d="M149.4,37.9l0.5-0.7c0.9,0.7,1.8,1.1,2.8,1.1c1.2,0,2.1-0.5,2.1-1.5c0-0.9-0.8-1.1-2.4-1.5
		c-1.8-0.4-2.6-0.8-2.6-2c0-1.6,1.3-2.4,2.9-2.4c1.2,0,2.2,0.4,2.8,1.1l-0.5,0.6c-0.6-0.6-1.5-0.9-2.4-0.9c-1.1,0-1.9,0.4-1.9,1.5
		c0,0.8,0.6,1,2,1.3c2,0.5,3,0.9,3,2.2c0,1.4-1.2,2.3-3,2.3C151.5,39.1,150.3,38.7,149.4,37.9z"/>
	<path fill="#FFFFFF" d="M39.9,48.5V47h1v1.5H39.9z M39.9,57.9v-7.8h1v7.8H39.9z"/>
	<path fill="#FFFFFF" d="M50,57.9h-1v-4.4c0-1.8-0.5-2.7-1.7-2.7c-1.2,0-2.5,0.9-2.9,2.2v4.8h-1v-7.8h0.9v1.8
		c0.6-1.1,1.9-1.9,3.3-1.9c1.8,0,2.3,1.3,2.3,3.4V57.9z"/>
	<path fill="#FFFFFF" d="M52.9,57.9v-6.1h-1.1V51h1.1v-1.1c0-1.9,0.9-3.1,2.3-3.1c0.6,0,1.2,0.2,1.6,0.5l-0.3,0.7
		c-0.3-0.2-0.7-0.3-1.1-0.3c-1,0-1.5,0.8-1.5,2.2V51H56v0.8h-2.2v6.1H52.9z"/>
	<path fill="#FFFFFF" d="M57.3,54.1c0-2.2,1.7-4.1,3.9-4.1c2.2,0,3.9,1.9,3.9,4.1c0,2.2-1.6,4-3.9,4C58.9,58.1,57.3,56.2,57.3,54.1z
		 M61.2,57.2c1.6,0,2.8-1.4,2.8-3.1c0-1.7-1.3-3.1-2.8-3.1c-1.6,0-2.8,1.4-2.8,3.2C58.4,55.8,59.6,57.2,61.2,57.2z"/>
	<path fill="#FFFFFF" d="M70.9,51c-1.4,0-2.5,0.8-2.9,2.1v4.9h-1v-7.8h1V52c0.5-1.1,1.5-1.9,2.5-1.9c0.2,0,0.3,0,0.5,0V51z"/>
	<path fill="#FFFFFF" d="M84.2,57.9h-1v-4.4c0-1.8-0.6-2.7-1.7-2.7c-1.2,0-2.2,0.9-2.6,2.2v4.8h-1v-4.4c0-1.8-0.6-2.7-1.7-2.7
		c-1.2,0-2.2,0.9-2.6,2.2v4.8h-1v-7.8h0.9v1.8c0.6-1.2,1.7-1.9,3-1.9c1.3,0,2.1,0.8,2.3,2c0.7-1.3,1.7-2,3-2c1.7,0,2.4,1.3,2.4,3.4
		V57.9z"/>
	<path fill="#FFFFFF" d="M90.3,54.1c0-2.2,1.7-4.1,3.9-4.1c2.2,0,3.9,1.9,3.9,4.1c0,2.2-1.6,4-3.9,4C91.9,58.1,90.3,56.2,90.3,54.1z
		 M94.1,57.2c1.6,0,2.8-1.4,2.8-3.1c0-1.7-1.3-3.1-2.8-3.1c-1.6,0-2.8,1.4-2.8,3.2C91.3,55.8,92.6,57.2,94.1,57.2z"/>
	<path fill="#FFFFFF" d="M99.9,54.7v-4.6h1v4.4c0,1.8,0.6,2.7,1.8,2.7s2.4-0.8,2.8-2.1v-4.9h1v6.5c0,0.3,0.1,0.4,0.4,0.4v0.9
		c-0.2,0-0.3,0-0.4,0c-0.5,0-0.8-0.3-0.8-0.7v-1.1c-0.7,1.2-1.9,1.9-3.3,1.9C100.8,58.1,99.9,56.9,99.9,54.7z"/>
	<path fill="#FFFFFF" d="M113.1,51c-1.4,0-2.5,0.8-2.9,2.1v4.9h-1v-7.8h1V52c0.5-1.1,1.5-1.9,2.5-1.9c0.2,0,0.3,0,0.5,0V51z"/>
	<path fill="#FFFFFF" d="M119.6,56.3v4.8h-1v-11h0.9v1.5c0.6-1,1.7-1.6,2.9-1.6c2.2,0,3.7,2,3.7,4c0,2.2-1.4,4-3.5,4
		C121.3,58.1,120.2,57.3,119.6,56.3z M125.1,54c0-1.7-1.3-3.1-2.9-3.1c-1,0-2.4,0.9-2.6,1.9v2.4c0.5,1.1,1.5,2,2.7,2
		C124,57.2,125.1,55.6,125.1,54z"/>
	<path fill="#FFFFFF" d="M132,51c-1.4,0-2.5,0.8-2.9,2.1v4.9h-1v-7.8h1V52c0.5-1.1,1.5-1.9,2.5-1.9c0.2,0,0.3,0,0.5,0V51z"/>
	<path fill="#FFFFFF" d="M132.8,54.1c0-2.2,1.7-4.1,3.9-4.1c2.2,0,3.9,1.9,3.9,4.1c0,2.2-1.6,4-3.9,4
		C134.4,58.1,132.8,56.2,132.8,54.1z M136.7,57.2c1.6,0,2.8-1.4,2.8-3.1c0-1.7-1.3-3.1-2.8-3.1c-1.6,0-2.8,1.4-2.8,3.2
		C133.9,55.8,135.1,57.2,136.7,57.2z"/>
	<path fill="#FFFFFF" d="M145.9,50c1.5,0,2.6,0.7,3.2,1.9l-1,0.3c-0.4-0.8-1.3-1.3-2.2-1.3c-1.6,0-2.8,1.3-2.8,3.1
		c0,1.8,1.3,3.2,2.8,3.2c1,0,2-0.6,2.3-1.3l1,0.3c-0.4,1.1-1.7,1.9-3.2,1.9c-2.3,0-3.9-1.9-3.9-4.1C142,51.8,143.6,50,145.9,50z"/>
	<path fill="#FFFFFF" d="M150.6,54c0-2.2,1.7-4,3.9-4c2.3,0,3.9,1.9,3.9,4c0,0.1,0,0.3,0,0.4h-6.7c0.1,1.7,1.4,2.9,2.9,2.9
		c1,0,2-0.6,2.4-1.4l0.9,0.2c-0.5,1.1-1.8,1.9-3.3,1.9C152.2,58.1,150.6,56.2,150.6,54z M157.4,53.6c-0.1-1.7-1.4-2.8-2.9-2.8
		c-1.5,0-2.8,1.2-2.9,2.8H157.4z"/>
	<path fill="#FFFFFF" d="M159.5,56.9l0.5-0.7c0.9,0.7,1.8,1.1,2.8,1.1c1.2,0,2.1-0.5,2.1-1.5c0-0.9-0.8-1.1-2.4-1.5
		c-1.8-0.4-2.6-0.8-2.6-2c0-1.6,1.3-2.4,2.9-2.4c1.2,0,2.2,0.4,2.8,1.1l-0.5,0.6c-0.6-0.6-1.5-0.9-2.4-0.9c-1.1,0-1.9,0.4-1.9,1.5
		c0,0.8,0.6,1,2,1.3c2,0.5,3,0.9,3,2.2c0,1.4-1.2,2.3-3,2.3C161.6,58.1,160.4,57.7,159.5,56.9z"/>
	<path fill="#FFFFFF" d="M167.1,56.9l0.5-0.7c0.9,0.7,1.8,1.1,2.8,1.1c1.2,0,2.1-0.5,2.1-1.5c0-0.9-0.8-1.1-2.4-1.5
		c-1.8-0.4-2.6-0.8-2.6-2c0-1.6,1.3-2.4,2.9-2.4c1.2,0,2.2,0.4,2.8,1.1l-0.5,0.6c-0.6-0.6-1.5-0.9-2.4-0.9c-1.1,0-1.9,0.4-1.9,1.5
		c0,0.8,0.6,1,2,1.3c2,0.5,3,0.9,3,2.2c0,1.4-1.2,2.3-3,2.3C169.2,58.1,168,57.7,167.1,56.9z"/>
	<path fill="#FFFFFF" d="M175.3,57.9v-1.5h0.9v1.5H175.3z"/>
	<path fill="#FFFFFF" d="M53.7,67.2h-3.8v9.7h-1v-9.7h-3.8v-0.9h8.6V67.2z"/>
	<path fill="#FFFFFF" d="M61.9,76.9h-1v-4.4c0-1.8-0.6-2.7-1.8-2.7c-1.2,0-2.4,1-2.7,2.2v4.8h-1V66h1v4.9c0.6-1.2,1.8-1.9,3.1-1.9
		c1.8,0,2.5,1.4,2.5,3.4V76.9z"/>
	<path fill="#FFFFFF" d="M68.3,70c-1.4,0-2.5,0.8-2.9,2.1v4.9h-1v-7.8h1V71c0.5-1.1,1.5-1.9,2.5-1.9c0.2,0,0.3,0,0.5,0V70z"/>
	<path fill="#FFFFFF" d="M69.1,73.1c0-2.2,1.7-4.1,3.9-4.1c2.2,0,3.9,1.9,3.9,4.1c0,2.2-1.6,4-3.9,4C70.7,77.1,69.1,75.2,69.1,73.1z
		 M72.9,76.2c1.6,0,2.8-1.4,2.8-3.1c0-1.7-1.3-3.1-2.8-3.1c-1.6,0-2.8,1.4-2.8,3.2C70.1,74.8,71.4,76.2,72.9,76.2z"/>
	<path fill="#FFFFFF" d="M78.7,73.7v-4.6h1v4.4c0,1.8,0.6,2.7,1.8,2.7s2.4-0.8,2.8-2.1v-4.9h1v6.5c0,0.3,0.1,0.4,0.4,0.4v0.9
		c-0.2,0-0.3,0-0.4,0c-0.5,0-0.8-0.3-0.8-0.7v-1.1c-0.7,1.2-1.9,1.9-3.3,1.9C79.6,77.1,78.7,75.9,78.7,73.7z"/>
	<path fill="#FFFFFF" d="M87.5,73.1c0-2.2,1.5-4.1,3.6-4.1c1.3,0,2.3,0.8,3,1.8v-1.6H95V77c0,2.2-1.7,3.3-3.8,3.3
		c-1.8,0-2.8-0.7-3.5-1.8l0.6-0.5c0.6,1,1.7,1.5,2.9,1.5c1.5,0,2.8-0.8,2.8-2.5v-1.5c-0.6,1-1.7,1.6-2.9,1.6
		C89,77.1,87.5,75.1,87.5,73.1z M94,74.3v-2.4c-0.5-1.1-1.6-2-2.7-2c-1.7,0-2.8,1.6-2.8,3.2c0,1.7,1.3,3.1,2.9,3.1
		C92.7,76.2,93.8,75.2,94,74.3z"/>
	<path fill="#FFFFFF" d="M104.1,76.9h-1v-4.4c0-1.8-0.6-2.7-1.8-2.7c-1.2,0-2.4,1-2.7,2.2v4.8h-1V66h1v4.9c0.6-1.2,1.8-1.9,3.1-1.9
		c1.8,0,2.5,1.4,2.5,3.4V76.9z"/>
	<path fill="#FFFFFF" d="M114.4,76.6c-0.2,0.1-0.9,0.5-1.8,0.5c-0.9,0-1.6-0.5-1.6-1.5v-5.6h-1.1v-0.8h1.1v-2.6h1v2.6h1.8v0.8H112
		v5.3c0,0.6,0.5,0.8,0.9,0.8c0.6,0,1.1-0.3,1.2-0.3L114.4,76.6z"/>
	<path fill="#FFFFFF" d="M115.3,74.7c0-1.5,1.4-2.4,3.3-2.4c0.8,0,1.6,0.1,2.3,0.4V72c0-1.4-0.9-2.2-2.2-2.2c-0.8,0-1.7,0.3-2.5,0.9
		l-0.4-0.7c1-0.7,2-1,3-1c1.9,0,3.1,1.2,3.1,3.1v3.5c0,0.3,0.1,0.4,0.4,0.4v0.9c-0.2,0-0.3,0-0.4,0c-0.4,0-0.8-0.2-0.8-0.7l0-0.6
		c-0.7,0.9-1.9,1.5-3,1.5C116.4,77.1,115.3,76,115.3,74.7z M120.7,75.2c0.1-0.2,0.3-0.4,0.3-0.6v-1.3c-0.7-0.3-1.4-0.4-2.1-0.4
		c-1.5,0-2.5,0.6-2.5,1.7c0,0.8,0.6,1.7,2,1.7C119.2,76.3,120.2,75.9,120.7,75.2z"/>
	<path fill="#FFFFFF" d="M128.4,70c-1.4,0-2.5,0.8-2.9,2.1v4.9h-1v-7.8h1V71c0.5-1.1,1.5-1.9,2.5-1.9c0.2,0,0.3,0,0.5,0V70z"/>
	<path fill="#FFFFFF" d="M129.5,73.1c0-2.2,1.5-4.1,3.6-4.1c1.3,0,2.3,0.8,3,1.8v-1.6h0.9V77c0,2.2-1.7,3.3-3.8,3.3
		c-1.8,0-2.8-0.7-3.5-1.8l0.6-0.5c0.6,1,1.7,1.5,2.9,1.5c1.5,0,2.8-0.8,2.8-2.5v-1.5c-0.6,1-1.7,1.6-2.9,1.6
		C131,77.1,129.5,75.1,129.5,73.1z M136.1,74.3v-2.4c-0.5-1.1-1.6-2-2.7-2c-1.7,0-2.8,1.6-2.8,3.2c0,1.7,1.3,3.1,2.9,3.1
		C134.7,76.2,135.9,75.2,136.1,74.3z"/>
	<path fill="#FFFFFF" d="M139.1,73c0-2.2,1.7-4,3.9-4c2.3,0,3.9,1.9,3.9,4c0,0.1,0,0.3,0,0.4h-6.7c0.1,1.7,1.4,2.9,2.9,2.9
		c1,0,2-0.6,2.4-1.4l0.9,0.2c-0.5,1.1-1.8,1.9-3.3,1.9C140.7,77.1,139.1,75.2,139.1,73z M145.9,72.6c-0.1-1.7-1.4-2.8-2.9-2.8
		c-1.5,0-2.8,1.2-2.9,2.8H145.9z"/>
	<path fill="#FFFFFF" d="M152.4,76.6c-0.2,0.1-0.9,0.5-1.8,0.5c-0.9,0-1.6-0.5-1.6-1.5v-5.6h-1.1v-0.8h1.1v-2.6h1v2.6h1.8v0.8H150
		v5.3c0,0.6,0.5,0.8,0.9,0.8c0.6,0,1.1-0.3,1.2-0.3L152.4,76.6z"/>
	<path fill="#FFFFFF" d="M153.4,73c0-2.2,1.7-4,3.9-4c2.3,0,3.9,1.9,3.9,4c0,0.1,0,0.3,0,0.4h-6.7c0.1,1.7,1.4,2.9,2.9,2.9
		c1,0,2-0.6,2.4-1.4l0.9,0.2c-0.5,1.1-1.8,1.9-3.3,1.9C155,77.1,153.4,75.2,153.4,73z M160.2,72.6c-0.1-1.7-1.4-2.8-2.9-2.8
		c-1.5,0-2.8,1.2-2.9,2.8H160.2z"/>
	<path fill="#FFFFFF" d="M162.5,73.1c0-2.2,1.5-4.1,3.6-4.1c1.3,0,2.4,0.8,3,1.8V66h1v9.6c0,0.3,0.1,0.4,0.4,0.4v0.9
		c-0.2,0-0.3,0-0.4,0c-0.5,0-0.9-0.3-0.9-0.7v-0.8c-0.6,1-1.8,1.7-2.9,1.7C164,77.1,162.5,75.2,162.5,73.1z M169,74.3v-2.4
		c-0.4-1.1-1.6-2-2.7-2c-1.7,0-2.8,1.6-2.8,3.2c0,1.7,1.3,3.1,2.9,3.1C167.5,76.2,168.8,75.3,169,74.3z"/>
	<path fill="#FFFFFF" d="M34.4,92c0-2.2,1.6-4,3.7-4c1.2,0,2.3,0.7,2.9,1.7v-1.5h0.9v9.6c0,0.3,0.1,0.4,0.4,0.4v0.9
		c-0.1,0-0.3,0-0.4,0c-0.5,0-0.9-0.4-0.9-0.9v-3.9c-0.8,1.2-1.8,1.8-3,1.8C35.8,96.1,34.4,94.2,34.4,92z M40.9,93.4v-2.4
		c-0.2-1.1-1.5-2-2.6-2c-1.7,0-2.9,1.6-2.9,3.2c0,1.7,1.2,3.1,2.8,3.1C39.5,95.2,40.4,94.4,40.9,93.4z"/>
	<path fill="#FFFFFF" d="M44.4,92.7v-4.6h1v4.4c0,1.8,0.6,2.7,1.8,2.7s2.4-0.8,2.8-2.1v-4.9h1v6.5c0,0.3,0.1,0.4,0.4,0.4v0.9
		c-0.2,0-0.3,0-0.4,0c-0.5,0-0.8-0.3-0.8-0.7v-1.1c-0.7,1.2-1.9,1.9-3.3,1.9C45.2,96.1,44.4,94.9,44.4,92.7z"/>
	<path fill="#FFFFFF" d="M53.1,92c0-2.2,1.7-4,3.9-4c2.3,0,3.9,1.9,3.9,4c0,0.1,0,0.3,0,0.4h-6.7c0.1,1.7,1.4,2.9,2.9,2.9
		c1,0,2-0.6,2.4-1.4l0.9,0.2c-0.5,1.1-1.8,1.9-3.3,1.9C54.8,96.1,53.1,94.2,53.1,92z M59.9,91.6c-0.1-1.7-1.4-2.8-2.9-2.8
		c-1.5,0-2.8,1.2-2.9,2.8H59.9z"/>
	<path fill="#FFFFFF" d="M62.1,94.9l0.5-0.7c0.9,0.7,1.8,1.1,2.8,1.1c1.2,0,2.1-0.5,2.1-1.5c0-0.9-0.8-1.1-2.4-1.5
		c-1.8-0.4-2.6-0.8-2.6-2c0-1.6,1.3-2.4,2.9-2.4c1.2,0,2.2,0.4,2.8,1.1l-0.5,0.6c-0.6-0.6-1.5-0.9-2.4-0.9c-1.1,0-1.9,0.4-1.9,1.5
		c0,0.8,0.6,1,2,1.3c2,0.5,3,0.9,3,2.2c0,1.4-1.2,2.3-3,2.3C64.2,96.1,62.9,95.7,62.1,94.9z"/>
	<path fill="#FFFFFF" d="M74.1,95.6c-0.2,0.1-0.9,0.5-1.8,0.5c-0.9,0-1.6-0.5-1.6-1.5v-5.6h-1.1v-0.8h1.1v-2.6h1v2.6h1.8v0.8h-1.8
		v5.3c0,0.6,0.5,0.8,0.9,0.8c0.6,0,1.1-0.3,1.2-0.3L74.1,95.6z"/>
	<path fill="#FFFFFF" d="M75.6,86.5V85h1v1.5H75.6z M75.6,95.9v-7.8h1v7.8H75.6z"/>
	<path fill="#FFFFFF" d="M78.6,92.1c0-2.2,1.7-4.1,3.9-4.1c2.2,0,3.9,1.9,3.9,4.1c0,2.2-1.6,4-3.9,4C80.2,96.1,78.6,94.2,78.6,92.1z
		 M82.5,95.2c1.6,0,2.8-1.4,2.8-3.1c0-1.7-1.3-3.1-2.8-3.1c-1.6,0-2.8,1.4-2.8,3.2C79.7,93.8,80.9,95.2,82.5,95.2z"/>
	<path fill="#FFFFFF" d="M94.9,95.9h-1v-4.4c0-1.8-0.5-2.7-1.7-2.7c-1.2,0-2.5,0.9-2.9,2.2v4.8h-1v-7.8h0.9v1.8
		c0.6-1.1,1.9-1.9,3.3-1.9c1.8,0,2.3,1.3,2.3,3.4V95.9z"/>
	<path fill="#FFFFFF" d="M96.7,94.9l0.5-0.7c0.9,0.7,1.8,1.1,2.8,1.1c1.2,0,2.1-0.5,2.1-1.5c0-0.9-0.8-1.1-2.4-1.5
		c-1.8-0.4-2.6-0.8-2.6-2c0-1.6,1.3-2.4,2.9-2.4c1.2,0,2.2,0.4,2.8,1.1l-0.5,0.6c-0.6-0.6-1.5-0.9-2.4-0.9c-1.1,0-1.9,0.4-1.9,1.5
		c0,0.8,0.6,1,2,1.3c2,0.5,3,0.9,3,2.2c0,1.4-1.2,2.3-3,2.3C98.7,96.1,97.5,95.7,96.7,94.9z"/>
	<path fill="#FFFFFF" d="M108.5,93.7c0-1.5,1.3-2.4,3.3-2.4c0.8,0,1.6,0.1,2.3,0.4V91c0-1.4-0.9-2.2-2.2-2.2c-0.8,0-1.7,0.3-2.5,0.9
		L109,89c1-0.7,2-1,3-1c1.9,0,3.1,1.2,3.1,3.1v3.5c0,0.3,0.1,0.4,0.4,0.4v0.9c-0.2,0-0.3,0-0.4,0c-0.4,0-0.8-0.2-0.8-0.7l0-0.6
		c-0.7,0.9-1.9,1.5-3,1.5C109.5,96.1,108.5,95,108.5,93.7z M113.8,94.2c0.1-0.2,0.3-0.4,0.3-0.6v-1.3c-0.7-0.3-1.4-0.4-2.1-0.4
		c-1.5,0-2.5,0.6-2.5,1.7c0,0.8,0.6,1.7,2,1.7C112.3,95.3,113.3,94.9,113.8,94.2z"/>
	<path fill="#FFFFFF" d="M124.2,95.9h-1v-4.4c0-1.8-0.5-2.7-1.7-2.7c-1.2,0-2.5,0.9-2.9,2.2v4.8h-1v-7.8h0.9v1.8
		c0.6-1.1,1.9-1.9,3.3-1.9c1.8,0,2.3,1.3,2.3,3.4V95.9z"/>
	<path fill="#FFFFFF" d="M126.1,92.1c0-2.2,1.5-4.1,3.6-4.1c1.3,0,2.4,0.8,3,1.8V85h1v9.6c0,0.3,0.1,0.4,0.4,0.4v0.9
		c-0.2,0-0.3,0-0.4,0c-0.5,0-0.9-0.3-0.9-0.7v-0.8c-0.6,1-1.8,1.7-2.9,1.7C127.6,96.1,126.1,94.2,126.1,92.1z M132.6,93.3v-2.4
		c-0.4-1.1-1.6-2-2.7-2c-1.7,0-2.8,1.6-2.8,3.2c0,1.7,1.3,3.1,2.9,3.1C131.1,95.2,132.4,94.3,132.6,93.3z"/>
	<path fill="#FFFFFF" d="M139.8,93.7c0-1.5,1.3-2.4,3.3-2.4c0.8,0,1.6,0.1,2.3,0.4V91c0-1.4-0.9-2.2-2.2-2.2c-0.8,0-1.7,0.3-2.5,0.9
		l-0.4-0.7c1-0.7,2-1,3-1c1.9,0,3.1,1.2,3.1,3.1v3.5c0,0.3,0.1,0.4,0.4,0.4v0.9c-0.2,0-0.3,0-0.4,0c-0.4,0-0.8-0.2-0.8-0.7l0-0.6
		c-0.7,0.9-1.9,1.5-3,1.5C140.8,96.1,139.8,95,139.8,93.7z M145.1,94.2c0.1-0.2,0.3-0.4,0.3-0.6v-1.3c-0.7-0.3-1.4-0.4-2.1-0.4
		c-1.5,0-2.5,0.6-2.5,1.7c0,0.8,0.6,1.7,2,1.7C143.6,95.3,144.6,94.9,145.1,94.2z"/>
	<path fill="#FFFFFF" d="M152.3,88c1.5,0,2.6,0.7,3.2,1.9l-1,0.3c-0.4-0.8-1.3-1.3-2.2-1.3c-1.6,0-2.8,1.3-2.8,3.1
		c0,1.8,1.3,3.2,2.8,3.2c1,0,2-0.6,2.3-1.3l1,0.3c-0.4,1.1-1.7,1.9-3.2,1.9c-2.3,0-3.9-1.9-3.9-4.1C148.4,89.8,150,88,152.3,88z"/>
	<path fill="#FFFFFF" d="M161.2,95.6c-0.2,0.1-0.9,0.5-1.8,0.5c-0.9,0-1.6-0.5-1.6-1.5v-5.6h-1.1v-0.8h1.1v-2.6h1v2.6h1.8v0.8h-1.8
		v5.3c0,0.6,0.5,0.8,0.9,0.8c0.6,0,1.1-0.3,1.2-0.3L161.2,95.6z"/>
	<path fill="#FFFFFF" d="M162.7,86.5V85h1v1.5H162.7z M162.7,95.9v-7.8h1v7.8H162.7z"/>
	<path fill="#FFFFFF" d="M168.6,95.9l-3.2-7.8h1.1l2.7,6.9l2.7-6.9h1l-3.2,7.8H168.6z"/>
	<path fill="#FFFFFF" d="M174,92c0-2.2,1.7-4,3.9-4c2.3,0,3.9,1.9,3.9,4c0,0.1,0,0.3,0,0.4H175c0.1,1.7,1.4,2.9,2.9,2.9
		c1,0,2-0.6,2.4-1.4l0.9,0.2c-0.5,1.1-1.8,1.9-3.3,1.9C175.6,96.1,174,94.2,174,92z M180.8,91.6c-0.1-1.7-1.4-2.8-2.9-2.8
		c-1.5,0-2.8,1.2-2.9,2.8H180.8z"/>
	<path fill="#FFFFFF" d="M24.8,104h1v9.2c0,0.6,0.3,0.9,0.9,0.9c0.2,0,0.6-0.1,0.8-0.2l0.2,0.8c-0.4,0.2-1,0.3-1.4,0.3
		c-0.9,0-1.5-0.6-1.5-1.5V104z"/>
	<path fill="#FFFFFF" d="M29,105.5V104h1v1.5H29z M29,114.9v-7.8h1v7.8H29z"/>
	<path fill="#FFFFFF" d="M31.9,113.9l0.5-0.7c0.9,0.7,1.8,1.1,2.8,1.1c1.2,0,2.1-0.5,2.1-1.5c0-0.9-0.8-1.1-2.4-1.5
		c-1.8-0.4-2.6-0.8-2.6-2c0-1.6,1.3-2.4,2.9-2.4c1.2,0,2.2,0.4,2.8,1.1l-0.5,0.6c-0.6-0.6-1.5-0.9-2.4-0.9c-1.1,0-1.9,0.4-1.9,1.5
		c0,0.8,0.6,1,2,1.3c2,0.5,3,0.9,3,2.2c0,1.4-1.2,2.3-3,2.3C33.9,115.1,32.7,114.7,31.9,113.9z"/>
	<path fill="#FFFFFF" d="M43.9,114.6c-0.2,0.1-0.9,0.5-1.8,0.5c-0.9,0-1.6-0.5-1.6-1.5v-5.6h-1.1v-0.8h1.1v-2.6h1v2.6h1.8v0.8h-1.8
		v5.3c0,0.6,0.5,0.8,0.9,0.8c0.6,0,1.1-0.3,1.2-0.3L43.9,114.6z"/>
	<path fill="#FFFFFF" d="M44.9,111c0-2.2,1.7-4,3.9-4c2.3,0,3.9,1.9,3.9,4c0,0.1,0,0.3,0,0.4H46c0.1,1.7,1.4,2.9,2.9,2.9
		c1,0,2-0.6,2.4-1.4l0.9,0.2c-0.5,1.1-1.8,1.9-3.3,1.9C46.5,115.1,44.9,113.2,44.9,111z M51.7,110.6c-0.1-1.7-1.4-2.8-2.9-2.8
		c-1.5,0-2.8,1.2-2.9,2.8H51.7z"/>
	<path fill="#FFFFFF" d="M61.1,114.9h-1v-4.4c0-1.8-0.5-2.7-1.7-2.7c-1.2,0-2.5,0.9-2.9,2.2v4.8h-1v-7.8h0.9v1.8
		c0.6-1.1,1.9-1.9,3.3-1.9c1.8,0,2.3,1.3,2.3,3.4V114.9z"/>
	<path fill="#FFFFFF" d="M63.5,105.5V104h1v1.5H63.5z M63.5,114.9v-7.8h1v7.8H63.5z"/>
	<path fill="#FFFFFF" d="M73.6,114.9h-1v-4.4c0-1.8-0.5-2.7-1.7-2.7c-1.2,0-2.5,0.9-2.9,2.2v4.8h-1v-7.8h0.9v1.8
		c0.6-1.1,1.9-1.9,3.3-1.9c1.8,0,2.3,1.3,2.3,3.4V114.9z"/>
	<path fill="#FFFFFF" d="M75.5,111.1c0-2.2,1.5-4.1,3.6-4.1c1.3,0,2.3,0.8,3,1.8v-1.6H83v7.8c0,2.2-1.7,3.3-3.8,3.3
		c-1.8,0-2.8-0.7-3.5-1.8l0.6-0.5c0.6,1,1.7,1.5,2.9,1.5c1.5,0,2.8-0.8,2.8-2.5v-1.5c-0.6,1-1.7,1.6-2.9,1.6
		C77,115.1,75.5,113.1,75.5,111.1z M82,112.3v-2.4c-0.5-1.1-1.6-2-2.7-2c-1.7,0-2.8,1.6-2.8,3.2c0,1.7,1.3,3.1,2.9,3.1
		C80.6,114.2,81.8,113.2,82,112.3z"/>
	<path fill="#FFFFFF" d="M85.2,115.2c0.1,0,0.3-0.1,0.3-0.3v-1.4h0.9v1.5c0,0.7-0.6,0.9-1.2,0.9V115.2z"/>
	<path fill="#FFFFFF" d="M102.5,107.1h1l-3.3,7.8h-0.9l-1.7-4l-1.7,4h-0.9l-3.3-7.8h1l2.9,6.8l1.5-3.6l-1.3-3.2h0.9l1,2.5l1-2.5h0.9
		l-1.3,3.2l1.5,3.6L102.5,107.1z"/>
	<path fill="#FFFFFF" d="M104.6,111c0-2.2,1.7-4,3.9-4c2.3,0,3.9,1.9,3.9,4c0,0.1,0,0.3,0,0.4h-6.7c0.1,1.7,1.4,2.9,2.9,2.9
		c1,0,2-0.6,2.4-1.4l0.9,0.2c-0.5,1.1-1.8,1.9-3.3,1.9C106.3,115.1,104.6,113.2,104.6,111z M111.4,110.6c-0.1-1.7-1.4-2.8-2.9-2.8
		c-1.5,0-2.8,1.2-2.9,2.8H111.4z"/>
	<path fill="#FFFFFF" d="M118.4,104h1v9.2c0,0.6,0.3,0.9,0.9,0.9c0.2,0,0.6-0.1,0.8-0.2l0.2,0.8c-0.4,0.2-1,0.3-1.4,0.3
		c-0.9,0-1.5-0.6-1.5-1.5V104z"/>
	<path fill="#FFFFFF" d="M122.1,111c0-2.2,1.7-4,3.9-4c2.3,0,3.9,1.9,3.9,4c0,0.1,0,0.3,0,0.4h-6.7c0.1,1.7,1.4,2.9,2.9,2.9
		c1,0,2-0.6,2.4-1.4l0.9,0.2c-0.5,1.1-1.8,1.9-3.3,1.9C123.8,115.1,122.1,113.2,122.1,111z M128.9,110.6c-0.1-1.7-1.4-2.8-2.9-2.8
		c-1.5,0-2.8,1.2-2.9,2.8H128.9z"/>
	<path fill="#FFFFFF" d="M131.1,112.7c0-1.5,1.3-2.4,3.3-2.4c0.8,0,1.6,0.1,2.3,0.4V110c0-1.4-0.9-2.2-2.2-2.2
		c-0.8,0-1.7,0.3-2.5,0.9l-0.4-0.7c1-0.7,2-1,3-1c1.9,0,3.1,1.2,3.1,3.1v3.5c0,0.3,0.1,0.4,0.4,0.4v0.9c-0.2,0-0.3,0-0.4,0
		c-0.4,0-0.8-0.2-0.8-0.7l0-0.6c-0.7,0.9-1.9,1.5-3,1.5C132.2,115.1,131.1,114,131.1,112.7z M136.5,113.2c0.1-0.2,0.3-0.4,0.3-0.6
		v-1.3c-0.7-0.3-1.4-0.4-2.1-0.4c-1.5,0-2.5,0.6-2.5,1.7c0,0.8,0.6,1.7,2,1.7C135,114.3,136,113.9,136.5,113.2z"/>
	<path fill="#FFFFFF" d="M144.2,108c-1.4,0-2.5,0.8-2.9,2.1v4.9h-1v-7.8h1v1.9c0.5-1.1,1.5-1.9,2.5-1.9c0.2,0,0.3,0,0.5,0V108z"/>
	<path fill="#FFFFFF" d="M152.4,114.9h-1v-4.4c0-1.8-0.5-2.7-1.7-2.7c-1.2,0-2.5,0.9-2.9,2.2v4.8h-1v-7.8h0.9v1.8
		c0.6-1.1,1.9-1.9,3.3-1.9c1.8,0,2.3,1.3,2.3,3.4V114.9z"/>
	<path fill="#FFFFFF" d="M168.4,107.1h1l-3.3,7.8h-0.9l-1.7-4l-1.7,4H161l-3.3-7.8h1l2.9,6.8l1.5-3.6l-1.3-3.2h0.9l1,2.5l1-2.5h0.9
		l-1.3,3.2l1.5,3.6L168.4,107.1z"/>
	<path fill="#FFFFFF" d="M177.6,114.9h-1v-4.4c0-1.8-0.6-2.7-1.8-2.7c-1.2,0-2.4,1-2.7,2.2v4.8h-1V104h1v4.9
		c0.6-1.2,1.8-1.9,3.1-1.9c1.8,0,2.5,1.4,2.5,3.4V114.9z"/>
	<path fill="#FFFFFF" d="M179.4,112.7c0-1.5,1.4-2.4,3.3-2.4c0.8,0,1.6,0.1,2.3,0.4V110c0-1.4-0.9-2.2-2.2-2.2
		c-0.8,0-1.7,0.3-2.5,0.9L180,108c1-0.7,2-1,3-1c1.9,0,3.1,1.2,3.1,3.1v3.5c0,0.3,0.1,0.4,0.4,0.4v0.9c-0.2,0-0.3,0-0.4,0
		c-0.4,0-0.8-0.2-0.8-0.7l0-0.6c-0.7,0.9-1.9,1.5-3,1.5C180.5,115.1,179.4,114,179.4,112.7z M184.8,113.2c0.1-0.2,0.3-0.4,0.3-0.6
		v-1.3c-0.7-0.3-1.4-0.4-2.1-0.4c-1.5,0-2.5,0.6-2.5,1.7c0,0.8,0.6,1.7,2,1.7C183.3,114.3,184.3,113.9,184.8,113.2z"/>
	<path fill="#FFFFFF" d="M192.2,114.6c-0.2,0.1-0.9,0.5-1.8,0.5c-0.9,0-1.6-0.5-1.6-1.5v-5.6h-1.1v-0.8h1.1v-2.6h1v2.6h1.8v0.8h-1.8
		v5.3c0,0.6,0.5,0.8,0.9,0.8c0.6,0,1.1-0.3,1.2-0.3L192.2,114.6z"/>
	<path fill="#FFFFFF" d="M41.3,136.4c0.1,0,0.2,0,0.3,0c0.2,0,0.5,0,0.6-0.1c0.2-0.1,0.4-0.4,1.2-2.4l-3.4-7.8H41l2.9,6.9l2.7-6.9h1
		l-4.1,10.1c-0.3,0.7-0.8,1.1-1.7,1.1c-0.2,0-0.4,0-0.5,0V136.4z"/>
	<path fill="#FFFFFF" d="M48.4,130.1c0-2.2,1.7-4.1,3.9-4.1c2.2,0,3.9,1.9,3.9,4.1c0,2.2-1.6,4-3.9,4
		C50,134.1,48.4,132.2,48.4,130.1z M52.3,133.2c1.6,0,2.8-1.4,2.8-3.1c0-1.7-1.3-3.1-2.8-3.1c-1.6,0-2.8,1.4-2.8,3.2
		C49.5,131.8,50.7,133.2,52.3,133.2z"/>
	<path fill="#FFFFFF" d="M58.1,130.7v-4.6h1v4.4c0,1.8,0.6,2.7,1.8,2.7s2.4-0.8,2.8-2.1v-4.9h1v6.5c0,0.3,0.1,0.4,0.4,0.4v0.9
		c-0.2,0-0.3,0-0.4,0c-0.5,0-0.8-0.3-0.8-0.7v-1.1c-0.7,1.2-1.9,1.9-3.3,1.9C58.9,134.1,58.1,132.9,58.1,130.7z"/>
	<path fill="#FFFFFF" d="M81,126.1h1l-3.3,7.8h-0.9l-1.7-4l-1.7,4h-0.9l-3.3-7.8h1l2.9,6.8l1.5-3.6l-1.3-3.2h0.9l1,2.5l1-2.5H78
		l-1.3,3.2l1.5,3.6L81,126.1z"/>
	<path fill="#FFFFFF" d="M82.8,131.7c0-1.5,1.4-2.4,3.3-2.4c0.8,0,1.6,0.1,2.3,0.4V129c0-1.4-0.9-2.2-2.2-2.2
		c-0.8,0-1.7,0.3-2.5,0.9l-0.4-0.7c1-0.7,2-1,3-1c1.9,0,3.1,1.2,3.1,3.1v3.5c0,0.3,0.1,0.4,0.4,0.4v0.9c-0.2,0-0.3,0-0.4,0
		c-0.4,0-0.8-0.2-0.8-0.7l0-0.6c-0.7,0.9-1.9,1.5-3,1.5C83.9,134.1,82.8,133,82.8,131.7z M88.1,132.2c0.1-0.2,0.3-0.4,0.3-0.6v-1.3
		c-0.7-0.3-1.4-0.4-2.1-0.4c-1.5,0-2.5,0.6-2.5,1.7c0,0.8,0.6,1.7,2,1.7C86.6,133.3,87.6,132.9,88.1,132.2z"/>
	<path fill="#FFFFFF" d="M98.5,133.9h-1v-4.4c0-1.8-0.5-2.7-1.7-2.7c-1.2,0-2.5,0.9-2.9,2.2v4.8h-1v-7.8h0.9v1.8
		c0.6-1.1,1.9-1.9,3.3-1.9c1.8,0,2.3,1.3,2.3,3.4V133.9z"/>
	<path fill="#FFFFFF" d="M104.6,133.6c-0.2,0.1-0.9,0.5-1.8,0.5c-0.9,0-1.6-0.5-1.6-1.5v-5.6h-1.1v-0.8h1.1v-2.6h1v2.6h1.8v0.8h-1.8
		v5.3c0,0.6,0.5,0.8,0.9,0.8c0.6,0,1.1-0.3,1.2-0.3L104.6,133.6z"/>
	<path fill="#FFFFFF" d="M105.9,134.2c0.1,0,0.3-0.1,0.3-0.3v-1.4h0.9v1.5c0,0.7-0.6,0.9-1.2,0.9V134.2z"/>
	<path fill="#FFFFFF" d="M123.1,126.1h1l-3.3,7.8h-0.9l-1.7-4l-1.7,4h-0.9l-3.3-7.8h1l2.9,6.8l1.5-3.6l-1.3-3.2h0.9l1,2.5l1-2.5h0.9
		l-1.3,3.2l1.5,3.6L123.1,126.1z"/>
	<path fill="#FFFFFF" d="M132.3,133.9h-1v-4.4c0-1.8-0.6-2.7-1.8-2.7c-1.2,0-2.4,1-2.7,2.2v4.8h-1V123h1v4.9
		c0.6-1.2,1.8-1.9,3.1-1.9c1.8,0,2.5,1.4,2.5,3.4V133.9z"/>
	<path fill="#FFFFFF" d="M134.1,131.7c0-1.5,1.3-2.4,3.3-2.4c0.8,0,1.6,0.1,2.3,0.4V129c0-1.4-0.9-2.2-2.2-2.2
		c-0.8,0-1.7,0.3-2.5,0.9l-0.4-0.7c1-0.7,2-1,3-1c1.9,0,3.1,1.2,3.1,3.1v3.5c0,0.3,0.1,0.4,0.4,0.4v0.9c-0.2,0-0.3,0-0.4,0
		c-0.4,0-0.8-0.2-0.8-0.7l0-0.6c-0.7,0.9-1.9,1.5-3,1.5C135.2,134.1,134.1,133,134.1,131.7z M139.5,132.2c0.1-0.2,0.3-0.4,0.3-0.6
		v-1.3c-0.7-0.3-1.4-0.4-2.1-0.4c-1.5,0-2.5,0.6-2.5,1.7c0,0.8,0.6,1.7,2,1.7C138,133.3,139,132.9,139.5,132.2z"/>
	<path fill="#FFFFFF" d="M146.9,133.6c-0.2,0.1-0.9,0.5-1.8,0.5c-0.9,0-1.6-0.5-1.6-1.5v-5.6h-1.1v-0.8h1.1v-2.6h1v2.6h1.8v0.8h-1.8
		v5.3c0,0.6,0.5,0.8,0.9,0.8c0.6,0,1.1-0.3,1.2-0.3L146.9,133.6z"/>
	<path fill="#FFFFFF" d="M159.1,133.9h-1v-4.4c0-1.8-0.6-2.7-1.8-2.7c-1.2,0-2.4,1-2.7,2.2v4.8h-1V123h1v4.9
		c0.6-1.2,1.8-1.9,3.1-1.9c1.8,0,2.5,1.4,2.5,3.4V133.9z"/>
	<path fill="#FFFFFF" d="M160.9,131.7c0-1.5,1.4-2.4,3.3-2.4c0.8,0,1.6,0.1,2.3,0.4V129c0-1.4-0.9-2.2-2.2-2.2
		c-0.8,0-1.7,0.3-2.5,0.9l-0.4-0.7c1-0.7,2-1,3-1c1.9,0,3.1,1.2,3.1,3.1v3.5c0,0.3,0.1,0.4,0.4,0.4v0.9c-0.2,0-0.3,0-0.4,0
		c-0.4,0-0.8-0.2-0.8-0.7l0-0.6c-0.7,0.9-1.9,1.5-3,1.5C162,134.1,160.9,133,160.9,131.7z M166.3,132.2c0.1-0.2,0.3-0.4,0.3-0.6
		v-1.3c-0.7-0.3-1.4-0.4-2.1-0.4c-1.5,0-2.5,0.6-2.5,1.7c0,0.8,0.6,1.7,2,1.7C164.8,133.3,165.8,132.9,166.3,132.2z"/>
	<path fill="#FFFFFF" d="M169.4,132.9l0.5-0.7c0.9,0.7,1.8,1.1,2.8,1.1c1.2,0,2.1-0.5,2.1-1.5c0-0.9-0.8-1.1-2.4-1.5
		c-1.8-0.4-2.6-0.8-2.6-2c0-1.6,1.3-2.4,2.9-2.4c1.2,0,2.2,0.4,2.8,1.1l-0.5,0.6c-0.6-0.6-1.5-0.9-2.4-0.9c-1.1,0-1.9,0.4-1.9,1.5
		c0,0.8,0.6,1,2,1.3c2,0.5,3,0.9,3,2.2c0,1.4-1.2,2.3-3,2.3C171.5,134.1,170.3,133.7,169.4,132.9z"/>
	<path fill="#FFFFFF" d="M32.2,145.1h1l-3.3,7.8H29l-1.7-4l-1.7,4h-0.9l-3.3-7.8h1l2.9,6.8l1.5-3.6l-1.3-3.2h0.9l1,2.5l1-2.5h0.9
		l-1.3,3.2l1.5,3.6L32.2,145.1z"/>
	<path fill="#FFFFFF" d="M34,149.1c0-2.2,1.7-4.1,3.9-4.1c2.2,0,3.9,1.9,3.9,4.1c0,2.2-1.6,4-3.9,4C35.6,153.1,34,151.2,34,149.1z
		 M37.9,152.2c1.6,0,2.8-1.4,2.8-3.1c0-1.7-1.3-3.1-2.8-3.1c-1.6,0-2.8,1.4-2.8,3.2C35.1,150.8,36.3,152.2,37.9,152.2z"/>
	<path fill="#FFFFFF" d="M47.6,146c-1.4,0-2.5,0.8-2.9,2.1v4.9h-1v-7.8h1v1.9c0.5-1.1,1.5-1.9,2.5-1.9c0.2,0,0.3,0,0.5,0V146z"/>
	<path fill="#FFFFFF" d="M54.9,152.9l-2.9-4l-1.7,1.6v2.4h-1V142h1v7.4l4.4-4.3h1.2l-3.2,3.2l3.3,4.6H54.9z"/>
	<path fill="#FFFFFF" d="M57,149c0-2.2,1.7-4,3.9-4c2.3,0,3.9,1.9,3.9,4c0,0.1,0,0.3,0,0.4h-6.7c0.1,1.7,1.4,2.9,2.9,2.9
		c1,0,2-0.6,2.4-1.4l0.9,0.2c-0.5,1.1-1.8,1.9-3.3,1.9C58.7,153.1,57,151.2,57,149z M63.8,148.6c-0.1-1.7-1.4-2.8-2.9-2.8
		c-1.5,0-2.8,1.2-2.9,2.8H63.8z"/>
	<path fill="#FFFFFF" d="M66.1,149.1c0-2.2,1.5-4.1,3.6-4.1c1.3,0,2.4,0.8,3,1.8V142h1v9.6c0,0.3,0.1,0.4,0.4,0.4v0.9
		c-0.2,0-0.3,0-0.4,0c-0.5,0-0.9-0.3-0.9-0.7v-0.8c-0.6,1-1.8,1.7-2.9,1.7C67.7,153.1,66.1,151.2,66.1,149.1z M72.7,150.3v-2.4
		c-0.4-1.1-1.6-2-2.7-2c-1.7,0-2.8,1.6-2.8,3.2c0,1.7,1.3,3.1,2.9,3.1C71.1,152.2,72.5,151.3,72.7,150.3z"/>
	<path fill="#FFFFFF" d="M79.8,150.7c0-1.5,1.4-2.4,3.3-2.4c0.8,0,1.6,0.1,2.3,0.4V148c0-1.4-0.9-2.2-2.2-2.2
		c-0.8,0-1.7,0.3-2.5,0.9l-0.4-0.7c1-0.7,2-1,3-1c1.9,0,3.1,1.2,3.1,3.1v3.5c0,0.3,0.1,0.4,0.4,0.4v0.9c-0.2,0-0.3,0-0.4,0
		c-0.4,0-0.8-0.2-0.8-0.7l0-0.6c-0.7,0.9-1.9,1.5-3,1.5C80.9,153.1,79.8,152,79.8,150.7z M85.1,151.2c0.1-0.2,0.3-0.4,0.3-0.6v-1.3
		c-0.7-0.3-1.4-0.4-2.1-0.4c-1.5,0-2.5,0.6-2.5,1.7c0,0.8,0.6,1.7,2,1.7C83.6,152.3,84.6,151.9,85.1,151.2z"/>
	<path fill="#FFFFFF" d="M95.5,152.9h-1v-4.4c0-1.8-0.5-2.7-1.7-2.7c-1.2,0-2.5,0.9-2.9,2.2v4.8h-1v-7.8h0.9v1.8
		c0.6-1.1,1.9-1.9,3.3-1.9c1.8,0,2.3,1.3,2.3,3.4V152.9z"/>
	<path fill="#FFFFFF" d="M97.4,149.1c0-2.2,1.5-4.1,3.6-4.1c1.3,0,2.4,0.8,3,1.8V142h1v9.6c0,0.3,0.1,0.4,0.4,0.4v0.9
		c-0.2,0-0.3,0-0.4,0c-0.5,0-0.9-0.3-0.9-0.7v-0.8c-0.6,1-1.8,1.7-2.9,1.7C99,153.1,97.4,151.2,97.4,149.1z M103.9,150.3v-2.4
		c-0.4-1.1-1.6-2-2.7-2c-1.7,0-2.8,1.6-2.8,3.2c0,1.7,1.3,3.1,2.9,3.1C102.4,152.2,103.8,151.3,103.9,150.3z"/>
	<path fill="#FFFFFF" d="M121.2,145.1h1l-3.3,7.8H118l-1.7-4l-1.7,4h-0.9l-3.3-7.8h1l2.9,6.8l1.5-3.6l-1.3-3.2h0.9l1,2.5l1-2.5h0.9
		l-1.3,3.2l1.5,3.6L121.2,145.1z"/>
	<path fill="#FFFFFF" d="M130.4,152.9h-1v-4.4c0-1.8-0.6-2.7-1.8-2.7c-1.2,0-2.4,1-2.7,2.2v4.8h-1V142h1v4.9
		c0.6-1.2,1.8-1.9,3.1-1.9c1.8,0,2.5,1.4,2.5,3.4V152.9z"/>
	<path fill="#FFFFFF" d="M132.2,150.7c0-1.5,1.4-2.4,3.3-2.4c0.8,0,1.6,0.1,2.3,0.4V148c0-1.4-0.9-2.2-2.2-2.2
		c-0.8,0-1.7,0.3-2.5,0.9l-0.4-0.7c1-0.7,2-1,3-1c1.9,0,3.1,1.2,3.1,3.1v3.5c0,0.3,0.1,0.4,0.4,0.4v0.9c-0.2,0-0.3,0-0.4,0
		c-0.4,0-0.8-0.2-0.8-0.7l0-0.6c-0.7,0.9-1.9,1.5-3,1.5C133.2,153.1,132.2,152,132.2,150.7z M137.5,151.2c0.1-0.2,0.3-0.4,0.3-0.6
		v-1.3c-0.7-0.3-1.4-0.4-2.1-0.4c-1.5,0-2.5,0.6-2.5,1.7c0,0.8,0.6,1.7,2,1.7C136,152.3,137,151.9,137.5,151.2z"/>
	<path fill="#FFFFFF" d="M145,152.6c-0.2,0.1-0.9,0.5-1.8,0.5c-0.9,0-1.6-0.5-1.6-1.5v-5.6h-1.1v-0.8h1.1v-2.6h1v2.6h1.8v0.8h-1.8
		v5.3c0,0.6,0.5,0.8,0.9,0.8c0.6,0,1.1-0.3,1.2-0.3L145,152.6z"/>
	<path fill="#FFFFFF" d="M157.2,152.9h-1v-4.4c0-1.8-0.6-2.7-1.8-2.7c-1.2,0-2.4,1-2.7,2.2v4.8h-1V142h1v4.9
		c0.6-1.2,1.8-1.9,3.1-1.9c1.8,0,2.5,1.4,2.5,3.4V152.9z"/>
	<path fill="#FFFFFF" d="M159,150.7c0-1.5,1.4-2.4,3.3-2.4c0.8,0,1.6,0.1,2.3,0.4V148c0-1.4-0.9-2.2-2.2-2.2c-0.8,0-1.7,0.3-2.5,0.9
		l-0.4-0.7c1-0.7,2-1,3-1c1.9,0,3.1,1.2,3.1,3.1v3.5c0,0.3,0.1,0.4,0.4,0.4v0.9c-0.2,0-0.3,0-0.4,0c-0.4,0-0.8-0.2-0.8-0.7l0-0.6
		c-0.7,0.9-1.9,1.5-3,1.5C160.1,153.1,159,152,159,150.7z M164.3,151.2c0.1-0.2,0.3-0.4,0.3-0.6v-1.3c-0.7-0.3-1.4-0.4-2.1-0.4
		c-1.5,0-2.5,0.6-2.5,1.7c0,0.8,0.6,1.7,2,1.7C162.8,152.3,163.8,151.9,164.3,151.2z"/>
	<path fill="#FFFFFF" d="M167.5,151.9l0.5-0.7c0.9,0.7,1.8,1.1,2.8,1.1c1.2,0,2.1-0.5,2.1-1.5c0-0.9-0.8-1.1-2.4-1.5
		c-1.8-0.4-2.6-0.8-2.6-2c0-1.6,1.3-2.4,2.9-2.4c1.2,0,2.2,0.4,2.8,1.1l-0.5,0.6c-0.6-0.6-1.5-0.9-2.4-0.9c-1.1,0-1.9,0.4-1.9,1.5
		c0,0.8,0.6,1,2,1.3c2,0.5,3,0.9,3,2.2c0,1.4-1.2,2.3-3,2.3C169.5,153.1,168.3,152.7,167.5,151.9z"/>
	<path fill="#FFFFFF" d="M182.3,152.9h-1v-4.4c0-1.8-0.5-2.7-1.7-2.7c-1.2,0-2.5,0.9-2.9,2.2v4.8h-1v-7.8h0.9v1.8
		c0.6-1.1,1.9-1.9,3.3-1.9c1.8,0,2.3,1.3,2.3,3.4V152.9z"/>
	<path fill="#FFFFFF" d="M184.2,142c0.6,0,1.2,0.3,1.2,1v1.8h-0.9v-1.7c0-0.3-0.2-0.3-0.3-0.3V142z"/>
	<path fill="#FFFFFF" d="M191.6,152.6c-0.2,0.1-0.9,0.5-1.8,0.5c-0.9,0-1.6-0.5-1.6-1.5v-5.6h-1.1v-0.8h1.1v-2.6h1v2.6h1.8v0.8h-1.8
		v5.3c0,0.6,0.5,0.8,0.9,0.8c0.6,0,1.1-0.3,1.2-0.3L191.6,152.6z"/>
	<path fill="#FFFFFF" d="M192.9,152.9v-1.5h0.9v1.5H192.9z"/>
	<path fill="#FFFFFF" d="M74.5,174.1c-0.7-0.8-1.9-1.3-3.3-1.3c-2.1,0-3.1,0.9-3.1,2.2c0,1.4,1,1.8,3.4,2.3c2.6,0.5,4.2,1.2,4.2,3.4
		c0,2.2-1.8,3.3-4.3,3.3c-1.9,0-3.5-0.6-4.8-1.8l0.6-1c0.9,0.9,2.4,1.7,4.3,1.7c1.9,0,3.1-0.7,3.1-2.1c0-1.5-1.2-2-3.7-2.5
		c-2.5-0.6-3.8-1.2-3.8-3.1c0-2.2,1.8-3.5,4.3-3.5c1.6,0,2.8,0.5,3.8,1.4L74.5,174.1z"/>
	<path fill="#FFFFFF" d="M87.6,171.9v12.1h-1.2v-5.6h-7.2v5.6h-1.2v-12.1h1.2v5.4h7.2v-5.4H87.6z"/>
	<path fill="#FFFFFF" d="M90.3,177.9c0-3.2,2.4-6.1,5.7-6.1c3.4,0,5.6,3.1,5.6,6.1c0,3.2-2.4,6.1-5.7,6.1
		C92.6,184,90.3,181,90.3,177.9z M95.9,183c2.7,0,4.5-2.6,4.5-5c0-2.6-1.9-5-4.5-5c-2.7,0-4.5,2.5-4.5,5
		C91.4,180.5,93.3,183,95.9,183z"/>
	<path fill="#FFFFFF" d="M108.3,172h1.1l1.7,4.3l1.7-4.3h1.1l-2.1,5.2l2.3,5.5l4.4-10.7h1.3l-5.1,12.1h-1.1l-2.5-6l-2.5,6h-1.1
		l-5.1-12.1h1.3l4.4,10.7l2.3-5.5L108.3,172z"/>
	<path fill="#FFFFFF" d="M136.7,183.9V174l-4.4,7.7h-0.7l-4.4-7.7v9.9H126v-12.1h1.2l4.7,8.3l4.7-8.3h1.2v12.1H136.7z"/>
	<path fill="#FFFFFF" d="M149.4,182.9v1.1h-8.1v-12.1h8v1.1h-6.8v4.4h5.9v1h-5.9v4.6H149.4z"/>
</g>
</svg>
