<?xml version="1.0" encoding="utf-8"?>
<!-- Generator: Adobe Illustrator 18.0.0, SVG Export Plug-In . SVG Version: 6.00 Build 0)  -->
<!DOCTYPE svg PUBLIC "-//W3C//DTD SVG 1.1//EN" "http://www.w3.org/Graphics/SVG/1.1/DTD/svg11.dtd">
<svg version="1.1" id="Layer_1" xmlns="http://www.w3.org/2000/svg" xmlns:xlink="http://www.w3.org/1999/xlink" x="0px" y="0px"
	 viewBox="0 0 216.7 216" enable-background="new 0 0 216.7 216" xml:space="preserve">
<g>
	<defs>
		<rect id="SVGID_1_" x="-606.3" width="828.7" height="285.8"/>
	</defs>
	<clipPath id="SVGID_2_">
		<use xlink:href="#SVGID_1_"  overflow="visible"/>
	</clipPath>
</g>
<g>
	<defs>
		<rect id="SVGID_3_" x="-606.3" width="828.7" height="285.8"/>
	</defs>
	<clipPath id="SVGID_4_">
		<use xlink:href="#SVGID_3_"  overflow="visible"/>
	</clipPath>
</g>
<g>
	<defs>
		<rect id="SVGID_5_" x="-606.3" width="828.7" height="285.8"/>
	</defs>
	<clipPath id="SVGID_6_">
		<use xlink:href="#SVGID_5_"  overflow="visible"/>
	</clipPath>
	<path clip-path="url(#SVGID_6_)" fill="#FCB52B" d="M108,216c59.6,0,108-48.4,108-108C216,48.4,167.6,0,108,0C48.4,0,0,48.4,0,108
		C0,167.6,48.4,216,108,216"/>
</g>
<polyline fill="none" stroke="#BCBEC0" points="-492.2,216 -492.2,250.9 107.5,250.9 107.5,216 "/>
<g>
	<defs>
		<rect id="SVGID_7_" x="-606.3" width="828.7" height="285.8"/>
	</defs>
	<clipPath id="SVGID_8_">
		<use xlink:href="#SVGID_7_"  overflow="visible"/>
	</clipPath>
</g>
<g>
	<path fill="#FFFFFF" d="M48.8,84.2c2.9,0,5,1.5,6,3.6l-1.3,0.8c-1-2.2-3.1-2.9-4.8-2.9c-3.9,0-6,3.5-6,6.8c0,3.6,2.6,6.9,6.1,6.9
		c1.8,0,4-0.9,5-3l1.3,0.7c-1.1,2.4-4,3.8-6.5,3.8c-4.5,0-7.6-4.3-7.6-8.4C41,88.4,43.9,84.2,48.8,84.2z"/>
	<path fill="#FFFFFF" d="M57.2,92.4c0-4.3,3.3-8.3,7.7-8.3c4.6,0,7.6,4.2,7.6,8.3c0,4.3-3.3,8.3-7.7,8.3
		C60.3,100.7,57.2,96.6,57.2,92.4z M64.8,99.3c3.7,0,6-3.5,6-6.8c0-3.5-2.5-6.8-6-6.8c-3.7,0-6,3.4-6,6.8
		C58.8,96,61.2,99.3,64.8,99.3z"/>
	<path fill="#FFFFFF" d="M77.6,87.3v13.3h-1.6V84.3h1.2l10.8,13.6V84.3h1.6v16.3h-1.4L77.6,87.3z"/>
	<path fill="#FFFFFF" d="M103.9,87.3c-0.9-1-2.5-1.7-4.5-1.7c-2.9,0-4.2,1.2-4.2,3c0,1.9,1.4,2.4,4.6,3.1c3.5,0.7,5.6,1.7,5.6,4.6
		c0,3-2.5,4.4-5.9,4.4c-2.6,0-4.8-0.8-6.6-2.4l0.8-1.3c1.2,1.2,3.3,2.3,5.8,2.3c2.6,0,4.2-0.9,4.2-2.8c0-2-1.7-2.6-4.9-3.4
		c-3.4-0.8-5.2-1.6-5.2-4.3c0-3,2.4-4.7,5.8-4.7c2.1,0,3.8,0.7,5.2,1.9L103.9,87.3z"/>
	<path fill="#FFFFFF" d="M120.7,92.5v-8.2h1.6v8.2c0,4.4-1.9,8.2-6.9,8.2c-5.2,0-6.9-4-6.9-8.2v-8.2h1.6v8.2c0,3.4,1.2,6.8,5.3,6.8
		C119.6,99.3,120.7,95.8,120.7,92.5z"/>
	<path fill="#FFFFFF" d="M141.1,100.6V87.2l-6,10.4h-0.9l-6-10.4v13.4h-1.6V84.3h1.6l6.4,11.2l6.4-11.2h1.6v16.3H141.1z"/>
	<path fill="#FFFFFF" d="M158.3,99.2v1.4h-11V84.3h10.8v1.4h-9.2v5.9h8v1.4h-8v6.2H158.3z"/>
	<path fill="#FFFFFF" d="M161.9,100.6V84.3h6.9c2.8,0,4.9,2.6,4.9,5.1c0,2.4-1.5,4.5-3.7,4.9l4,6.3h-1.8l-3.9-6h-4.8v6H161.9z
		 M163.5,93.1h5.4c1.9,0,3.2-1.8,3.2-3.7c0-2-1.5-3.7-3.3-3.7h-5.2V93.1z"/>
	<path fill="#FFFFFF" d="M31.7,128.2v-16.3h6.8c2.8,0,4.8,2.6,4.8,5.1c0,2.7-1.9,5.2-4.7,5.2h-5.3v6H31.7z M33.3,120.7h5.2
		c1.9,0,3.2-1.8,3.2-3.7c0-2-1.5-3.7-3.3-3.7h-5.1V120.7z"/>
	<path fill="#FFFFFF" d="M57.4,126.8v1.4h-11v-16.3h10.8v1.4H48v5.9h8v1.4h-8v6.2H57.4z"/>
	<path fill="#FFFFFF" d="M61,128.2v-16.3h6.9c2.8,0,4.9,2.6,4.9,5.1c0,2.4-1.5,4.5-3.7,4.9l4,6.3h-1.8l-3.9-6h-4.8v6H61z
		 M62.6,120.7h5.4c1.9,0,3.2-1.8,3.2-3.7c0-2-1.5-3.7-3.3-3.7h-5.2V120.7z"/>
	<path fill="#FFFFFF" d="M86.2,114.9c-0.9-1-2.5-1.7-4.5-1.7c-2.9,0-4.2,1.2-4.2,3c0,1.9,1.4,2.4,4.6,3.1c3.5,0.7,5.6,1.7,5.6,4.6
		c0,3-2.5,4.4-5.9,4.4c-2.6,0-4.8-0.8-6.6-2.4l0.8-1.3c1.2,1.2,3.3,2.3,5.8,2.3c2.6,0,4.2-0.9,4.2-2.8c0-2-1.7-2.6-4.9-3.4
		c-3.4-0.8-5.2-1.6-5.2-4.3c0-3,2.4-4.7,5.8-4.7c2.1,0,3.8,0.7,5.2,1.9L86.2,114.9z"/>
	<path fill="#FFFFFF" d="M91.1,128.2v-16.3h6.8c2.8,0,4.8,2.6,4.8,5.1c0,2.7-1.9,5.2-4.7,5.2h-5.3v6H91.1z M92.7,120.7H98
		c1.9,0,3.2-1.8,3.2-3.7c0-2-1.5-3.7-3.3-3.7h-5.1V120.7z"/>
	<path fill="#FFFFFF" d="M116.9,126.8v1.4h-11v-16.3h10.8v1.4h-9.2v5.9h8v1.4h-8v6.2H116.9z"/>
	<path fill="#FFFFFF" d="M127.1,111.8c2.9,0,5,1.5,6,3.6l-1.3,0.8c-1-2.2-3.1-2.9-4.8-2.9c-3.9,0-6,3.5-6,6.8c0,3.6,2.6,6.9,6.1,6.9
		c1.8,0,4-0.9,5-3l1.3,0.7c-1.1,2.4-4,3.8-6.5,3.8c-4.5,0-7.6-4.3-7.6-8.4C119.4,116,122.2,111.8,127.1,111.8z"/>
	<path fill="#FFFFFF" d="M148.2,113.3h-5.8v14.9h-1.6v-14.9h-5.8v-1.4h13.2V113.3z"/>
	<path fill="#FFFFFF" d="M151.2,128.2v-16.3h1.6v16.3H151.2z"/>
	<path fill="#FFFFFF" d="M157.2,111.9l5.8,14.3l5.8-14.3h1.7l-6.8,16.3h-1.4l-6.8-16.3H157.2z"/>
	<path fill="#FFFFFF" d="M184.3,126.8v1.4h-11v-16.3h10.8v1.4H175v5.9h8v1.4h-8v6.2H184.3z"/>
</g>
</svg>
