<?xml version="1.0" encoding="utf-8"?>
<!-- Generator: Adobe Illustrator 18.0.0, SVG Export Plug-In . SVG Version: 6.00 Build 0)  -->
<!DOCTYPE svg PUBLIC "-//W3C//DTD SVG 1.1//EN" "http://www.w3.org/Graphics/SVG/1.1/DTD/svg11.dtd">
<svg version="1.1" id="Layer_1" xmlns="http://www.w3.org/2000/svg" xmlns:xlink="http://www.w3.org/1999/xlink" x="0px" y="0px"
	 viewBox="0 0 215.4 216" enable-background="new 0 0 215.4 216" xml:space="preserve">
<path d="M108,216c59.6,0,108-48.4,108-108C216,48.4,167.6,0,108,0S0,48.4,0,108C0,167.6,48.4,216,108,216"/>
<g>
	<circle fill="none" cx="108" cy="108" r="99"/>
	<path fill="#FFFFFF" d="M66.1,28.2c1.9,0,3.3,1,3.9,2.3l-0.8,0.5c-0.7-1.4-2-1.9-3.2-1.9c-2.5,0-3.9,2.3-3.9,4.4
		c0,2.4,1.7,4.5,4,4.5c1.2,0,2.6-0.6,3.3-2l0.9,0.5C69.6,38.2,67.7,39,66,39c-2.9,0-5-2.8-5-5.5C61.1,31,62.9,28.2,66.1,28.2z"/>
	<path fill="#FFFFFF" d="M71.6,35.1c0-2.2,1.7-4.1,3.9-4.1c2.2,0,3.9,1.9,3.9,4.1c0,2.2-1.6,4-3.9,4C73.2,39.1,71.6,37.2,71.6,35.1z
		 M75.5,38.2c1.6,0,2.8-1.4,2.8-3.1c0-1.7-1.3-3.1-2.8-3.1c-1.6,0-2.8,1.4-2.8,3.2C72.6,36.8,73.9,38.2,75.5,38.2z"/>
	<path fill="#FFFFFF" d="M93,38.9h-1v-4.4c0-1.8-0.6-2.7-1.7-2.7c-1.2,0-2.2,0.9-2.6,2.2v4.8h-1v-4.4c0-1.8-0.6-2.7-1.7-2.7
		c-1.2,0-2.2,0.9-2.6,2.2v4.8h-1v-7.8h0.9v1.8c0.6-1.2,1.7-1.9,3-1.9c1.3,0,2.1,0.8,2.3,2c0.7-1.3,1.7-2,3-2c1.7,0,2.4,1.3,2.4,3.4
		V38.9z"/>
	<path fill="#FFFFFF" d="M107,38.9h-1v-4.4c0-1.8-0.6-2.7-1.7-2.7c-1.2,0-2.2,0.9-2.6,2.2v4.8h-1v-4.4c0-1.8-0.6-2.7-1.7-2.7
		c-1.2,0-2.2,0.9-2.6,2.2v4.8h-1v-7.8h0.9v1.8c0.6-1.2,1.7-1.9,3-1.9c1.3,0,2.1,0.8,2.3,2c0.7-1.3,1.7-2,3-2c1.7,0,2.4,1.3,2.4,3.4
		V38.9z"/>
	<path fill="#FFFFFF" d="M108.9,35c0-2.2,1.7-4,3.9-4c2.3,0,3.9,1.9,3.9,4c0,0.1,0,0.3,0,0.4H110c0.1,1.7,1.4,2.9,2.9,2.9
		c1,0,2-0.6,2.4-1.4l0.9,0.2c-0.5,1.1-1.8,1.9-3.3,1.9C110.6,39.1,108.9,37.2,108.9,35z M115.7,34.6c-0.1-1.7-1.4-2.8-2.9-2.8
		c-1.5,0-2.8,1.2-2.9,2.8H115.7z"/>
	<path fill="#FFFFFF" d="M122.4,32c-1.4,0-2.5,0.8-2.9,2.1v4.9h-1v-7.8h1V33c0.5-1.1,1.5-1.9,2.5-1.9c0.2,0,0.3,0,0.5,0V32z"/>
	<path fill="#FFFFFF" d="M127.5,31c1.5,0,2.6,0.7,3.2,1.9l-1,0.3c-0.4-0.8-1.3-1.3-2.2-1.3c-1.6,0-2.8,1.3-2.8,3.1
		c0,1.8,1.3,3.2,2.8,3.2c1,0,2-0.6,2.3-1.3l1,0.3c-0.4,1.1-1.7,1.9-3.2,1.9c-2.3,0-3.9-1.9-3.9-4.1C123.6,32.8,125.2,31,127.5,31z"
		/>
	<path fill="#FFFFFF" d="M132.1,35c0-2.2,1.7-4,3.9-4c2.3,0,3.9,1.9,3.9,4c0,0.1,0,0.3,0,0.4h-6.7c0.1,1.7,1.4,2.9,2.9,2.9
		c1,0,2-0.6,2.4-1.4l0.9,0.2c-0.5,1.1-1.8,1.9-3.3,1.9C133.8,39.1,132.1,37.2,132.1,35z M138.9,34.6c-0.1-1.7-1.4-2.8-2.9-2.8
		c-1.5,0-2.8,1.2-2.9,2.8H138.9z"/>
	<path fill="#FFFFFF" d="M145.9,29.5V28h1v1.5H145.9z M145.9,38.9v-7.8h1v7.8H145.9z"/>
	<path fill="#FFFFFF" d="M148.7,37.9l0.5-0.7c0.9,0.7,1.8,1.1,2.8,1.1c1.2,0,2.1-0.5,2.1-1.5c0-0.9-0.8-1.1-2.4-1.5
		c-1.8-0.4-2.6-0.8-2.6-2c0-1.6,1.3-2.4,2.9-2.4c1.2,0,2.2,0.4,2.8,1.1l-0.5,0.6c-0.6-0.6-1.5-0.9-2.4-0.9c-1.1,0-1.9,0.4-1.9,1.5
		c0,0.8,0.6,1,2,1.3c2,0.5,3,0.9,3,2.2c0,1.4-1.2,2.3-3,2.3C150.8,39.1,149.6,38.7,148.7,37.9z"/>
	<path fill="#FFFFFF" d="M42.2,54.1c0-2.2,1.5-4.1,3.6-4.1c1.3,0,2.4,0.8,3,1.8V47h1v9.6c0,0.3,0.1,0.4,0.4,0.4v0.9
		c-0.2,0-0.3,0-0.4,0c-0.5,0-0.9-0.3-0.9-0.7v-0.8c-0.6,1-1.8,1.7-2.9,1.7C43.8,58.1,42.2,56.2,42.2,54.1z M48.8,55.3v-2.4
		c-0.4-1.1-1.6-2-2.7-2c-1.7,0-2.8,1.6-2.8,3.2c0,1.7,1.3,3.1,2.9,3.1C47.2,57.2,48.6,56.3,48.8,55.3z"/>
	<path fill="#FFFFFF" d="M56.3,51c-1.4,0-2.5,0.8-2.9,2.1v4.9h-1v-7.8h1V52c0.5-1.1,1.5-1.9,2.5-1.9c0.2,0,0.3,0,0.5,0V51z"/>
	<path fill="#FFFFFF" d="M57.9,48.5V47h1v1.5H57.9z M57.9,57.9v-7.8h1v7.8H57.9z"/>
	<path fill="#FFFFFF" d="M63.8,57.9l-3.2-7.8h1.1l2.7,6.9l2.7-6.9h1l-3.2,7.8H63.8z"/>
	<path fill="#FFFFFF" d="M69.2,54c0-2.2,1.7-4,3.9-4c2.3,0,3.9,1.9,3.9,4c0,0.1,0,0.3,0,0.4h-6.7c0.1,1.7,1.4,2.9,2.9,2.9
		c1,0,2-0.6,2.4-1.4l0.9,0.2c-0.5,1.1-1.8,1.9-3.3,1.9C70.8,58.1,69.2,56.2,69.2,54z M76,53.6c-0.1-1.7-1.4-2.8-2.9-2.8
		c-1.5,0-2.8,1.2-2.9,2.8H76z"/>
	<path fill="#FFFFFF" d="M85.4,57.9h-1v-4.4c0-1.8-0.5-2.7-1.7-2.7c-1.2,0-2.5,0.9-2.9,2.2v4.8h-1v-7.8h0.9v1.8
		c0.6-1.1,1.9-1.9,3.3-1.9c1.8,0,2.3,1.3,2.3,3.4V57.9z"/>
	<path fill="#FFFFFF" d="M92.8,56.4v1.5h-0.9V47h1v4.8c0.7-1,1.7-1.8,3-1.8c2.2,0,3.5,2,3.5,4.1c0,2.2-1.6,4-3.7,4
		C94.5,58.1,93.4,57.4,92.8,56.4z M98.4,54.1c0-1.6-1.1-3.2-2.8-3.2c-1.2,0-2.2,0.9-2.7,2v2.4c0.2,1.1,1.5,1.9,2.6,1.9
		C97.2,57.2,98.4,55.7,98.4,54.1z"/>
	<path fill="#FFFFFF" d="M101.7,60.4c0.1,0,0.2,0,0.3,0c0.2,0,0.5,0,0.6-0.1c0.2-0.1,0.4-0.4,1.2-2.4l-3.4-7.8h1.1l2.9,6.9l2.7-6.9
		h1l-4.1,10.1c-0.3,0.7-0.8,1.1-1.7,1.1c-0.2,0-0.4,0-0.5,0V60.4z"/>
	<path fill="#FFFFFF" d="M112.9,54c0-2.2,1.7-4,3.9-4c2.3,0,3.9,1.9,3.9,4c0,0.1,0,0.3,0,0.4h-6.7c0.1,1.7,1.4,2.9,2.9,2.9
		c1,0,2-0.6,2.4-1.4l0.9,0.2c-0.5,1.1-1.8,1.9-3.3,1.9C114.5,58.1,112.9,56.2,112.9,54z M119.7,53.6c-0.1-1.7-1.4-2.8-2.9-2.8
		c-1.5,0-2.8,1.2-2.9,2.8H119.7z"/>
	<path fill="#FFFFFF" d="M134.1,57.9h-1v-4.4c0-1.8-0.6-2.7-1.7-2.7c-1.2,0-2.2,0.9-2.6,2.2v4.8h-1v-4.4c0-1.8-0.6-2.7-1.7-2.7
		c-1.2,0-2.2,0.9-2.6,2.2v4.8h-1v-7.8h0.9v1.8c0.6-1.2,1.7-1.9,3-1.9c1.3,0,2.1,0.8,2.3,2c0.7-1.3,1.7-2,3-2c1.7,0,2.4,1.3,2.4,3.4
		V57.9z"/>
	<path fill="#FFFFFF" d="M136,54.1c0-2.2,1.7-4.1,3.9-4.1c2.2,0,3.9,1.9,3.9,4.1c0,2.2-1.6,4-3.9,4C137.6,58.1,136,56.2,136,54.1z
		 M139.9,57.2c1.6,0,2.8-1.4,2.8-3.1c0-1.7-1.3-3.1-2.8-3.1c-1.6,0-2.8,1.4-2.8,3.2C137.1,55.8,138.3,57.2,139.9,57.2z"/>
	<path fill="#FFFFFF" d="M149.4,57.6c-0.2,0.1-0.9,0.5-1.8,0.5c-0.9,0-1.6-0.5-1.6-1.5v-5.6h-1.1v-0.8h1.1v-2.6h1v2.6h1.8v0.8H147
		v5.3c0,0.6,0.5,0.8,0.9,0.8c0.6,0,1.1-0.3,1.2-0.3L149.4,57.6z"/>
	<path fill="#FFFFFF" d="M150.9,48.5V47h1v1.5H150.9z M150.9,57.9v-7.8h1v7.8H150.9z"/>
	<path fill="#FFFFFF" d="M153.9,54.1c0-2.2,1.7-4.1,3.9-4.1c2.2,0,3.9,1.9,3.9,4.1c0,2.2-1.6,4-3.9,4
		C155.5,58.1,153.9,56.2,153.9,54.1z M157.8,57.2c1.6,0,2.8-1.4,2.8-3.1c0-1.7-1.3-3.1-2.8-3.1c-1.6,0-2.8,1.4-2.8,3.2
		C154.9,55.8,156.2,57.2,157.8,57.2z"/>
	<path fill="#FFFFFF" d="M170.2,57.9h-1v-4.4c0-1.8-0.5-2.7-1.7-2.7c-1.2,0-2.5,0.9-2.9,2.2v4.8h-1v-7.8h0.9v1.8
		c0.6-1.1,1.9-1.9,3.3-1.9c1.8,0,2.3,1.3,2.3,3.4V57.9z"/>
	<path fill="#FFFFFF" d="M172.5,57.9v-1.5h0.9v1.5H172.5z"/>
	<path fill="#FFFFFF" d="M31.7,66.4h1l1.5,3.8l1.5-3.8h1l-1.9,4.5l2,4.8l3.9-9.4h1.1l-4.5,10.6h-0.9l-2.2-5.3l-2.2,5.3H31l-4.5-10.6
		h1.1l3.9,9.4l2-4.8L31.7,66.4z"/>
	<path fill="#FFFFFF" d="M42.9,73c0-2.2,1.7-4,3.9-4c2.3,0,3.9,1.9,3.9,4c0,0.1,0,0.3,0,0.4H44c0.1,1.7,1.4,2.9,2.9,2.9
		c1,0,2-0.6,2.4-1.4l0.9,0.2c-0.5,1.1-1.8,1.9-3.3,1.9C44.6,77.1,42.9,75.2,42.9,73z M49.7,72.6c-0.1-1.7-1.4-2.8-2.9-2.8
		c-1.5,0-2.8,1.2-2.9,2.8H49.7z"/>
	<path fill="#FFFFFF" d="M57.1,76.9v-6.1H56V70h1.1v-1.1c0-1.9,0.9-3.1,2.3-3.1c0.6,0,1.2,0.2,1.6,0.5l-0.3,0.7
		c-0.3-0.2-0.7-0.3-1.1-0.3c-1,0-1.5,0.8-1.5,2.2V70h2.2v0.8h-2.2v6.1H57.1z"/>
	<path fill="#FFFFFF" d="M61.5,73.1c0-2.2,1.7-4.1,3.9-4.1c2.2,0,3.9,1.9,3.9,4.1c0,2.2-1.6,4-3.9,4C63.1,77.1,61.5,75.2,61.5,73.1z
		 M65.4,76.2c1.6,0,2.8-1.4,2.8-3.1c0-1.7-1.3-3.1-2.8-3.1c-1.6,0-2.8,1.4-2.8,3.2C62.6,74.8,63.8,76.2,65.4,76.2z"/>
	<path fill="#FFFFFF" d="M74.7,69c1.5,0,2.6,0.7,3.2,1.9l-1,0.3c-0.4-0.8-1.3-1.3-2.2-1.3c-1.6,0-2.8,1.3-2.8,3.1
		c0,1.8,1.3,3.2,2.8,3.2c1,0,2-0.6,2.3-1.3l1,0.3c-0.4,1.1-1.7,1.9-3.2,1.9c-2.3,0-3.9-1.9-3.9-4.1C70.8,70.8,72.4,69,74.7,69z"/>
	<path fill="#FFFFFF" d="M79.7,73.7v-4.6h1v4.4c0,1.8,0.6,2.7,1.8,2.7s2.4-0.8,2.8-2.1v-4.9h1v6.5c0,0.3,0.1,0.4,0.4,0.4v0.9
		c-0.2,0-0.3,0-0.4,0c-0.5,0-0.8-0.3-0.8-0.7v-1.1c-0.7,1.2-1.9,1.9-3.3,1.9C80.6,77.1,79.7,75.9,79.7,73.7z"/>
	<path fill="#FFFFFF" d="M88.4,75.9l0.5-0.7c0.9,0.7,1.8,1.1,2.8,1.1c1.2,0,2.1-0.5,2.1-1.5c0-0.9-0.8-1.1-2.4-1.5
		c-1.8-0.4-2.6-0.8-2.6-2c0-1.6,1.3-2.4,2.9-2.4c1.2,0,2.2,0.4,2.8,1.1L94,70.7c-0.6-0.6-1.5-0.9-2.4-0.9c-1.1,0-1.9,0.4-1.9,1.5
		c0,0.8,0.6,1,2,1.3c2,0.5,3,0.9,3,2.2c0,1.4-1.2,2.3-3,2.3C90.4,77.1,89.2,76.7,88.4,75.9z"/>
	<path fill="#FFFFFF" d="M104.5,76.6c-0.2,0.1-0.9,0.5-1.8,0.5c-0.9,0-1.6-0.5-1.6-1.5v-5.6H100v-0.8h1.1v-2.6h1v2.6h1.8v0.8h-1.8
		v5.3c0,0.6,0.5,0.8,0.9,0.8c0.6,0,1.1-0.3,1.2-0.3L104.5,76.6z"/>
	<path fill="#FFFFFF" d="M112.6,76.9h-1v-4.4c0-1.8-0.6-2.7-1.8-2.7c-1.2,0-2.4,1-2.7,2.2v4.8h-1V66h1v4.9c0.6-1.2,1.8-1.9,3.1-1.9
		c1.8,0,2.5,1.4,2.5,3.4V76.9z"/>
	<path fill="#FFFFFF" d="M114.5,73c0-2.2,1.7-4,3.9-4c2.3,0,3.9,1.9,3.9,4c0,0.1,0,0.3,0,0.4h-6.7c0.1,1.7,1.4,2.9,2.9,2.9
		c1,0,2-0.6,2.4-1.4l0.9,0.2c-0.5,1.1-1.8,1.9-3.3,1.9C116.2,77.1,114.5,75.2,114.5,73z M121.3,72.6c-0.1-1.7-1.4-2.8-2.9-2.8
		c-1.5,0-2.8,1.2-2.9,2.8H121.3z"/>
	<path fill="#FFFFFF" d="M127.8,73.1c0-2.2,1.5-4.1,3.6-4.1c1.3,0,2.4,0.8,3,1.8V66h1v9.6c0,0.3,0.1,0.4,0.4,0.4v0.9
		c-0.2,0-0.3,0-0.4,0c-0.5,0-0.9-0.3-0.9-0.7v-0.8c-0.6,1-1.8,1.7-2.9,1.7C129.3,77.1,127.8,75.2,127.8,73.1z M134.3,74.3v-2.4
		c-0.4-1.1-1.6-2-2.7-2c-1.7,0-2.8,1.6-2.8,3.2c0,1.7,1.3,3.1,2.9,3.1C132.8,76.2,134.1,75.3,134.3,74.3z"/>
	<path fill="#FFFFFF" d="M137.3,74.7c0-1.5,1.3-2.4,3.3-2.4c0.8,0,1.6,0.1,2.3,0.4V72c0-1.4-0.9-2.2-2.2-2.2c-0.8,0-1.7,0.3-2.5,0.9
		l-0.4-0.7c1-0.7,2-1,3-1c1.9,0,3.1,1.2,3.1,3.1v3.5c0,0.3,0.1,0.4,0.4,0.4v0.9c-0.2,0-0.3,0-0.4,0c-0.4,0-0.8-0.2-0.8-0.7l0-0.6
		c-0.7,0.9-1.9,1.5-3,1.5C138.4,77.1,137.3,76,137.3,74.7z M142.6,75.2c0.1-0.2,0.3-0.4,0.3-0.6v-1.3c-0.7-0.3-1.4-0.4-2.1-0.4
		c-1.5,0-2.5,0.6-2.5,1.7c0,0.8,0.6,1.7,2,1.7C141.1,76.3,142.1,75.9,142.6,75.2z"/>
	<path fill="#FFFFFF" d="M150.1,76.6c-0.2,0.1-0.9,0.5-1.8,0.5c-0.9,0-1.6-0.5-1.6-1.5v-5.6h-1.1v-0.8h1.1v-2.6h1v2.6h1.8v0.8h-1.8
		v5.3c0,0.6,0.5,0.8,0.9,0.8c0.6,0,1.1-0.3,1.2-0.3L150.1,76.6z"/>
	<path fill="#FFFFFF" d="M151,74.7c0-1.5,1.3-2.4,3.3-2.4c0.8,0,1.6,0.1,2.3,0.4V72c0-1.4-0.9-2.2-2.2-2.2c-0.8,0-1.7,0.3-2.5,0.9
		l-0.4-0.7c1-0.7,2-1,3-1c1.9,0,3.1,1.2,3.1,3.1v3.5c0,0.3,0.1,0.4,0.4,0.4v0.9c-0.2,0-0.3,0-0.4,0c-0.4,0-0.8-0.2-0.8-0.7l0-0.6
		c-0.7,0.9-1.9,1.5-3,1.5C152.1,77.1,151,76,151,74.7z M156.3,75.2c0.1-0.2,0.3-0.4,0.3-0.6v-1.3c-0.7-0.3-1.4-0.4-2.1-0.4
		c-1.5,0-2.5,0.6-2.5,1.7c0,0.8,0.6,1.7,2,1.7C154.8,76.3,155.8,75.9,156.3,75.2z"/>
	<path fill="#FFFFFF" d="M164.3,67.5V66h1v1.5H164.3z M164.3,76.9v-7.8h1v7.8H164.3z"/>
	<path fill="#FFFFFF" d="M174.4,76.9h-1v-4.4c0-1.8-0.5-2.7-1.7-2.7c-1.2,0-2.5,0.9-2.9,2.2v4.8h-1v-7.8h0.9v1.8
		c0.6-1.1,1.9-1.9,3.3-1.9c1.8,0,2.3,1.3,2.3,3.4V76.9z"/>
	<path fill="#FFFFFF" d="M180.5,76.6c-0.2,0.1-0.9,0.5-1.8,0.5c-0.9,0-1.6-0.5-1.6-1.5v-5.6H176v-0.8h1.1v-2.6h1v2.6h1.8v0.8h-1.8
		v5.3c0,0.6,0.5,0.8,0.9,0.8c0.6,0,1.1-0.3,1.2-0.3L180.5,76.6z"/>
	<path fill="#FFFFFF" d="M181.3,73.1c0-2.2,1.7-4.1,3.9-4.1c2.2,0,3.9,1.9,3.9,4.1c0,2.2-1.6,4-3.9,4
		C182.9,77.1,181.3,75.2,181.3,73.1z M185.2,76.2c1.6,0,2.8-1.4,2.8-3.1c0-1.7-1.3-3.1-2.8-3.1c-1.6,0-2.8,1.4-2.8,3.2
		C182.4,74.8,183.6,76.2,185.2,76.2z"/>
	<path fill="#FFFFFF" d="M35.8,88c1.5,0,2.6,0.7,3.2,1.9l-1,0.3c-0.4-0.8-1.3-1.3-2.2-1.3c-1.6,0-2.8,1.3-2.8,3.1
		c0,1.8,1.3,3.2,2.8,3.2c1,0,2-0.6,2.3-1.3l1,0.3c-0.4,1.1-1.7,1.9-3.2,1.9c-2.3,0-3.9-1.9-3.9-4.1C31.9,89.8,33.5,88,35.8,88z"/>
	<path fill="#FFFFFF" d="M41,85h1v9.2c0,0.6,0.3,0.9,0.9,0.9c0.2,0,0.6-0.1,0.8-0.2l0.2,0.8c-0.4,0.2-1,0.3-1.4,0.3
		c-0.9,0-1.5-0.6-1.5-1.5V85z"/>
	<path fill="#FFFFFF" d="M44.7,92c0-2.2,1.7-4,3.9-4c2.3,0,3.9,1.9,3.9,4c0,0.1,0,0.3,0,0.4h-6.7c0.1,1.7,1.4,2.9,2.9,2.9
		c1,0,2-0.6,2.4-1.4l0.9,0.2c-0.5,1.1-1.8,1.9-3.3,1.9C46.3,96.1,44.7,94.2,44.7,92z M51.5,91.6c-0.1-1.7-1.4-2.8-2.9-2.8
		c-1.5,0-2.8,1.2-2.9,2.8H51.5z"/>
	<path fill="#FFFFFF" d="M53.7,93.7c0-1.5,1.3-2.4,3.3-2.4c0.8,0,1.6,0.1,2.3,0.4V91c0-1.4-0.9-2.2-2.2-2.2c-0.8,0-1.7,0.3-2.5,0.9
		L54.2,89c1-0.7,2-1,3-1c1.9,0,3.1,1.2,3.1,3.1v3.5c0,0.3,0.1,0.4,0.4,0.4v0.9c-0.2,0-0.3,0-0.4,0c-0.4,0-0.8-0.2-0.8-0.7l0-0.6
		c-0.7,0.9-1.9,1.5-3,1.5C54.7,96.1,53.7,95,53.7,93.7z M59,94.2c0.1-0.2,0.3-0.4,0.3-0.6v-1.3c-0.7-0.3-1.4-0.4-2.1-0.4
		c-1.5,0-2.5,0.6-2.5,1.7c0,0.8,0.6,1.7,2,1.7C57.5,95.3,58.5,94.9,59,94.2z"/>
	<path fill="#FFFFFF" d="M66.7,89c-1.4,0-2.5,0.8-2.9,2.1v4.9h-1v-7.8h1V90c0.5-1.1,1.5-1.9,2.5-1.9c0.2,0,0.3,0,0.5,0V89z"/>
	<path fill="#FFFFFF" d="M78.7,95.9h-1v-4.4c0-1.8-0.6-2.7-1.8-2.7c-1.2,0-2.4,1-2.7,2.2v4.8h-1V85h1v4.9c0.6-1.2,1.8-1.9,3.1-1.9
		c1.8,0,2.5,1.4,2.5,3.4V95.9z"/>
	<path fill="#FFFFFF" d="M81.1,92.7v-4.6h1v4.4c0,1.8,0.6,2.7,1.8,2.7s2.4-0.8,2.8-2.1v-4.9h1v6.5c0,0.3,0.1,0.4,0.4,0.4v0.9
		c-0.2,0-0.3,0-0.4,0c-0.5,0-0.8-0.3-0.8-0.7v-1.1c-0.7,1.2-1.9,1.9-3.3,1.9C81.9,96.1,81.1,94.9,81.1,92.7z"/>
	<path fill="#FFFFFF" d="M102,95.9h-1v-4.4c0-1.8-0.6-2.7-1.7-2.7c-1.2,0-2.2,0.9-2.6,2.2v4.8h-1v-4.4c0-1.8-0.6-2.7-1.7-2.7
		c-1.2,0-2.2,0.9-2.6,2.2v4.8h-1v-7.8h0.9v1.8c0.6-1.2,1.7-1.9,3-1.9c1.3,0,2.1,0.8,2.3,2c0.7-1.3,1.7-2,3-2c1.7,0,2.4,1.3,2.4,3.4
		V95.9z"/>
	<path fill="#FFFFFF" d="M103.8,93.7c0-1.5,1.3-2.4,3.3-2.4c0.8,0,1.6,0.1,2.3,0.4V91c0-1.4-0.9-2.2-2.2-2.2c-0.8,0-1.7,0.3-2.5,0.9
		l-0.4-0.7c1-0.7,2-1,3-1c1.9,0,3.1,1.2,3.1,3.1v3.5c0,0.3,0.1,0.4,0.4,0.4v0.9c-0.2,0-0.3,0-0.4,0c-0.4,0-0.8-0.2-0.8-0.7l0-0.6
		c-0.7,0.9-1.9,1.5-3,1.5C104.9,96.1,103.8,95,103.8,93.7z M109.1,94.2c0.1-0.2,0.3-0.4,0.3-0.6v-1.3c-0.7-0.3-1.4-0.4-2.1-0.4
		c-1.5,0-2.5,0.6-2.5,1.7c0,0.8,0.6,1.7,2,1.7C107.6,95.3,108.6,94.9,109.1,94.2z"/>
	<path fill="#FFFFFF" d="M119.5,95.9h-1v-4.4c0-1.8-0.5-2.7-1.7-2.7c-1.2,0-2.5,0.9-2.9,2.2v4.8h-1v-7.8h0.9v1.8
		c0.6-1.1,1.9-1.9,3.3-1.9c1.8,0,2.3,1.3,2.3,3.4V95.9z"/>
	<path fill="#FFFFFF" d="M129.8,95.6c-0.2,0.1-0.9,0.5-1.8,0.5c-0.9,0-1.6-0.5-1.6-1.5v-5.6h-1.1v-0.8h1.1v-2.6h1v2.6h1.8v0.8h-1.8
		v5.3c0,0.6,0.5,0.8,0.9,0.8c0.6,0,1.1-0.3,1.2-0.3L129.8,95.6z"/>
	<path fill="#FFFFFF" d="M130.8,92c0-2.2,1.7-4,3.9-4c2.3,0,3.9,1.9,3.9,4c0,0.1,0,0.3,0,0.4h-6.7c0.1,1.7,1.4,2.9,2.9,2.9
		c1,0,2-0.6,2.4-1.4l0.9,0.2c-0.5,1.1-1.8,1.9-3.3,1.9C132.5,96.1,130.8,94.2,130.8,92z M137.6,91.6c-0.1-1.7-1.4-2.8-2.9-2.8
		c-1.5,0-2.8,1.2-2.9,2.8H137.6z"/>
	<path fill="#FFFFFF" d="M144.3,89c-1.4,0-2.5,0.8-2.9,2.1v4.9h-1v-7.8h1V90c0.5-1.1,1.5-1.9,2.5-1.9c0.2,0,0.3,0,0.5,0V89z"/>
	<path fill="#FFFFFF" d="M157.6,95.9h-1v-4.4c0-1.8-0.6-2.7-1.7-2.7c-1.2,0-2.2,0.9-2.6,2.2v4.8h-1v-4.4c0-1.8-0.6-2.7-1.7-2.7
		c-1.2,0-2.2,0.9-2.6,2.2v4.8h-1v-7.8h0.9v1.8c0.6-1.2,1.7-1.9,3-1.9c1.3,0,2.1,0.8,2.3,2c0.7-1.3,1.7-2,3-2c1.7,0,2.4,1.3,2.4,3.4
		V95.9z"/>
	<path fill="#FFFFFF" d="M159.4,94.9l0.5-0.7c0.9,0.7,1.8,1.1,2.8,1.1c1.2,0,2.1-0.5,2.1-1.5c0-0.9-0.8-1.1-2.4-1.5
		c-1.8-0.4-2.6-0.8-2.6-2c0-1.6,1.3-2.4,2.9-2.4c1.2,0,2.2,0.4,2.8,1.1l-0.5,0.6c-0.6-0.6-1.5-0.9-2.4-0.9c-1.1,0-1.9,0.4-1.9,1.5
		c0,0.8,0.6,1,2,1.3c2,0.5,3,0.9,3,2.2c0,1.4-1.2,2.3-3,2.3C161.5,96.1,160.2,95.7,159.4,94.9z"/>
	<path fill="#FFFFFF" d="M175.6,95.6c-0.2,0.1-0.9,0.5-1.8,0.5c-0.9,0-1.6-0.5-1.6-1.5v-5.6h-1.1v-0.8h1.1v-2.6h1v2.6h1.8v0.8h-1.8
		v5.3c0,0.6,0.5,0.8,0.9,0.8c0.6,0,1.1-0.3,1.2-0.3L175.6,95.6z"/>
	<path fill="#FFFFFF" d="M176.4,92.1c0-2.2,1.7-4.1,3.9-4.1c2.2,0,3.9,1.9,3.9,4.1c0,2.2-1.6,4-3.9,4
		C178,96.1,176.4,94.2,176.4,92.1z M180.3,95.2c1.6,0,2.8-1.4,2.8-3.1c0-1.7-1.3-3.1-2.8-3.1c-1.6,0-2.8,1.4-2.8,3.2
		C177.4,93.8,178.7,95.2,180.3,95.2z"/>
	<path fill="#FFFFFF" d="M48.8,108c-1.4,0-2.5,0.8-2.9,2.1v4.9h-1v-7.8h1v1.9c0.5-1.1,1.5-1.9,2.5-1.9c0.2,0,0.3,0,0.5,0V108z"/>
	<path fill="#FFFFFF" d="M49.9,111c0-2.2,1.7-4,3.9-4c2.3,0,3.9,1.9,3.9,4c0,0.1,0,0.3,0,0.4H51c0.1,1.7,1.4,2.9,2.9,2.9
		c1,0,2-0.6,2.4-1.4l0.9,0.2c-0.5,1.1-1.8,1.9-3.3,1.9C51.6,115.1,49.9,113.2,49.9,111z M56.7,110.6c-0.1-1.7-1.4-2.8-2.9-2.8
		c-1.5,0-2.8,1.2-2.9,2.8H56.7z"/>
	<path fill="#FFFFFF" d="M61.7,114.9l-3.2-7.8h1.1l2.7,6.9l2.7-6.9h1l-3.2,7.8H61.7z"/>
	<path fill="#FFFFFF" d="M67.1,111c0-2.2,1.7-4,3.9-4c2.3,0,3.9,1.9,3.9,4c0,0.1,0,0.3,0,0.4h-6.7c0.1,1.7,1.4,2.9,2.9,2.9
		c1,0,2-0.6,2.4-1.4l0.9,0.2c-0.5,1.1-1.8,1.9-3.3,1.9C68.7,115.1,67.1,113.2,67.1,111z M73.9,110.6c-0.1-1.7-1.4-2.8-2.9-2.8
		c-1.5,0-2.8,1.2-2.9,2.8H73.9z"/>
	<path fill="#FFFFFF" d="M76.1,112.7c0-1.5,1.4-2.4,3.3-2.4c0.8,0,1.6,0.1,2.3,0.4V110c0-1.4-0.9-2.2-2.2-2.2
		c-0.8,0-1.7,0.3-2.5,0.9l-0.4-0.7c1-0.7,2-1,3-1c1.9,0,3.1,1.2,3.1,3.1v3.5c0,0.3,0.1,0.4,0.4,0.4v0.9c-0.2,0-0.3,0-0.4,0
		c-0.4,0-0.8-0.2-0.8-0.7l0-0.6c-0.7,0.9-1.9,1.5-3,1.5C77.2,115.1,76.1,114,76.1,112.7z M81.4,113.2c0.1-0.2,0.3-0.4,0.3-0.6v-1.3
		c-0.7-0.3-1.4-0.4-2.1-0.4c-1.5,0-2.5,0.6-2.5,1.7c0,0.8,0.6,1.7,2,1.7C79.9,114.3,80.9,113.9,81.4,113.2z"/>
	<path fill="#FFFFFF" d="M85.3,104h1v9.2c0,0.6,0.3,0.9,0.9,0.9c0.2,0,0.6-0.1,0.8-0.2l0.2,0.8c-0.4,0.2-1,0.3-1.4,0.3
		c-0.9,0-1.5-0.6-1.5-1.5V104z"/>
	<path fill="#FFFFFF" d="M97,114.6c-0.2,0.1-0.9,0.5-1.8,0.5c-0.9,0-1.6-0.5-1.6-1.5v-5.6h-1.1v-0.8h1.1v-2.6h1v2.6h1.8v0.8h-1.8
		v5.3c0,0.6,0.5,0.8,0.9,0.8c0.6,0,1.1-0.3,1.2-0.3L97,114.6z"/>
	<path fill="#FFFFFF" d="M105,114.9h-1v-4.4c0-1.8-0.6-2.7-1.8-2.7c-1.2,0-2.4,1-2.7,2.2v4.8h-1V104h1v4.9c0.6-1.2,1.8-1.9,3.1-1.9
		c1.8,0,2.5,1.4,2.5,3.4V114.9z"/>
	<path fill="#FFFFFF" d="M106.9,111c0-2.2,1.7-4,3.9-4c2.3,0,3.9,1.9,3.9,4c0,0.1,0,0.3,0,0.4H108c0.1,1.7,1.4,2.9,2.9,2.9
		c1,0,2-0.6,2.4-1.4l0.9,0.2c-0.5,1.1-1.8,1.9-3.3,1.9C108.6,115.1,106.9,113.2,106.9,111z M113.8,110.6c-0.1-1.7-1.4-2.8-2.9-2.8
		c-1.5,0-2.8,1.2-2.9,2.8H113.8z"/>
	<path fill="#FFFFFF" d="M120.6,111.7v-4.6h1v4.4c0,1.8,0.6,2.7,1.8,2.7s2.4-0.8,2.8-2.1v-4.9h1v6.5c0,0.3,0.1,0.4,0.4,0.4v0.9
		c-0.2,0-0.3,0-0.4,0c-0.5,0-0.8-0.3-0.8-0.7v-1.1c-0.7,1.2-1.9,1.9-3.3,1.9C121.5,115.1,120.6,113.9,120.6,111.7z"/>
	<path fill="#FFFFFF" d="M136.5,114.9h-1v-4.4c0-1.8-0.5-2.7-1.7-2.7c-1.2,0-2.5,0.9-2.9,2.2v4.8h-1v-7.8h0.9v1.8
		c0.6-1.1,1.9-1.9,3.3-1.9c1.8,0,2.3,1.3,2.3,3.4V114.9z"/>
	<path fill="#FFFFFF" d="M138.9,105.5V104h1v1.5H138.9z M138.9,114.9v-7.8h1v7.8H138.9z"/>
	<path fill="#FFFFFF" d="M141.9,111c0-2.2,1.6-4,3.7-4c1.2,0,2.3,0.7,2.9,1.7v-1.5h0.9v9.6c0,0.3,0.1,0.4,0.4,0.4v0.9
		c-0.1,0-0.3,0-0.4,0c-0.5,0-0.9-0.4-0.9-0.9v-3.9c-0.8,1.2-1.8,1.8-3,1.8C143.3,115.1,141.9,113.2,141.9,111z M148.4,112.4v-2.4
		c-0.2-1.1-1.5-2-2.6-2c-1.7,0-2.9,1.6-2.9,3.2c0,1.7,1.2,3.1,2.8,3.1C147,114.2,147.9,113.4,148.4,112.4z"/>
	<path fill="#FFFFFF" d="M151.8,111.7v-4.6h1v4.4c0,1.8,0.6,2.7,1.8,2.7s2.4-0.8,2.8-2.1v-4.9h1v6.5c0,0.3,0.1,0.4,0.4,0.4v0.9
		c-0.2,0-0.3,0-0.4,0c-0.5,0-0.8-0.3-0.8-0.7v-1.1c-0.7,1.2-1.9,1.9-3.3,1.9C152.7,115.1,151.8,113.9,151.8,111.7z"/>
	<path fill="#FFFFFF" d="M160.6,111c0-2.2,1.7-4,3.9-4c2.3,0,3.9,1.9,3.9,4c0,0.1,0,0.3,0,0.4h-6.7c0.1,1.7,1.4,2.9,2.9,2.9
		c1,0,2-0.6,2.4-1.4l0.9,0.2c-0.5,1.1-1.8,1.9-3.3,1.9C162.3,115.1,160.6,113.2,160.6,111z M167.4,110.6c-0.1-1.7-1.4-2.8-2.9-2.8
		c-1.5,0-2.8,1.2-2.9,2.8H167.4z"/>
	<path fill="#FFFFFF" d="M170,115.2c0.1,0,0.3-0.1,0.3-0.3v-1.4h0.9v1.5c0,0.7-0.6,0.9-1.2,0.9V115.2z"/>
	<path fill="#FFFFFF" d="M38.3,126c1.5,0,2.6,0.7,3.2,1.9l-1,0.3c-0.4-0.8-1.3-1.3-2.2-1.3c-1.6,0-2.8,1.3-2.8,3.1
		c0,1.8,1.3,3.2,2.8,3.2c1,0,2-0.6,2.3-1.3l1,0.3c-0.4,1.1-1.7,1.9-3.2,1.9c-2.3,0-3.9-1.9-3.9-4.1C34.4,127.8,36,126,38.3,126z"/>
	<path fill="#FFFFFF" d="M42.8,130.1c0-2.2,1.7-4.1,3.9-4.1c2.2,0,3.9,1.9,3.9,4.1c0,2.2-1.6,4-3.9,4
		C44.4,134.1,42.8,132.2,42.8,130.1z M46.7,133.2c1.6,0,2.8-1.4,2.8-3.1c0-1.7-1.3-3.1-2.8-3.1c-1.6,0-2.8,1.4-2.8,3.2
		C43.9,131.8,45.1,133.2,46.7,133.2z"/>
	<path fill="#FFFFFF" d="M64.2,133.9h-1v-4.4c0-1.8-0.6-2.7-1.7-2.7c-1.2,0-2.2,0.9-2.6,2.2v4.8h-1v-4.4c0-1.8-0.6-2.7-1.7-2.7
		c-1.2,0-2.2,0.9-2.6,2.2v4.8h-1v-7.8h0.9v1.8c0.6-1.2,1.7-1.9,3-1.9c1.3,0,2.1,0.8,2.3,2c0.7-1.3,1.7-2,3-2c1.7,0,2.4,1.3,2.4,3.4
		V133.9z"/>
	<path fill="#FFFFFF" d="M67.6,132.3v4.8h-1v-11h0.9v1.5c0.6-1,1.7-1.6,2.9-1.6c2.2,0,3.7,2,3.7,4c0,2.2-1.4,4-3.5,4
		C69.3,134.1,68.2,133.3,67.6,132.3z M73.1,130c0-1.7-1.3-3.1-2.9-3.1c-1,0-2.4,0.9-2.6,1.9v2.4c0.5,1.1,1.5,2,2.7,2
		C72,133.2,73.1,131.6,73.1,130z"/>
	<path fill="#FFFFFF" d="M75.6,130c0-2.2,1.7-4,3.9-4c2.3,0,3.9,1.9,3.9,4c0,0.1,0,0.3,0,0.4h-6.7c0.1,1.7,1.4,2.9,2.9,2.9
		c1,0,2-0.6,2.4-1.4l0.9,0.2c-0.5,1.1-1.8,1.9-3.3,1.9C77.3,134.1,75.6,132.2,75.6,130z M82.4,129.6c-0.1-1.7-1.4-2.8-2.9-2.8
		c-1.5,0-2.8,1.2-2.9,2.8H82.4z"/>
	<path fill="#FFFFFF" d="M85.3,123h1v9.2c0,0.6,0.3,0.9,0.9,0.9c0.2,0,0.6-0.1,0.8-0.2l0.2,0.8c-0.4,0.2-1,0.3-1.4,0.3
		c-0.9,0-1.5-0.6-1.5-1.5V123z"/>
	<path fill="#FFFFFF" d="M89.5,123h1v9.2c0,0.6,0.3,0.9,0.9,0.9c0.2,0,0.6-0.1,0.8-0.2l0.2,0.8c-0.4,0.2-1,0.3-1.4,0.3
		c-0.9,0-1.5-0.6-1.5-1.5V123z"/>
	<path fill="#FFFFFF" d="M93.7,124.5V123h1v1.5H93.7z M93.7,133.9v-7.8h1v7.8H93.7z"/>
	<path fill="#FFFFFF" d="M103.8,133.9h-1v-4.4c0-1.8-0.5-2.7-1.7-2.7c-1.2,0-2.5,0.9-2.9,2.2v4.8h-1v-7.8h0.9v1.8
		c0.6-1.1,1.9-1.9,3.3-1.9c1.8,0,2.3,1.3,2.3,3.4V133.9z"/>
	<path fill="#FFFFFF" d="M105.7,130.1c0-2.2,1.5-4.1,3.6-4.1c1.3,0,2.3,0.8,3,1.8v-1.6h0.9v7.8c0,2.2-1.7,3.3-3.8,3.3
		c-1.8,0-2.8-0.7-3.5-1.8l0.6-0.5c0.6,1,1.7,1.5,2.9,1.5c1.5,0,2.8-0.8,2.8-2.5v-1.5c-0.6,1-1.7,1.6-2.9,1.6
		C107.2,134.1,105.7,132.1,105.7,130.1z M112.3,131.3v-2.4c-0.5-1.1-1.6-2-2.7-2c-1.7,0-2.8,1.6-2.8,3.2c0,1.7,1.3,3.1,2.9,3.1
		C110.9,133.2,112.1,132.2,112.3,131.3z"/>
	<path fill="#FFFFFF" d="M129.4,126.1h1l-3.3,7.8h-0.9l-1.7-4l-1.7,4H122l-3.3-7.8h1l2.9,6.8l1.5-3.6l-1.3-3.2h0.9l1,2.5l1-2.5h0.9
		l-1.3,3.2l1.5,3.6L129.4,126.1z"/>
	<path fill="#FFFFFF" d="M131.2,131.7c0-1.5,1.3-2.4,3.3-2.4c0.8,0,1.6,0.1,2.3,0.4V129c0-1.4-0.9-2.2-2.2-2.2
		c-0.8,0-1.7,0.3-2.5,0.9l-0.4-0.7c1-0.7,2-1,3-1c1.9,0,3.1,1.2,3.1,3.1v3.5c0,0.3,0.1,0.4,0.4,0.4v0.9c-0.2,0-0.3,0-0.4,0
		c-0.4,0-0.8-0.2-0.8-0.7l0-0.6c-0.7,0.9-1.9,1.5-3,1.5C132.3,134.1,131.2,133,131.2,131.7z M136.5,132.2c0.1-0.2,0.3-0.4,0.3-0.6
		v-1.3c-0.7-0.3-1.4-0.4-2.1-0.4c-1.5,0-2.5,0.6-2.5,1.7c0,0.8,0.6,1.7,2,1.7C135,133.3,136,132.9,136.5,132.2z"/>
	<path fill="#FFFFFF" d="M140.5,136.4c0.1,0,0.2,0,0.3,0c0.2,0,0.5,0,0.6-0.1c0.2-0.1,0.4-0.4,1.2-2.4l-3.4-7.8h1.1l2.9,6.9l2.7-6.9
		h1l-4.1,10.1c-0.3,0.7-0.8,1.1-1.7,1.1c-0.2,0-0.4,0-0.5,0V136.4z"/>
	<path fill="#FFFFFF" d="M152.3,136.4c0.1,0,0.2,0,0.3,0c0.2,0,0.5,0,0.6-0.1c0.2-0.1,0.4-0.4,1.2-2.4l-3.4-7.8h1.1l2.9,6.9l2.7-6.9
		h1l-4.1,10.1c-0.3,0.7-0.8,1.1-1.7,1.1c-0.2,0-0.4,0-0.5,0V136.4z"/>
	<path fill="#FFFFFF" d="M159.4,130.1c0-2.2,1.7-4.1,3.9-4.1c2.2,0,3.9,1.9,3.9,4.1c0,2.2-1.6,4-3.9,4
		C161.1,134.1,159.4,132.2,159.4,130.1z M163.3,133.2c1.6,0,2.8-1.4,2.8-3.1c0-1.7-1.3-3.1-2.8-3.1c-1.6,0-2.8,1.4-2.8,3.2
		C160.5,131.8,161.8,133.2,163.3,133.2z"/>
	<path fill="#FFFFFF" d="M169.1,130.7v-4.6h1v4.4c0,1.8,0.6,2.7,1.8,2.7s2.4-0.8,2.8-2.1v-4.9h1v6.5c0,0.3,0.1,0.4,0.4,0.4v0.9
		c-0.2,0-0.3,0-0.4,0c-0.5,0-0.8-0.3-0.8-0.7v-1.1c-0.7,1.2-1.9,1.9-3.3,1.9C170,134.1,169.1,132.9,169.1,130.7z"/>
	<path fill="#FFFFFF" d="M182.3,127c-1.4,0-2.5,0.8-2.9,2.1v4.9h-1v-7.8h1v1.9c0.5-1.1,1.5-1.9,2.5-1.9c0.2,0,0.3,0,0.5,0V127z"/>
	<path fill="#FFFFFF" d="M53.9,151.4v1.5H53V142h1v4.8c0.7-1,1.7-1.8,3-1.8c2.2,0,3.5,2,3.5,4.1c0,2.2-1.6,4-3.7,4
		C55.6,153.1,54.5,152.4,53.9,151.4z M59.5,149.1c0-1.6-1.1-3.2-2.8-3.2c-1.2,0-2.2,0.9-2.7,2v2.4c0.2,1.1,1.5,1.9,2.6,1.9
		C58.3,152.2,59.5,150.7,59.5,149.1z"/>
	<path fill="#FFFFFF" d="M66.5,146c-1.4,0-2.5,0.8-2.9,2.1v4.9h-1v-7.8h1v1.9c0.5-1.1,1.5-1.9,2.5-1.9c0.2,0,0.3,0,0.5,0V146z"/>
	<path fill="#FFFFFF" d="M67.4,150.7c0-1.5,1.3-2.4,3.3-2.4c0.8,0,1.6,0.1,2.3,0.4V148c0-1.4-0.9-2.2-2.2-2.2
		c-0.8,0-1.7,0.3-2.5,0.9l-0.4-0.7c1-0.7,2-1,3-1c1.9,0,3.1,1.2,3.1,3.1v3.5c0,0.3,0.1,0.4,0.4,0.4v0.9c-0.2,0-0.3,0-0.4,0
		c-0.4,0-0.8-0.2-0.8-0.7l0-0.6c-0.7,0.9-1.9,1.5-3,1.5C68.4,153.1,67.4,152,67.4,150.7z M72.7,151.2c0.1-0.2,0.3-0.4,0.3-0.6v-1.3
		c-0.7-0.3-1.4-0.4-2.1-0.4c-1.5,0-2.5,0.6-2.5,1.7c0,0.8,0.6,1.7,2,1.7C71.2,152.3,72.2,151.9,72.7,151.2z"/>
	<path fill="#FFFFFF" d="M83.1,152.9h-1v-4.4c0-1.8-0.5-2.7-1.7-2.7c-1.2,0-2.5,0.9-2.9,2.2v4.8h-1v-7.8h0.9v1.8
		c0.6-1.1,1.9-1.9,3.3-1.9c1.8,0,2.3,1.3,2.3,3.4V152.9z"/>
	<path fill="#FFFFFF" d="M85,149.1c0-2.2,1.5-4.1,3.6-4.1c1.3,0,2.4,0.8,3,1.8V142h1v9.6c0,0.3,0.1,0.4,0.4,0.4v0.9
		c-0.2,0-0.3,0-0.4,0c-0.5,0-0.9-0.3-0.9-0.7v-0.8c-0.6,1-1.8,1.7-2.9,1.7C86.5,153.1,85,151.2,85,149.1z M91.5,150.3v-2.4
		c-0.4-1.1-1.6-2-2.7-2c-1.7,0-2.8,1.6-2.8,3.2c0,1.7,1.3,3.1,2.9,3.1C90,152.2,91.3,151.3,91.5,150.3z"/>
	<path fill="#FFFFFF" d="M102.7,145c1.5,0,2.6,0.7,3.2,1.9l-1,0.3c-0.4-0.8-1.3-1.3-2.2-1.3c-1.6,0-2.8,1.3-2.8,3.1
		c0,1.8,1.3,3.2,2.8,3.2c1,0,2-0.6,2.3-1.3l1,0.3c-0.4,1.1-1.7,1.9-3.2,1.9c-2.3,0-3.9-1.9-3.9-4.1C98.8,146.8,100.4,145,102.7,145z
		"/>
	<path fill="#FFFFFF" d="M107.2,149.1c0-2.2,1.7-4.1,3.9-4.1c2.2,0,3.9,1.9,3.9,4.1c0,2.2-1.6,4-3.9,4
		C108.8,153.1,107.2,151.2,107.2,149.1z M111.1,152.2c1.6,0,2.8-1.4,2.8-3.1c0-1.7-1.3-3.1-2.8-3.1c-1.6,0-2.8,1.4-2.8,3.2
		C108.3,150.8,109.5,152.2,111.1,152.2z"/>
	<path fill="#FFFFFF" d="M123.5,152.9h-1v-4.4c0-1.8-0.5-2.7-1.7-2.7c-1.2,0-2.5,0.9-2.9,2.2v4.8h-1v-7.8h0.9v1.8
		c0.6-1.1,1.9-1.9,3.3-1.9c1.8,0,2.3,1.3,2.3,3.4V152.9z"/>
	<path fill="#FFFFFF" d="M132.5,152.9h-1v-4.4c0-1.8-0.5-2.7-1.7-2.7c-1.2,0-2.5,0.9-2.9,2.2v4.8h-1v-7.8h0.9v1.8
		c0.6-1.1,1.9-1.9,3.3-1.9c1.8,0,2.3,1.3,2.3,3.4V152.9z"/>
	<path fill="#FFFFFF" d="M134.4,149c0-2.2,1.7-4,3.9-4c2.3,0,3.9,1.9,3.9,4c0,0.1,0,0.3,0,0.4h-6.7c0.1,1.7,1.4,2.9,2.9,2.9
		c1,0,2-0.6,2.4-1.4l0.9,0.2c-0.5,1.1-1.8,1.9-3.3,1.9C136.1,153.1,134.4,151.2,134.4,149z M141.2,148.6c-0.1-1.7-1.4-2.8-2.9-2.8
		c-1.5,0-2.8,1.2-2.9,2.8H141.2z"/>
	<path fill="#FFFFFF" d="M147.4,145c1.5,0,2.6,0.7,3.2,1.9l-1,0.3c-0.4-0.8-1.3-1.3-2.2-1.3c-1.6,0-2.8,1.3-2.8,3.1
		c0,1.8,1.3,3.2,2.8,3.2c1,0,2-0.6,2.3-1.3l1,0.3c-0.4,1.1-1.7,1.9-3.2,1.9c-2.3,0-3.9-1.9-3.9-4.1C143.5,146.8,145.1,145,147.4,145
		z"/>
	<path fill="#FFFFFF" d="M156.4,152.6c-0.2,0.1-0.9,0.5-1.8,0.5c-0.9,0-1.6-0.5-1.6-1.5v-5.6h-1.1v-0.8h1.1v-2.6h1v2.6h1.8v0.8H154
		v5.3c0,0.6,0.5,0.8,0.9,0.8c0.6,0,1.1-0.3,1.2-0.3L156.4,152.6z"/>
	<path fill="#FFFFFF" d="M157.2,151.9l0.5-0.7c0.9,0.7,1.8,1.1,2.8,1.1c1.2,0,2.1-0.5,2.1-1.5c0-0.9-0.8-1.1-2.4-1.5
		c-1.8-0.4-2.6-0.8-2.6-2c0-1.6,1.3-2.4,2.9-2.4c1.2,0,2.2,0.4,2.8,1.1l-0.5,0.6c-0.6-0.6-1.5-0.9-2.4-0.9c-1.1,0-1.9,0.4-1.9,1.5
		c0,0.8,0.6,1,2,1.3c2,0.5,3,0.9,3,2.2c0,1.4-1.2,2.3-3,2.3C159.3,153.1,158,152.7,157.2,151.9z"/>
	<path fill="#FFFFFF" d="M74.5,174.1c-0.7-0.8-1.9-1.3-3.3-1.3c-2.1,0-3.1,0.9-3.1,2.2c0,1.4,1,1.8,3.4,2.3c2.6,0.5,4.2,1.2,4.2,3.4
		c0,2.2-1.8,3.3-4.3,3.3c-1.9,0-3.5-0.6-4.8-1.8l0.6-1c0.9,0.9,2.4,1.7,4.3,1.7c1.9,0,3.1-0.7,3.1-2.1c0-1.5-1.2-2-3.7-2.5
		c-2.5-0.6-3.8-1.2-3.8-3.1c0-2.2,1.8-3.5,4.3-3.5c1.6,0,2.8,0.5,3.8,1.4L74.5,174.1z"/>
	<path fill="#FFFFFF" d="M87.6,171.9v12.1h-1.2v-5.6h-7.2v5.6h-1.2v-12.1h1.2v5.4h7.2v-5.4H87.6z"/>
	<path fill="#FFFFFF" d="M90.3,177.9c0-3.2,2.4-6.1,5.7-6.1c3.4,0,5.6,3.1,5.6,6.1c0,3.2-2.4,6.1-5.7,6.1
		C92.6,184,90.3,181,90.3,177.9z M95.9,183c2.7,0,4.5-2.6,4.5-5c0-2.6-1.9-5-4.5-5c-2.7,0-4.5,2.5-4.5,5
		C91.4,180.5,93.3,183,95.9,183z"/>
	<path fill="#FFFFFF" d="M108.3,172h1.1l1.7,4.3l1.7-4.3h1.1l-2.1,5.2l2.3,5.5l4.4-10.7h1.3l-5.1,12.1h-1.1l-2.5-6l-2.5,6h-1.1
		l-5.1-12.1h1.3l4.4,10.7l2.3-5.5L108.3,172z"/>
	<path fill="#FFFFFF" d="M136.7,183.9V174l-4.4,7.7h-0.7l-4.4-7.7v9.9H126v-12.1h1.2l4.7,8.3l4.7-8.3h1.2v12.1H136.7z"/>
	<path fill="#FFFFFF" d="M149.4,182.9v1.1h-8.1v-12.1h8v1.1h-6.8v4.4h5.9v1h-5.9v4.6H149.4z"/>
</g>
</svg>
