<?xml version="1.0" encoding="utf-8"?>
<!-- Generator: Adobe Illustrator 17.1.0, SVG Export Plug-In . SVG Version: 6.00 Build 0)  -->
<!DOCTYPE svg PUBLIC "-//W3C//DTD SVG 1.1//EN" "http://www.w3.org/Graphics/SVG/1.1/DTD/svg11.dtd">
<svg version="1.1" id="Layer_1" xmlns="http://www.w3.org/2000/svg" xmlns:xlink="http://www.w3.org/1999/xlink" x="0px" y="0px"
	 viewBox="0 0 817.7 285.8" enable-background="new 0 0 817.7 285.8" xml:space="preserve">
<g>
	<defs>
		<rect id="SVGID_1_" x="-4.3" y="0" width="828.7" height="285.8"/>
	</defs>
	<clipPath id="SVGID_2_">
		<use xlink:href="#SVGID_1_"  overflow="visible"/>
	</clipPath>
	<path clip-path="url(#SVGID_2_)" fill="#F26531" d="M109.2,216c59.6,0,108-48.4,108-108c0-59.6-48.4-108-108-108S1.2,48.4,1.2,108
		C1.2,167.6,49.6,216,109.2,216"/>
</g>
<text transform="matrix(1 0 0 1 70.1901 100.5995)"><tspan x="0" y="0" fill="#FFFFFF" font-family="'MyriadPro-Regular'" font-size="24" letter-spacing="1">CLIEN</tspan><tspan x="67" y="0" fill="#FFFFFF" font-family="'MyriadPro-Regular'" font-size="24">T</tspan></text>
<text transform="matrix(1 0 0 1 149.3425 100.5995)" fill="#FFFFFF" font-family="'MyriadPro-Regular'" font-size="24"> </text>
<text transform="matrix(1 0 0 1 35.5822 128.6074)"><tspan x="0" y="0" fill="#FFFFFF" font-family="'MyriadPro-Regular'" font-size="24" letter-spacing="1">PERS</tspan><tspan x="56" y="0" fill="#FFFFFF" font-family="'MyriadPro-Regular'" font-size="24" letter-spacing="1">P</tspan><tspan x="70.5" y="0" fill="#FFFFFF" font-family="'MyriadPro-Regular'" font-size="24" letter-spacing="1">E</tspan><tspan x="84" y="0" fill="#FFFFFF" font-family="'MyriadPro-Regular'" font-size="24" letter-spacing="2">C</tspan><tspan x="100.2" y="0" fill="#FFFFFF" font-family="'MyriadPro-Regular'" font-size="24" letter-spacing="1">TI</tspan><tspan x="121.2" y="0" fill="#FFFFFF" font-family="'MyriadPro-Regular'" font-size="24" letter-spacing="1">V</tspan><tspan x="136.3" y="0" fill="#FFFFFF" font-family="'MyriadPro-Regular'" font-size="24">E</tspan></text>
<g>
	<defs>
		<rect id="SVGID_3_" x="-4.3" y="0" width="828.7" height="285.8"/>
	</defs>
	<clipPath id="SVGID_4_">
		<use xlink:href="#SVGID_3_"  overflow="visible"/>
	</clipPath>
	<path clip-path="url(#SVGID_4_)" fill="#EF4066" d="M410.2,216c59.6,0,108-48.4,108-108c0-59.6-48.4-108-108-108s-108,48.4-108,108
		C302.2,167.6,350.5,216,410.2,216"/>
</g>
<text transform="matrix(1 0 0 1 371.8908 100.5995)"><tspan x="0" y="0" fill="#FFFFFF" font-family="'MyriadPro-Regular'" font-size="24" letter-spacing="1">R</tspan><tspan x="14.6" y="0" fill="#FFFFFF" font-family="'MyriadPro-Regular'" font-size="24" letter-spacing="2">E</tspan><tspan x="28.4" y="0" fill="#FFFFFF" font-family="'MyriadPro-Regular'" font-size="24">T</tspan><tspan x="40.2" y="0" fill="#FFFFFF" font-family="'MyriadPro-Regular'" font-size="24" letter-spacing="1">AI</tspan><tspan x="64" y="0" fill="#FFFFFF" font-family="'MyriadPro-Regular'" font-size="24">L</tspan></text>
<text transform="matrix(1 0 0 1 447.5148 100.5995)" fill="#FFFFFF" font-family="'MyriadPro-Regular'" font-size="24"> </text>
<text transform="matrix(1 0 0 1 335.507 128.6074)"><tspan x="0" y="0" fill="#FFFFFF" font-family="'MyriadPro-Regular'" font-size="24" letter-spacing="1">P</tspan><tspan x="14.4" y="0" fill="#FFFFFF" font-family="'MyriadPro-Regular'" font-size="24" letter-spacing="1">E</tspan><tspan x="27.9" y="0" fill="#FFFFFF" font-family="'MyriadPro-Regular'" font-size="24" letter-spacing="1">RSP</tspan><tspan x="70.4" y="0" fill="#FFFFFF" font-family="'MyriadPro-Regular'" font-size="24" letter-spacing="1">E</tspan><tspan x="83.9" y="0" fill="#FFFFFF" font-family="'MyriadPro-Regular'" font-size="24" letter-spacing="2">C</tspan><tspan x="100.1" y="0" fill="#FFFFFF" font-family="'MyriadPro-Regular'" font-size="24" letter-spacing="1">T</tspan><tspan x="113.7" y="0" fill="#FFFFFF" font-family="'MyriadPro-Regular'" font-size="24" letter-spacing="1">I</tspan><tspan x="121.1" y="0" fill="#FFFFFF" font-family="'MyriadPro-Regular'" font-size="24" letter-spacing="1">V</tspan><tspan x="136.2" y="0" fill="#FFFFFF" font-family="'MyriadPro-Regular'" font-size="24">E</tspan></text>
<g>
	<defs>
		<rect id="SVGID_5_" x="-4.3" y="0" width="828.7" height="285.8"/>
	</defs>
	<clipPath id="SVGID_6_">
		<use xlink:href="#SVGID_5_"  overflow="visible"/>
	</clipPath>
	<path clip-path="url(#SVGID_6_)" fill="#FCB52B" d="M710,216c59.6,0,108-48.4,108-108C818,48.4,769.6,0,710,0
		c-59.6,0-108,48.4-108,108C602,167.6,650.3,216,710,216"/>
</g>
<text transform="matrix(1 0 0 1 645.944 100.5995)"><tspan x="0" y="0" fill="#FFFFFF" font-family="'MyriadPro-Regular'" font-size="24" letter-spacing="1">C</tspan><tspan x="15.1" y="0" fill="#FFFFFF" font-family="'MyriadPro-Regular'" font-size="24" letter-spacing="1">O</tspan><tspan x="33.3" y="0" fill="#FFFFFF" font-family="'MyriadPro-Regular'" font-size="24" letter-spacing="1">N</tspan><tspan x="50.8" y="0" fill="#FFFFFF" font-family="'MyriadPro-Regular'" font-size="24" letter-spacing="1">S</tspan><tspan x="64.2" y="0" fill="#FFFFFF" font-family="'MyriadPro-Regular'" font-size="24" letter-spacing="1">UME</tspan><tspan x="115.9" y="0" fill="#FFFFFF" font-family="'MyriadPro-Regular'" font-size="24">R</tspan><tspan x="129.1" y="0" fill="#FFFFFF" font-family="'MyriadPro-Regular'" font-size="24"> </tspan></text>
<text transform="matrix(1 0 0 1 636.32 128.6074)"><tspan x="0" y="0" fill="#FFFFFF" font-family="'MyriadPro-Regular'" font-size="24" letter-spacing="1">P</tspan><tspan x="14.4" y="0" fill="#FFFFFF" font-family="'MyriadPro-Regular'" font-size="24" letter-spacing="1">E</tspan><tspan x="27.9" y="0" fill="#FFFFFF" font-family="'MyriadPro-Regular'" font-size="24" letter-spacing="1">R</tspan><tspan x="42.5" y="0" fill="#FFFFFF" font-family="'MyriadPro-Regular'" font-size="24" letter-spacing="1">S</tspan><tspan x="56" y="0" fill="#FFFFFF" font-family="'MyriadPro-Regular'" font-size="24" letter-spacing="1">P</tspan><tspan x="70.4" y="0" fill="#FFFFFF" font-family="'MyriadPro-Regular'" font-size="24" letter-spacing="1">E</tspan><tspan x="83.9" y="0" fill="#FFFFFF" font-family="'MyriadPro-Regular'" font-size="24" letter-spacing="2">C</tspan><tspan x="100.2" y="0" fill="#FFFFFF" font-family="'MyriadPro-Regular'" font-size="24" letter-spacing="1">TIV</tspan><tspan x="136.2" y="0" fill="#FFFFFF" font-family="'MyriadPro-Regular'" font-size="24">E</tspan></text>
<polyline fill="none" stroke="#BCBEC0" points="109.7,216 109.7,250.9 709.5,250.9 709.5,216 "/>
<line fill="none" stroke="#BCBEC0" x1="409.6" y1="280.4" x2="409.6" y2="216.3"/>
<g>
	<defs>
		<rect id="SVGID_7_" x="-4.3" y="0" width="828.7" height="285.8"/>
	</defs>
	<clipPath id="SVGID_8_">
		<use xlink:href="#SVGID_7_"  overflow="visible"/>
	</clipPath>
	<path clip-path="url(#SVGID_8_)" fill="#BCBEC0" d="M409.6,285.8l2.6-7c0,0-2.6,1.5-5.1,0L409.6,285.8"/>
</g>
</svg>
