<?xml version="1.0" encoding="utf-8"?>
<!-- Generator: Adobe Illustrator 18.1.0, SVG Export Plug-In . SVG Version: 6.00 Build 0)  -->
<!DOCTYPE svg PUBLIC "-//W3C//DTD SVG 1.1//EN" "http://www.w3.org/Graphics/SVG/1.1/DTD/svg11.dtd">
<svg version="1.1" id="Layer_1" xmlns="http://www.w3.org/2000/svg" xmlns:xlink="http://www.w3.org/1999/xlink" x="0px" y="0px"
	 viewBox="0 0 216 216" enable-background="new 0 0 216 216" xml:space="preserve">
<path d="M108,216c59.6,0,108-48.4,108-108C216,48.4,167.6,0,108,0S0,48.4,0,108C0,167.6,48.4,216,108,216"/>
<g>
	<circle fill="none" cx="108" cy="110" r="99"/>
	<path fill="#FFFFFF" d="M86.7,31.2h-3.8v9.7h-1v-9.7h-3.8v-0.9h8.6V31.2z"/>
	<path fill="#FFFFFF" d="M95,40.9h-1v-4.4c0-1.8-0.6-2.7-1.8-2.7c-1.2,0-2.4,1-2.7,2.2v4.8h-1V30h1v4.9c0.6-1.2,1.8-1.9,3.1-1.9
		c1.8,0,2.5,1.4,2.5,3.4V40.9z"/>
	<path fill="#FFFFFF" d="M101.3,34c-1.4,0-2.5,0.8-2.9,2.1v4.9h-1v-7.8h1V35c0.5-1.1,1.5-1.9,2.5-1.9c0.2,0,0.3,0,0.5,0V34z"/>
	<path fill="#FFFFFF" d="M102.1,37.1c0-2.2,1.7-4.1,3.9-4.1c2.2,0,3.9,1.9,3.9,4.1c0,2.2-1.6,4-3.9,4
		C103.7,41.1,102.1,39.2,102.1,37.1z M106,40.2c1.6,0,2.8-1.4,2.8-3.1c0-1.7-1.3-3.1-2.8-3.1c-1.6,0-2.8,1.4-2.8,3.2
		C103.2,38.8,104.4,40.2,106,40.2z"/>
	<path fill="#FFFFFF" d="M111.8,37.7v-4.6h1v4.4c0,1.8,0.6,2.7,1.8,2.7s2.4-0.8,2.8-2.1v-4.9h1v6.5c0,0.3,0.1,0.4,0.4,0.4v0.9
		c-0.2,0-0.3,0-0.4,0c-0.5,0-0.8-0.3-0.8-0.7v-1.1c-0.7,1.2-1.9,1.9-3.3,1.9C112.6,41.1,111.8,39.9,111.8,37.7z"/>
	<path fill="#FFFFFF" d="M120.6,37.1c0-2.2,1.5-4.1,3.6-4.1c1.3,0,2.3,0.8,3,1.8v-1.6h0.9V41c0,2.2-1.7,3.3-3.8,3.3
		c-1.8,0-2.8-0.7-3.5-1.8l0.6-0.5c0.6,1,1.7,1.5,2.9,1.5c1.5,0,2.8-0.8,2.8-2.5v-1.5c-0.6,1-1.7,1.6-2.9,1.6
		C122.1,41.1,120.6,39.1,120.6,37.1z M127.1,38.3v-2.4c-0.5-1.1-1.6-2-2.7-2c-1.7,0-2.8,1.6-2.8,3.2c0,1.7,1.3,3.1,2.9,3.1
		C125.7,40.2,126.9,39.2,127.1,38.3z"/>
	<path fill="#FFFFFF" d="M137.2,40.9h-1v-4.4c0-1.8-0.6-2.7-1.8-2.7c-1.2,0-2.4,1-2.7,2.2v4.8h-1V30h1v4.9c0.6-1.2,1.8-1.9,3.1-1.9
		c1.8,0,2.5,1.4,2.5,3.4V40.9z"/>
	<path fill="#FFFFFF" d="M35.6,53c-1.4,0-2.5,0.8-2.9,2.1v4.9h-1v-7.8h1V54c0.5-1.1,1.5-1.9,2.5-1.9c0.2,0,0.3,0,0.5,0V53z"/>
	<path fill="#FFFFFF" d="M36.8,56c0-2.2,1.7-4,3.9-4c2.3,0,3.9,1.9,3.9,4c0,0.1,0,0.3,0,0.4h-6.7c0.1,1.7,1.4,2.9,2.9,2.9
		c1,0,2-0.6,2.4-1.4l0.9,0.2c-0.5,1.1-1.8,1.9-3.3,1.9C38.4,60.1,36.8,58.2,36.8,56z M43.6,55.6c-0.1-1.7-1.4-2.8-2.9-2.8
		c-1.5,0-2.8,1.2-2.9,2.8H43.6z"/>
	<path fill="#FFFFFF" d="M45.7,58.9l0.5-0.7c0.9,0.7,1.8,1.1,2.8,1.1c1.2,0,2.1-0.5,2.1-1.5c0-0.9-0.8-1.1-2.4-1.5
		c-1.8-0.4-2.6-0.8-2.6-2c0-1.6,1.3-2.4,2.9-2.4c1.2,0,2.2,0.4,2.8,1.1l-0.5,0.6c-0.6-0.6-1.5-0.9-2.4-0.9c-1.1,0-1.9,0.4-1.9,1.5
		c0,0.8,0.6,1,2,1.3c2,0.5,3,0.9,3,2.2c0,1.4-1.2,2.3-3,2.3C47.8,60.1,46.6,59.7,45.7,58.9z"/>
	<path fill="#FFFFFF" d="M53.5,56c0-2.2,1.7-4,3.9-4c2.3,0,3.9,1.9,3.9,4c0,0.1,0,0.3,0,0.4h-6.7c0.1,1.7,1.4,2.9,2.9,2.9
		c1,0,2-0.6,2.4-1.4l0.9,0.2c-0.5,1.1-1.8,1.9-3.3,1.9C55.2,60.1,53.5,58.2,53.5,56z M60.3,55.6c-0.1-1.7-1.4-2.8-2.9-2.8
		c-1.5,0-2.8,1.2-2.9,2.8H60.3z"/>
	<path fill="#FFFFFF" d="M62.5,57.7c0-1.5,1.4-2.4,3.3-2.4c0.8,0,1.6,0.1,2.3,0.4V55c0-1.4-0.9-2.2-2.2-2.2c-0.8,0-1.7,0.3-2.5,0.9
		L63,53c1-0.7,2-1,3-1c1.9,0,3.1,1.2,3.1,3.1v3.5c0,0.3,0.1,0.4,0.4,0.4v0.9c-0.2,0-0.3,0-0.4,0c-0.4,0-0.8-0.2-0.8-0.7l0-0.6
		c-0.7,0.9-1.9,1.5-3,1.5C63.6,60.1,62.5,59,62.5,57.7z M67.8,58.2c0.1-0.2,0.3-0.4,0.3-0.6v-1.3C67.4,56.1,66.7,56,66,56
		c-1.5,0-2.5,0.6-2.5,1.7c0,0.8,0.6,1.7,2,1.7C66.3,59.3,67.3,58.9,67.8,58.2z"/>
	<path fill="#FFFFFF" d="M75.5,53c-1.4,0-2.5,0.8-2.9,2.1v4.9h-1v-7.8h1V54c0.5-1.1,1.5-1.9,2.5-1.9c0.2,0,0.3,0,0.5,0V53z"/>
	<path fill="#FFFFFF" d="M80.6,52c1.5,0,2.6,0.7,3.2,1.9l-1,0.3c-0.4-0.8-1.3-1.3-2.2-1.3c-1.6,0-2.8,1.3-2.8,3.1
		c0,1.8,1.3,3.2,2.8,3.2c1,0,2-0.6,2.3-1.3l1,0.3c-0.4,1.1-1.7,1.9-3.2,1.9c-2.3,0-3.9-1.9-3.9-4.1C76.7,53.8,78.3,52,80.6,52z"/>
	<path fill="#FFFFFF" d="M92.3,59.9h-1v-4.4c0-1.8-0.6-2.7-1.8-2.7c-1.2,0-2.4,1-2.7,2.2v4.8h-1V49h1v4.9c0.6-1.2,1.8-1.9,3.1-1.9
		c1.8,0,2.5,1.4,2.5,3.4V59.9z"/>
	<path fill="#FFFFFF" d="M94.5,60.2c0.1,0,0.3-0.1,0.3-0.3v-1.4h0.9V60c0,0.7-0.6,0.9-1.2,0.9V60.2z"/>
	<path fill="#FFFFFF" d="M101.7,56.1c0-2.2,1.7-4.1,3.9-4.1c2.2,0,3.9,1.9,3.9,4.1c0,2.2-1.6,4-3.9,4
		C103.3,60.1,101.7,58.2,101.7,56.1z M105.6,59.2c1.6,0,2.8-1.4,2.8-3.1c0-1.7-1.3-3.1-2.8-3.1c-1.6,0-2.8,1.4-2.8,3.2
		C102.8,57.8,104.1,59.2,105.6,59.2z"/>
	<path fill="#FFFFFF" d="M112.4,58.4v1.5h-0.9V49h1v4.8c0.7-1,1.7-1.8,3-1.8c2.2,0,3.5,2,3.5,4.1c0,2.2-1.6,4-3.7,4
		C114.1,60.1,113,59.4,112.4,58.4z M118,56.1c0-1.6-1.1-3.2-2.8-3.2c-1.2,0-2.2,0.9-2.7,2v2.4c0.2,1.1,1.5,1.9,2.6,1.9
		C116.8,59.2,118,57.7,118,56.1z"/>
	<path fill="#FFFFFF" d="M120.3,58.9l0.5-0.7c0.9,0.7,1.8,1.1,2.8,1.1c1.2,0,2.1-0.5,2.1-1.5c0-0.9-0.8-1.1-2.4-1.5
		c-1.8-0.4-2.6-0.8-2.6-2c0-1.6,1.3-2.4,2.9-2.4c1.2,0,2.2,0.4,2.8,1.1l-0.5,0.6c-0.6-0.6-1.5-0.9-2.4-0.9c-1.1,0-1.9,0.4-1.9,1.5
		c0,0.8,0.6,1,2,1.3c2,0.5,3,0.9,3,2.2c0,1.4-1.2,2.3-3,2.3C122.4,60.1,121.2,59.7,120.3,58.9z"/>
	<path fill="#FFFFFF" d="M128.1,56c0-2.2,1.7-4,3.9-4c2.3,0,3.9,1.9,3.9,4c0,0.1,0,0.3,0,0.4h-6.7c0.1,1.7,1.4,2.9,2.9,2.9
		c1,0,2-0.6,2.4-1.4l0.9,0.2c-0.5,1.1-1.8,1.9-3.3,1.9C129.7,60.1,128.1,58.2,128.1,56z M134.9,55.6c-0.1-1.7-1.4-2.8-2.9-2.8
		c-1.5,0-2.8,1.2-2.9,2.8H134.9z"/>
	<path fill="#FFFFFF" d="M141.6,53c-1.4,0-2.5,0.8-2.9,2.1v4.9h-1v-7.8h1V54c0.5-1.1,1.5-1.9,2.5-1.9c0.2,0,0.3,0,0.5,0V53z"/>
	<path fill="#FFFFFF" d="M145.6,59.9l-3.2-7.8h1.1l2.7,6.9l2.7-6.9h1l-3.2,7.8H145.6z"/>
	<path fill="#FFFFFF" d="M150.7,57.7c0-1.5,1.4-2.4,3.3-2.4c0.8,0,1.6,0.1,2.3,0.4V55c0-1.4-0.9-2.2-2.2-2.2c-0.8,0-1.7,0.3-2.5,0.9
		l-0.4-0.7c1-0.7,2-1,3-1c1.9,0,3.1,1.2,3.1,3.1v3.5c0,0.3,0.1,0.4,0.4,0.4v0.9c-0.2,0-0.3,0-0.4,0c-0.4,0-0.8-0.2-0.8-0.7l0-0.6
		c-0.7,0.9-1.9,1.5-3,1.5C151.8,60.1,150.7,59,150.7,57.7z M156.1,58.2c0.1-0.2,0.3-0.4,0.3-0.6v-1.3c-0.7-0.3-1.4-0.4-2.1-0.4
		c-1.5,0-2.5,0.6-2.5,1.7c0,0.8,0.6,1.7,2,1.7C154.6,59.3,155.5,58.9,156.1,58.2z"/>
	<path fill="#FFFFFF" d="M163.5,59.6c-0.2,0.1-0.9,0.5-1.8,0.5c-0.9,0-1.6-0.5-1.6-1.5v-5.6H159v-0.8h1.1v-2.6h1v2.6h1.8v0.8h-1.8
		v5.3c0,0.6,0.5,0.8,0.9,0.8c0.6,0,1.1-0.3,1.2-0.3L163.5,59.6z"/>
	<path fill="#FFFFFF" d="M165,50.5V49h1v1.5H165z M165,59.9v-7.8h1v7.8H165z"/>
	<path fill="#FFFFFF" d="M168,56.1c0-2.2,1.7-4.1,3.9-4.1c2.2,0,3.9,1.9,3.9,4.1c0,2.2-1.6,4-3.9,4C169.6,60.1,168,58.2,168,56.1z
		 M171.9,59.2c1.6,0,2.8-1.4,2.8-3.1c0-1.7-1.3-3.1-2.8-3.1c-1.6,0-2.8,1.4-2.8,3.2C169.1,57.8,170.3,59.2,171.9,59.2z"/>
	<path fill="#FFFFFF" d="M184.3,59.9h-1v-4.4c0-1.8-0.5-2.7-1.7-2.7c-1.2,0-2.5,0.9-2.9,2.2v4.8h-1v-7.8h0.9v1.8
		c0.6-1.1,1.9-1.9,3.3-1.9c1.8,0,2.3,1.3,2.3,3.4V59.9z"/>
	<path fill="#FFFFFF" d="M21.1,76.7c0-1.5,1.3-2.4,3.3-2.4c0.8,0,1.6,0.1,2.3,0.4V74c0-1.4-0.9-2.2-2.2-2.2c-0.8,0-1.7,0.3-2.5,0.9
		L21.6,72c1-0.7,2-1,3-1c1.9,0,3.1,1.2,3.1,3.1v3.5c0,0.3,0.1,0.4,0.4,0.4v0.9c-0.2,0-0.3,0-0.4,0c-0.4,0-0.8-0.2-0.8-0.7l0-0.6
		c-0.7,0.9-1.9,1.5-3,1.5C22.1,79.1,21.1,78,21.1,76.7z M26.4,77.2c0.1-0.2,0.3-0.4,0.3-0.6v-1.3C26,75.1,25.2,75,24.5,75
		c-1.5,0-2.5,0.6-2.5,1.7c0,0.8,0.6,1.7,2,1.7C24.9,78.3,25.9,77.9,26.4,77.2z"/>
	<path fill="#FFFFFF" d="M36.8,78.9h-1v-4.4c0-1.8-0.5-2.7-1.7-2.7c-1.2,0-2.5,0.9-2.9,2.2v4.8h-1v-7.8h0.9v1.8
		c0.6-1.1,1.9-1.9,3.3-1.9c1.8,0,2.3,1.3,2.3,3.4V78.9z"/>
	<path fill="#FFFFFF" d="M38.7,75.1c0-2.2,1.5-4.1,3.6-4.1c1.3,0,2.4,0.8,3,1.8V68h1v9.6c0,0.3,0.1,0.4,0.4,0.4v0.9
		c-0.2,0-0.3,0-0.4,0c-0.5,0-0.9-0.3-0.9-0.7v-0.8c-0.6,1-1.8,1.7-2.9,1.7C40.3,79.1,38.7,77.2,38.7,75.1z M45.2,76.3v-2.4
		c-0.4-1.1-1.6-2-2.7-2c-1.7,0-2.8,1.6-2.8,3.2c0,1.7,1.3,3.1,2.9,3.1C43.7,78.2,45.1,77.3,45.2,76.3z"/>
	<path fill="#FFFFFF" d="M54,77.3v4.8h-1v-11h0.9v1.5c0.6-1,1.7-1.6,2.9-1.6c2.2,0,3.7,2,3.7,4c0,2.2-1.4,4-3.5,4
		C55.7,79.1,54.6,78.3,54,77.3z M59.5,75c0-1.7-1.3-3.1-2.9-3.1c-1,0-2.4,0.9-2.6,1.9v2.4c0.5,1.1,1.5,2,2.7,2
		C58.4,78.2,59.5,76.6,59.5,75z"/>
	<path fill="#FFFFFF" d="M61.9,76.7c0-1.5,1.4-2.4,3.3-2.4c0.8,0,1.6,0.1,2.3,0.4V74c0-1.4-0.9-2.2-2.2-2.2c-0.8,0-1.7,0.3-2.5,0.9
		L62.4,72c1-0.7,2-1,3-1c1.9,0,3.1,1.2,3.1,3.1v3.5c0,0.3,0.1,0.4,0.4,0.4v0.9c-0.2,0-0.3,0-0.4,0c-0.4,0-0.8-0.2-0.8-0.7l0-0.6
		c-0.7,0.9-1.9,1.5-3,1.5C63,79.1,61.9,78,61.9,76.7z M67.2,77.2c0.1-0.2,0.3-0.4,0.3-0.6v-1.3C66.8,75.1,66,75,65.3,75
		c-1.5,0-2.5,0.6-2.5,1.7c0,0.8,0.6,1.7,2,1.7C65.7,78.3,66.7,77.9,67.2,77.2z"/>
	<path fill="#FFFFFF" d="M70.4,77.9l0.5-0.7c0.9,0.7,1.8,1.1,2.8,1.1c1.2,0,2.1-0.5,2.1-1.5c0-0.9-0.8-1.1-2.4-1.5
		c-1.8-0.4-2.6-0.8-2.6-2c0-1.6,1.3-2.4,2.9-2.4c1.2,0,2.2,0.4,2.8,1.1L76,72.7c-0.6-0.6-1.5-0.9-2.4-0.9c-1.1,0-1.9,0.4-1.9,1.5
		c0,0.8,0.6,1,2,1.3c2,0.5,3,0.9,3,2.2c0,1.4-1.2,2.3-3,2.3C72.4,79.1,71.2,78.7,70.4,77.9z"/>
	<path fill="#FFFFFF" d="M82.4,78.6c-0.2,0.1-0.9,0.5-1.8,0.5c-0.9,0-1.6-0.5-1.6-1.5v-5.6h-1.1v-0.8H79v-2.6h1v2.6h1.8v0.8H80v5.3
		c0,0.6,0.5,0.8,0.9,0.8c0.6,0,1.1-0.3,1.2-0.3L82.4,78.6z"/>
	<path fill="#FFFFFF" d="M87.5,75c0-2.2,1.7-4,3.9-4c2.3,0,3.9,1.9,3.9,4c0,0.1,0,0.3,0,0.4h-6.7c0.1,1.7,1.4,2.9,2.9,2.9
		c1,0,2-0.6,2.4-1.4l0.9,0.2c-0.5,1.1-1.8,1.9-3.3,1.9C89.2,79.1,87.5,77.2,87.5,75z M94.3,74.6c-0.1-1.7-1.4-2.8-2.9-2.8
		c-1.5,0-2.8,1.2-2.9,2.8H94.3z"/>
	<path fill="#FFFFFF" d="M97,71.1l2.3,3.1l0.1,0.2l0.1-0.2l2.3-3.1h1.1l-3,3.9l3,3.9h-1.1l-2.3-3l-0.1-0.2l-0.1,0.2l-2.3,3h-1.1
		l3-3.9l-3-3.9H97z"/>
	<path fill="#FFFFFF" d="M105.7,77.3v4.8h-1v-11h0.9v1.5c0.6-1,1.7-1.6,2.9-1.6c2.2,0,3.7,2,3.7,4c0,2.2-1.4,4-3.5,4
		C107.3,79.1,106.3,78.3,105.7,77.3z M111.1,75c0-1.7-1.3-3.1-2.9-3.1c-1,0-2.4,0.9-2.6,1.9v2.4c0.5,1.1,1.5,2,2.7,2
		C110,78.2,111.1,76.6,111.1,75z"/>
	<path fill="#FFFFFF" d="M113.6,75c0-2.2,1.7-4,3.9-4c2.3,0,3.9,1.9,3.9,4c0,0.1,0,0.3,0,0.4h-6.7c0.1,1.7,1.4,2.9,2.9,2.9
		c1,0,2-0.6,2.4-1.4l0.9,0.2c-0.5,1.1-1.8,1.9-3.3,1.9C115.3,79.1,113.6,77.2,113.6,75z M120.5,74.6c-0.1-1.7-1.4-2.8-2.9-2.8
		c-1.5,0-2.8,1.2-2.9,2.8H120.5z"/>
	<path fill="#FFFFFF" d="M127.2,72c-1.4,0-2.5,0.8-2.9,2.1v4.9h-1v-7.8h1V73c0.5-1.1,1.5-1.9,2.5-1.9c0.2,0,0.3,0,0.5,0V72z"/>
	<path fill="#FFFFFF" d="M128.8,69.5V68h1v1.5H128.8z M128.8,78.9v-7.8h1v7.8H128.8z"/>
	<path fill="#FFFFFF" d="M131.8,75c0-2.2,1.7-4,3.9-4c2.3,0,3.9,1.9,3.9,4c0,0.1,0,0.3,0,0.4h-6.7c0.1,1.7,1.4,2.9,2.9,2.9
		c1,0,2-0.6,2.4-1.4l0.9,0.2c-0.5,1.1-1.8,1.9-3.3,1.9C133.5,79.1,131.8,77.2,131.8,75z M138.6,74.6c-0.1-1.7-1.4-2.8-2.9-2.8
		c-1.5,0-2.8,1.2-2.9,2.8H138.6z"/>
	<path fill="#FFFFFF" d="M148,78.9h-1v-4.4c0-1.8-0.5-2.7-1.7-2.7c-1.2,0-2.5,0.9-2.9,2.2v4.8h-1v-7.8h0.9v1.8
		c0.6-1.1,1.9-1.9,3.3-1.9c1.8,0,2.3,1.3,2.3,3.4V78.9z"/>
	<path fill="#FFFFFF" d="M153.8,71c1.5,0,2.6,0.7,3.2,1.9l-1,0.3c-0.4-0.8-1.3-1.3-2.2-1.3c-1.6,0-2.8,1.3-2.8,3.1
		c0,1.8,1.3,3.2,2.8,3.2c1,0,2-0.6,2.3-1.3l1,0.3c-0.4,1.1-1.7,1.9-3.2,1.9c-2.3,0-3.9-1.9-3.9-4.1C149.9,72.8,151.5,71,153.8,71z"
		/>
	<path fill="#FFFFFF" d="M158.5,75c0-2.2,1.7-4,3.9-4c2.3,0,3.9,1.9,3.9,4c0,0.1,0,0.3,0,0.4h-6.7c0.1,1.7,1.4,2.9,2.9,2.9
		c1,0,2-0.6,2.4-1.4l0.9,0.2c-0.5,1.1-1.8,1.9-3.3,1.9C160.1,79.1,158.5,77.2,158.5,75z M165.3,74.6c-0.1-1.7-1.4-2.8-2.9-2.8
		c-1.5,0-2.8,1.2-2.9,2.8H165.3z"/>
	<path fill="#FFFFFF" d="M167.8,79.2c0.1,0,0.3-0.1,0.3-0.3v-1.4h0.9V79c0,0.7-0.6,0.9-1.2,0.9V79.2z"/>
	<path fill="#FFFFFF" d="M185.1,71.1h1l-3.3,7.8h-0.9l-1.7-4l-1.7,4h-0.9l-3.3-7.8h1l2.9,6.8l1.5-3.6l-1.3-3.2h0.9l1,2.5l1-2.5h0.9
		l-1.3,3.2l1.5,3.6L185.1,71.1z"/>
	<path fill="#FFFFFF" d="M187.2,75c0-2.2,1.7-4,3.9-4c2.3,0,3.9,1.9,3.9,4c0,0.1,0,0.3,0,0.4h-6.7c0.1,1.7,1.4,2.9,2.9,2.9
		c1,0,2-0.6,2.4-1.4l0.9,0.2c-0.5,1.1-1.8,1.9-3.3,1.9C188.8,79.1,187.2,77.2,187.2,75z M194,74.6c-0.1-1.7-1.4-2.8-2.9-2.8
		c-1.5,0-2.8,1.2-2.9,2.8H194z"/>
	<path fill="#FFFFFF" d="M29.2,94c0-2.2,1.7-4,3.9-4c2.3,0,3.9,1.9,3.9,4c0,0.1,0,0.3,0,0.4h-6.7c0.1,1.7,1.4,2.9,2.9,2.9
		c1,0,2-0.6,2.4-1.4l0.9,0.2c-0.5,1.1-1.8,1.9-3.3,1.9C30.9,98.1,29.2,96.2,29.2,94z M36,93.6c-0.1-1.7-1.4-2.8-2.9-2.8
		c-1.5,0-2.8,1.2-2.9,2.8H36z"/>
	<path fill="#FFFFFF" d="M38.7,90.1l2.3,3.1l0.1,0.2l0.1-0.2l2.3-3.1h1.1l-3,3.9l3,3.9h-1.1l-2.3-3l-0.1-0.2l-0.1,0.2l-2.3,3h-1.1
		l3-3.9l-3-3.9H38.7z"/>
	<path fill="#FFFFFF" d="M45.6,95.7c0-1.5,1.3-2.4,3.3-2.4c0.8,0,1.6,0.1,2.3,0.4V93c0-1.4-0.9-2.2-2.2-2.2c-0.8,0-1.7,0.3-2.5,0.9
		L46.1,91c1-0.7,2-1,3-1c1.9,0,3.1,1.2,3.1,3.1v3.5c0,0.3,0.1,0.4,0.4,0.4v0.9c-0.2,0-0.3,0-0.4,0c-0.4,0-0.8-0.2-0.8-0.7l0-0.6
		c-0.7,0.9-1.9,1.5-3,1.5C46.7,98.1,45.6,97,45.6,95.7z M50.9,96.2c0.1-0.2,0.3-0.4,0.3-0.6v-1.3C50.5,94.1,49.7,94,49,94
		c-1.5,0-2.5,0.6-2.5,1.7c0,0.8,0.6,1.7,2,1.7C49.4,97.3,50.4,96.9,50.9,96.2z"/>
	<path fill="#FFFFFF" d="M66.3,97.9h-1v-4.4c0-1.8-0.6-2.7-1.7-2.7c-1.2,0-2.2,0.9-2.6,2.2v4.8h-1v-4.4c0-1.8-0.6-2.7-1.7-2.7
		c-1.2,0-2.2,0.9-2.6,2.2v4.8h-1v-7.8h0.9v1.8c0.6-1.2,1.7-1.9,3-1.9c1.3,0,2.1,0.8,2.3,2c0.7-1.3,1.7-2,3-2c1.7,0,2.4,1.3,2.4,3.4
		V97.9z"/>
	<path fill="#FFFFFF" d="M68.8,88.5V87h1v1.5H68.8z M68.8,97.9v-7.8h1v7.8H68.8z"/>
	<path fill="#FFFFFF" d="M78.8,97.9h-1v-4.4c0-1.8-0.5-2.7-1.7-2.7c-1.2,0-2.5,0.9-2.9,2.2v4.8h-1v-7.8h0.9v1.8
		c0.6-1.1,1.9-1.9,3.3-1.9c1.8,0,2.3,1.3,2.3,3.4V97.9z"/>
	<path fill="#FFFFFF" d="M80.7,94c0-2.2,1.7-4,3.9-4c2.3,0,3.9,1.9,3.9,4c0,0.1,0,0.3,0,0.4h-6.7c0.1,1.7,1.4,2.9,2.9,2.9
		c1,0,2-0.6,2.4-1.4l0.9,0.2c-0.5,1.1-1.8,1.9-3.3,1.9C82.4,98.1,80.7,96.2,80.7,94z M87.5,93.6c-0.1-1.7-1.4-2.8-2.9-2.8
		c-1.5,0-2.8,1.2-2.9,2.8H87.5z"/>
	<path fill="#FFFFFF" d="M94.5,100.4c0.1,0,0.2,0,0.3,0c0.2,0,0.5,0,0.6-0.1c0.2-0.1,0.4-0.4,1.2-2.4l-3.4-7.8h1.1l2.9,6.9l2.7-6.9
		h1l-4.1,10.1c-0.3,0.7-0.8,1.1-1.7,1.1c-0.2,0-0.4,0-0.5,0V100.4z"/>
	<path fill="#FFFFFF" d="M101.7,94.1c0-2.2,1.7-4.1,3.9-4.1c2.2,0,3.9,1.9,3.9,4.1c0,2.2-1.6,4-3.9,4
		C103.3,98.1,101.7,96.2,101.7,94.1z M105.6,97.2c1.6,0,2.8-1.4,2.8-3.1c0-1.7-1.3-3.1-2.8-3.1c-1.6,0-2.8,1.4-2.8,3.2
		C102.8,95.8,104,97.2,105.6,97.2z"/>
	<path fill="#FFFFFF" d="M111.4,94.7v-4.6h1v4.4c0,1.8,0.6,2.7,1.8,2.7s2.4-0.8,2.8-2.1v-4.9h1v6.5c0,0.3,0.1,0.4,0.4,0.4v0.9
		c-0.2,0-0.3,0-0.4,0c-0.5,0-0.8-0.3-0.8-0.7v-1.1c-0.7,1.2-1.9,1.9-3.3,1.9C112.2,98.1,111.4,96.9,111.4,94.7z"/>
	<path fill="#FFFFFF" d="M124.6,91c-1.4,0-2.5,0.8-2.9,2.1v4.9h-1v-7.8h1V92c0.5-1.1,1.5-1.9,2.5-1.9c0.2,0,0.3,0,0.5,0V91z"/>
	<path fill="#FFFFFF" d="M130.9,96.4v1.5H130V87h1v4.8c0.7-1,1.7-1.8,3-1.8c2.2,0,3.5,2,3.5,4.1c0,2.2-1.6,4-3.7,4
		C132.6,98.1,131.5,97.4,130.9,96.4z M136.5,94.1c0-1.6-1.1-3.2-2.8-3.2c-1.2,0-2.2,0.9-2.7,2v2.4c0.2,1.1,1.5,1.9,2.6,1.9
		C135.3,97.2,136.5,95.7,136.5,94.1z"/>
	<path fill="#FFFFFF" d="M143.5,91c-1.4,0-2.5,0.8-2.9,2.1v4.9h-1v-7.8h1V92c0.5-1.1,1.5-1.9,2.5-1.9c0.2,0,0.3,0,0.5,0V91z"/>
	<path fill="#FFFFFF" d="M144.4,95.7c0-1.5,1.3-2.4,3.3-2.4c0.8,0,1.6,0.1,2.3,0.4V93c0-1.4-0.9-2.2-2.2-2.2c-0.8,0-1.7,0.3-2.5,0.9
		l-0.4-0.7c1-0.7,2-1,3-1c1.9,0,3.1,1.2,3.1,3.1v3.5c0,0.3,0.1,0.4,0.4,0.4v0.9c-0.2,0-0.3,0-0.4,0c-0.4,0-0.8-0.2-0.8-0.7l0-0.6
		c-0.7,0.9-1.9,1.5-3,1.5C145.4,98.1,144.4,97,144.4,95.7z M149.7,96.2c0.1-0.2,0.3-0.4,0.3-0.6v-1.3c-0.7-0.3-1.4-0.4-2.1-0.4
		c-1.5,0-2.5,0.6-2.5,1.7c0,0.8,0.6,1.7,2,1.7C148.2,97.3,149.2,96.9,149.7,96.2z"/>
	<path fill="#FFFFFF" d="M160.1,97.9h-1v-4.4c0-1.8-0.5-2.7-1.7-2.7c-1.2,0-2.5,0.9-2.9,2.2v4.8h-1v-7.8h0.9v1.8
		c0.6-1.1,1.9-1.9,3.3-1.9c1.8,0,2.3,1.3,2.3,3.4V97.9z"/>
	<path fill="#FFFFFF" d="M162,94.1c0-2.2,1.5-4.1,3.6-4.1c1.3,0,2.4,0.8,3,1.8V87h1v9.6c0,0.3,0.1,0.4,0.4,0.4v0.9
		c-0.2,0-0.3,0-0.4,0c-0.5,0-0.9-0.3-0.9-0.7v-0.8c-0.6,1-1.8,1.7-2.9,1.7C163.6,98.1,162,96.2,162,94.1z M168.5,95.3v-2.4
		c-0.4-1.1-1.6-2-2.7-2c-1.7,0-2.8,1.6-2.8,3.2c0,1.7,1.3,3.1,2.9,3.1C167,97.2,168.4,96.3,168.5,95.3z"/>
	<path fill="#FFFFFF" d="M176.3,88.5V87h1v1.5H176.3z M176.3,97.9v-7.8h1v7.8H176.3z"/>
	<path fill="#FFFFFF" d="M186.4,97.9h-1v-4.4c0-1.8-0.5-2.7-1.7-2.7c-1.2,0-2.5,0.9-2.9,2.2v4.8h-1v-7.8h0.9v1.8
		c0.6-1.1,1.9-1.9,3.3-1.9c1.8,0,2.3,1.3,2.3,3.4V97.9z"/>
	<path fill="#FFFFFF" d="M22,116.6c-0.2,0.1-0.9,0.5-1.8,0.5c-0.9,0-1.6-0.5-1.6-1.5v-5.6h-1.1v-0.8h1.1v-2.6h1v2.6h1.8v0.8h-1.8
		v5.3c0,0.6,0.5,0.8,0.9,0.8c0.6,0,1.1-0.3,1.2-0.3L22,116.6z"/>
	<path fill="#FFFFFF" d="M30,116.9h-1v-4.4c0-1.8-0.6-2.7-1.8-2.7c-1.2,0-2.4,1-2.7,2.2v4.8h-1V106h1v4.9c0.6-1.2,1.8-1.9,3.1-1.9
		c1.8,0,2.5,1.4,2.5,3.4V116.9z"/>
	<path fill="#FFFFFF" d="M32,113c0-2.2,1.7-4,3.9-4c2.3,0,3.9,1.9,3.9,4c0,0.1,0,0.3,0,0.4H33c0.1,1.7,1.4,2.9,2.9,2.9
		c1,0,2-0.6,2.4-1.4l0.9,0.2c-0.5,1.1-1.8,1.9-3.3,1.9C33.6,117.1,32,115.2,32,113z M38.8,112.6c-0.1-1.7-1.4-2.8-2.9-2.8
		c-1.5,0-2.8,1.2-2.9,2.8H38.8z"/>
	<path fill="#FFFFFF" d="M49.1,109c1.5,0,2.6,0.7,3.2,1.9l-1,0.3c-0.4-0.8-1.3-1.3-2.2-1.3c-1.6,0-2.8,1.3-2.8,3.1
		c0,1.8,1.3,3.2,2.8,3.2c1,0,2-0.6,2.3-1.3l1,0.3c-0.4,1.1-1.7,1.9-3.2,1.9c-2.3,0-3.9-1.9-3.9-4.1C45.2,110.8,46.8,109,49.1,109z"
		/>
	<path fill="#FFFFFF" d="M53.7,113.1c0-2.2,1.7-4.1,3.9-4.1c2.2,0,3.9,1.9,3.9,4.1c0,2.2-1.6,4-3.9,4
		C55.3,117.1,53.7,115.2,53.7,113.1z M57.5,116.2c1.6,0,2.8-1.4,2.8-3.1c0-1.7-1.3-3.1-2.8-3.1c-1.6,0-2.8,1.4-2.8,3.2
		C54.7,114.8,56,116.2,57.5,116.2z"/>
	<path fill="#FFFFFF" d="M70,116.9h-1v-4.4c0-1.8-0.5-2.7-1.7-2.7c-1.2,0-2.5,0.9-2.9,2.2v4.8h-1v-7.8h0.9v1.8
		c0.6-1.1,1.9-1.9,3.3-1.9c1.8,0,2.3,1.3,2.3,3.4V116.9z"/>
	<path fill="#FFFFFF" d="M76.1,116.6c-0.2,0.1-0.9,0.5-1.8,0.5c-0.9,0-1.6-0.5-1.6-1.5v-5.6h-1.1v-0.8h1.1v-2.6h1v2.6h1.8v0.8h-1.8
		v5.3c0,0.6,0.5,0.8,0.9,0.8c0.6,0,1.1-0.3,1.2-0.3L76.1,116.6z"/>
	<path fill="#FFFFFF" d="M77.1,113c0-2.2,1.7-4,3.9-4c2.3,0,3.9,1.9,3.9,4c0,0.1,0,0.3,0,0.4h-6.7c0.1,1.7,1.4,2.9,2.9,2.9
		c1,0,2-0.6,2.4-1.4l0.9,0.2c-0.5,1.1-1.8,1.9-3.3,1.9C78.7,117.1,77.1,115.2,77.1,113z M83.9,112.6c-0.1-1.7-1.4-2.8-2.9-2.8
		c-1.5,0-2.8,1.2-2.9,2.8H83.9z"/>
	<path fill="#FFFFFF" d="M86.6,109.1l2.3,3.1l0.1,0.2l0.1-0.2l2.3-3.1h1.1l-3,3.9l3,3.9h-1.1l-2.3-3l-0.1-0.2l-0.1,0.2l-2.3,3h-1.1
		l3-3.9l-3-3.9H86.6z"/>
	<path fill="#FFFFFF" d="M98,116.6c-0.2,0.1-0.9,0.5-1.8,0.5c-0.9,0-1.6-0.5-1.6-1.5v-5.6h-1.1v-0.8h1.1v-2.6h1v2.6h1.8v0.8h-1.8
		v5.3c0,0.6,0.5,0.8,0.9,0.8c0.6,0,1.1-0.3,1.2-0.3L98,116.6z"/>
	<path fill="#FFFFFF" d="M103.1,113.1c0-2.2,1.7-4.1,3.9-4.1c2.2,0,3.9,1.9,3.9,4.1c0,2.2-1.6,4-3.9,4
		C104.7,117.1,103.1,115.2,103.1,113.1z M107,116.2c1.6,0,2.8-1.4,2.8-3.1c0-1.7-1.3-3.1-2.8-3.1c-1.6,0-2.8,1.4-2.8,3.2
		C104.2,114.8,105.4,116.2,107,116.2z"/>
	<path fill="#FFFFFF" d="M113.2,116.9v-6.1h-1.1V110h1.1v-1.1c0-1.9,0.9-3.1,2.3-3.1c0.6,0,1.2,0.2,1.6,0.5l-0.3,0.7
		c-0.3-0.2-0.7-0.3-1.1-0.3c-1,0-1.5,0.8-1.5,2.2v1.2h2.2v0.8h-2.2v6.1H113.2z"/>
	<path fill="#FFFFFF" d="M125.9,116.6c-0.2,0.1-0.9,0.5-1.8,0.5c-0.9,0-1.6-0.5-1.6-1.5v-5.6h-1.1v-0.8h1.1v-2.6h1v2.6h1.8v0.8h-1.8
		v5.3c0,0.6,0.5,0.8,0.9,0.8c0.6,0,1.1-0.3,1.2-0.3L125.9,116.6z"/>
	<path fill="#FFFFFF" d="M134,116.9h-1v-4.4c0-1.8-0.6-2.7-1.8-2.7c-1.2,0-2.4,1-2.7,2.2v4.8h-1V106h1v4.9c0.6-1.2,1.8-1.9,3.1-1.9
		c1.8,0,2.5,1.4,2.5,3.4V116.9z"/>
	<path fill="#FFFFFF" d="M135.9,113c0-2.2,1.7-4,3.9-4c2.3,0,3.9,1.9,3.9,4c0,0.1,0,0.3,0,0.4H137c0.1,1.7,1.4,2.9,2.9,2.9
		c1,0,2-0.6,2.4-1.4l0.9,0.2c-0.5,1.1-1.8,1.9-3.3,1.9C137.5,117.1,135.9,115.2,135.9,113z M142.7,112.6c-0.1-1.7-1.4-2.8-2.9-2.8
		c-1.5,0-2.8,1.2-2.9,2.8H142.7z"/>
	<path fill="#FFFFFF" d="M161.3,116.9h-1v-4.4c0-1.8-0.6-2.7-1.7-2.7c-1.2,0-2.2,0.9-2.6,2.2v4.8h-1v-4.4c0-1.8-0.6-2.7-1.7-2.7
		c-1.2,0-2.2,0.9-2.6,2.2v4.8h-1v-7.8h0.9v1.8c0.6-1.2,1.7-1.9,3-1.9c1.3,0,2.1,0.8,2.3,2c0.7-1.3,1.7-2,3-2c1.7,0,2.4,1.3,2.4,3.4
		V116.9z"/>
	<path fill="#FFFFFF" d="M163.1,114.7c0-1.5,1.4-2.4,3.3-2.4c0.8,0,1.6,0.1,2.3,0.4V112c0-1.4-0.9-2.2-2.2-2.2
		c-0.8,0-1.7,0.3-2.5,0.9l-0.4-0.7c1-0.7,2-1,3-1c1.9,0,3.1,1.2,3.1,3.1v3.5c0,0.3,0.1,0.4,0.4,0.4v0.9c-0.2,0-0.3,0-0.4,0
		c-0.4,0-0.8-0.2-0.8-0.7l0-0.6c-0.7,0.9-1.9,1.5-3,1.5C164.2,117.1,163.1,116,163.1,114.7z M168.4,115.2c0.1-0.2,0.3-0.4,0.3-0.6
		v-1.3c-0.7-0.3-1.4-0.4-2.1-0.4c-1.5,0-2.5,0.6-2.5,1.7c0,0.8,0.6,1.7,2,1.7C166.9,116.3,167.9,115.9,168.4,115.2z"/>
	<path fill="#FFFFFF" d="M176.1,110c-1.4,0-2.5,0.8-2.9,2.1v4.9h-1v-7.8h1v1.9c0.5-1.1,1.5-1.9,2.5-1.9c0.2,0,0.3,0,0.5,0V110z"/>
	<path fill="#FFFFFF" d="M183.4,116.9l-2.9-4l-1.7,1.6v2.4h-1V106h1v7.4l4.4-4.3h1.2l-3.2,3.2l3.3,4.6H183.4z"/>
	<path fill="#FFFFFF" d="M185.5,113c0-2.2,1.7-4,3.9-4c2.3,0,3.9,1.9,3.9,4c0,0.1,0,0.3,0,0.4h-6.7c0.1,1.7,1.4,2.9,2.9,2.9
		c1,0,2-0.6,2.4-1.4l0.9,0.2c-0.5,1.1-1.8,1.9-3.3,1.9C187.1,117.1,185.5,115.2,185.5,113z M192.3,112.6c-0.1-1.7-1.4-2.8-2.9-2.8
		c-1.5,0-2.8,1.2-2.9,2.8H192.3z"/>
	<path fill="#FFFFFF" d="M198.8,116.6c-0.2,0.1-0.9,0.5-1.8,0.5c-0.9,0-1.6-0.5-1.6-1.5v-5.6h-1.1v-0.8h1.1v-2.6h1v2.6h1.8v0.8h-1.8
		v5.3c0,0.6,0.5,0.8,0.9,0.8c0.6,0,1.1-0.3,1.2-0.3L198.8,116.6z"/>
	<path fill="#FFFFFF" d="M50.4,133.7c0-1.5,1.3-2.4,3.3-2.4c0.8,0,1.6,0.1,2.3,0.4V131c0-1.4-0.9-2.2-2.2-2.2
		c-0.8,0-1.7,0.3-2.5,0.9l-0.4-0.7c1-0.7,2-1,3-1c1.9,0,3.1,1.2,3.1,3.1v3.5c0,0.3,0.1,0.4,0.4,0.4v0.9c-0.2,0-0.3,0-0.4,0
		c-0.4,0-0.8-0.2-0.8-0.7l0-0.6c-0.7,0.9-1.9,1.5-3,1.5C51.5,136.1,50.4,135,50.4,133.7z M55.7,134.2c0.1-0.2,0.3-0.4,0.3-0.6v-1.3
		c-0.7-0.3-1.4-0.4-2.1-0.4c-1.5,0-2.5,0.6-2.5,1.7c0,0.8,0.6,1.7,2,1.7C54.2,135.3,55.2,134.9,55.7,134.2z"/>
	<path fill="#FFFFFF" d="M66.1,135.9h-1v-4.4c0-1.8-0.5-2.7-1.7-2.7c-1.2,0-2.5,0.9-2.9,2.2v4.8h-1v-7.8h0.9v1.8
		c0.6-1.1,1.9-1.9,3.3-1.9c1.8,0,2.3,1.3,2.3,3.4V135.9z"/>
	<path fill="#FFFFFF" d="M68,132.1c0-2.2,1.5-4.1,3.6-4.1c1.3,0,2.4,0.8,3,1.8V125h1v9.6c0,0.3,0.1,0.4,0.4,0.4v0.9
		c-0.2,0-0.3,0-0.4,0c-0.5,0-0.9-0.3-0.9-0.7v-0.8c-0.6,1-1.8,1.7-2.9,1.7C69.6,136.1,68,134.2,68,132.1z M74.5,133.3v-2.4
		c-0.4-1.1-1.6-2-2.7-2c-1.7,0-2.8,1.6-2.8,3.2c0,1.7,1.3,3.1,2.9,3.1C73,135.2,74.4,134.3,74.5,133.3z"/>
	<path fill="#FFFFFF" d="M85.7,128c1.5,0,2.6,0.7,3.2,1.9l-1,0.3c-0.4-0.8-1.3-1.3-2.2-1.3c-1.6,0-2.8,1.3-2.8,3.1
		c0,1.8,1.3,3.2,2.8,3.2c1,0,2-0.6,2.3-1.3l1,0.3c-0.4,1.1-1.7,1.9-3.2,1.9c-2.3,0-3.9-1.9-3.9-4.1C81.8,129.8,83.4,128,85.7,128z"
		/>
	<path fill="#FFFFFF" d="M90.2,132.1c0-2.2,1.7-4.1,3.9-4.1c2.2,0,3.9,1.9,3.9,4.1c0,2.2-1.6,4-3.9,4
		C91.8,136.1,90.2,134.2,90.2,132.1z M94.1,135.2c1.6,0,2.8-1.4,2.8-3.1c0-1.7-1.3-3.1-2.8-3.1c-1.6,0-2.8,1.4-2.8,3.2
		C91.3,133.8,92.5,135.2,94.1,135.2z"/>
	<path fill="#FFFFFF" d="M111.6,135.9h-1v-4.4c0-1.8-0.6-2.7-1.7-2.7c-1.2,0-2.2,0.9-2.6,2.2v4.8h-1v-4.4c0-1.8-0.6-2.7-1.7-2.7
		c-1.2,0-2.2,0.9-2.6,2.2v4.8h-1v-7.8h0.9v1.8c0.6-1.2,1.7-1.9,3-1.9c1.3,0,2.1,0.8,2.3,2c0.7-1.3,1.7-2,3-2c1.7,0,2.4,1.3,2.4,3.4
		V135.9z"/>
	<path fill="#FFFFFF" d="M115,134.3v4.8h-1v-11h0.9v1.5c0.6-1,1.7-1.6,2.9-1.6c2.2,0,3.7,2,3.7,4c0,2.2-1.4,4-3.5,4
		C116.7,136.1,115.6,135.3,115,134.3z M120.5,132c0-1.7-1.3-3.1-2.9-3.1c-1,0-2.4,0.9-2.6,1.9v2.4c0.5,1.1,1.5,2,2.7,2
		C119.4,135.2,120.5,133.6,120.5,132z"/>
	<path fill="#FFFFFF" d="M123,132c0-2.2,1.7-4,3.9-4c2.3,0,3.9,1.9,3.9,4c0,0.1,0,0.3,0,0.4h-6.7c0.1,1.7,1.4,2.9,2.9,2.9
		c1,0,2-0.6,2.4-1.4l0.9,0.2c-0.5,1.1-1.8,1.9-3.3,1.9C124.7,136.1,123,134.2,123,132z M129.8,131.6c-0.1-1.7-1.4-2.8-2.9-2.8
		c-1.5,0-2.8,1.2-2.9,2.8H129.8z"/>
	<path fill="#FFFFFF" d="M136.3,135.6c-0.2,0.1-0.9,0.5-1.8,0.5c-0.9,0-1.6-0.5-1.6-1.5v-5.6h-1.1v-0.8h1.1v-2.6h1v2.6h1.8v0.8h-1.8
		v5.3c0,0.6,0.5,0.8,0.9,0.8c0.6,0,1.1-0.3,1.2-0.3L136.3,135.6z"/>
	<path fill="#FFFFFF" d="M137.8,126.5V125h1v1.5H137.8z M137.8,135.9v-7.8h1v7.8H137.8z"/>
	<path fill="#FFFFFF" d="M145.1,135.6c-0.2,0.1-0.9,0.5-1.8,0.5c-0.9,0-1.6-0.5-1.6-1.5v-5.6h-1.1v-0.8h1.1v-2.6h1v2.6h1.8v0.8h-1.8
		v5.3c0,0.6,0.5,0.8,0.9,0.8c0.6,0,1.1-0.3,1.2-0.3L145.1,135.6z"/>
	<path fill="#FFFFFF" d="M146.6,126.5V125h1v1.5H146.6z M146.6,135.9v-7.8h1v7.8H146.6z"/>
	<path fill="#FFFFFF" d="M152.5,135.9l-3.2-7.8h1.1l2.7,6.9l2.7-6.9h1l-3.2,7.8H152.5z"/>
	<path fill="#FFFFFF" d="M157.9,132c0-2.2,1.7-4,3.9-4c2.3,0,3.9,1.9,3.9,4c0,0.1,0,0.3,0,0.4H159c0.1,1.7,1.4,2.9,2.9,2.9
		c1,0,2-0.6,2.4-1.4l0.9,0.2c-0.5,1.1-1.8,1.9-3.3,1.9C159.5,136.1,157.9,134.2,157.9,132z M164.7,131.6c-0.1-1.7-1.4-2.8-2.9-2.8
		c-1.5,0-2.8,1.2-2.9,2.8H164.7z"/>
	<path fill="#FFFFFF" d="M70.4,144h1v9.2c0,0.6,0.3,0.9,0.9,0.9c0.2,0,0.6-0.1,0.8-0.2l0.2,0.8c-0.4,0.2-1,0.3-1.4,0.3
		c-0.9,0-1.5-0.6-1.5-1.5V144z"/>
	<path fill="#FFFFFF" d="M74,152.7c0-1.5,1.4-2.4,3.3-2.4c0.8,0,1.6,0.1,2.3,0.4V150c0-1.4-0.9-2.2-2.2-2.2c-0.8,0-1.7,0.3-2.5,0.9
		l-0.4-0.7c1-0.7,2-1,3-1c1.9,0,3.1,1.2,3.1,3.1v3.5c0,0.3,0.1,0.4,0.4,0.4v0.9c-0.2,0-0.3,0-0.4,0c-0.4,0-0.8-0.2-0.8-0.7l0-0.6
		c-0.7,0.9-1.9,1.5-3,1.5C75,155.1,74,154,74,152.7z M79.3,153.2c0.1-0.2,0.3-0.4,0.3-0.6v-1.3c-0.7-0.3-1.4-0.4-2.1-0.4
		c-1.5,0-2.5,0.6-2.5,1.7c0,0.8,0.6,1.7,2,1.7C77.8,154.3,78.8,153.9,79.3,153.2z"/>
	<path fill="#FFFFFF" d="M89.7,154.9h-1v-4.4c0-1.8-0.5-2.7-1.7-2.7c-1.2,0-2.5,0.9-2.9,2.2v4.8h-1v-7.8H84v1.8
		c0.6-1.1,1.9-1.9,3.3-1.9c1.8,0,2.3,1.3,2.3,3.4V154.9z"/>
	<path fill="#FFFFFF" d="M91.6,151.1c0-2.2,1.5-4.1,3.6-4.1c1.3,0,2.4,0.8,3,1.8V144h1v9.6c0,0.3,0.1,0.4,0.4,0.4v0.9
		c-0.2,0-0.3,0-0.4,0c-0.5,0-0.9-0.3-0.9-0.7v-0.8c-0.6,1-1.8,1.7-2.9,1.7C93.2,155.1,91.6,153.2,91.6,151.1z M98.1,152.3v-2.4
		c-0.4-1.1-1.6-2-2.7-2c-1.7,0-2.8,1.6-2.8,3.2c0,1.7,1.3,3.1,2.9,3.1C96.6,154.2,98,153.3,98.1,152.3z"/>
	<path fill="#FFFFFF" d="M101.1,153.9l0.5-0.7c0.9,0.7,1.8,1.1,2.8,1.1c1.2,0,2.1-0.5,2.1-1.5c0-0.9-0.8-1.1-2.4-1.5
		c-1.8-0.4-2.6-0.8-2.6-2c0-1.6,1.3-2.4,2.9-2.4c1.2,0,2.2,0.4,2.8,1.1l-0.5,0.6c-0.6-0.6-1.5-0.9-2.4-0.9c-1.1,0-1.9,0.4-1.9,1.5
		c0,0.8,0.6,1,2,1.3c2,0.5,3,0.9,3,2.2c0,1.4-1.2,2.3-3,2.3C103.1,155.1,101.9,154.7,101.1,153.9z"/>
	<path fill="#FFFFFF" d="M112.7,147c1.5,0,2.6,0.7,3.2,1.9l-1,0.3c-0.4-0.8-1.3-1.3-2.2-1.3c-1.6,0-2.8,1.3-2.8,3.1
		c0,1.8,1.3,3.2,2.8,3.2c1,0,2-0.6,2.3-1.3l1,0.3c-0.4,1.1-1.7,1.9-3.2,1.9c-2.3,0-3.9-1.9-3.9-4.1C108.8,148.8,110.4,147,112.7,147
		z"/>
	<path fill="#FFFFFF" d="M117.3,152.7c0-1.5,1.3-2.4,3.3-2.4c0.8,0,1.6,0.1,2.3,0.4V150c0-1.4-0.9-2.2-2.2-2.2
		c-0.8,0-1.7,0.3-2.5,0.9l-0.4-0.7c1-0.7,2-1,3-1c1.9,0,3.1,1.2,3.1,3.1v3.5c0,0.3,0.1,0.4,0.4,0.4v0.9c-0.2,0-0.3,0-0.4,0
		c-0.4,0-0.8-0.2-0.8-0.7l0-0.6c-0.7,0.9-1.9,1.5-3,1.5C118.3,155.1,117.3,154,117.3,152.7z M122.6,153.2c0.1-0.2,0.3-0.4,0.3-0.6
		v-1.3c-0.7-0.3-1.4-0.4-2.1-0.4c-1.5,0-2.5,0.6-2.5,1.7c0,0.8,0.6,1.7,2,1.7C121.1,154.3,122.1,153.9,122.6,153.2z"/>
	<path fill="#FFFFFF" d="M127.4,153.3v4.8h-1v-11h0.9v1.5c0.6-1,1.7-1.6,2.9-1.6c2.2,0,3.7,2,3.7,4c0,2.2-1.4,4-3.5,4
		C129.1,155.1,128,154.3,127.4,153.3z M132.9,151c0-1.7-1.3-3.1-2.9-3.1c-1,0-2.4,0.9-2.6,1.9v2.4c0.5,1.1,1.5,2,2.7,2
		C131.8,154.2,132.9,152.6,132.9,151z"/>
	<path fill="#FFFFFF" d="M135.4,151c0-2.2,1.7-4,3.9-4c2.3,0,3.9,1.9,3.9,4c0,0.1,0,0.3,0,0.4h-6.7c0.1,1.7,1.4,2.9,2.9,2.9
		c1,0,2-0.6,2.4-1.4l0.9,0.2c-0.5,1.1-1.8,1.9-3.3,1.9C137.1,155.1,135.4,153.2,135.4,151z M142.2,150.6c-0.1-1.7-1.4-2.8-2.9-2.8
		c-1.5,0-2.8,1.2-2.9,2.8H142.2z"/>
	<path fill="#FFFFFF" d="M144.9,154.9v-1.5h0.9v1.5H144.9z"/>
	<path fill="#FFFFFF" d="M74.5,176.1c-0.7-0.8-1.9-1.3-3.3-1.3c-2.1,0-3.1,0.9-3.1,2.2c0,1.4,1,1.8,3.4,2.3c2.6,0.5,4.2,1.2,4.2,3.4
		c0,2.2-1.8,3.3-4.3,3.3c-1.9,0-3.5-0.6-4.8-1.8l0.6-1c0.9,0.9,2.4,1.7,4.3,1.7c1.9,0,3.1-0.7,3.1-2.1c0-1.5-1.2-2-3.7-2.5
		c-2.5-0.6-3.8-1.2-3.8-3.1c0-2.2,1.8-3.5,4.3-3.5c1.6,0,2.8,0.5,3.8,1.4L74.5,176.1z"/>
	<path fill="#FFFFFF" d="M87.6,173.9v12.1h-1.2v-5.6h-7.2v5.6h-1.2v-12.1h1.2v5.4h7.2v-5.4H87.6z"/>
	<path fill="#FFFFFF" d="M90.3,179.9c0-3.2,2.4-6.1,5.7-6.1c3.4,0,5.6,3.1,5.6,6.1c0,3.2-2.4,6.1-5.7,6.1
		C92.6,186,90.3,183,90.3,179.9z M95.9,185c2.7,0,4.5-2.6,4.5-5c0-2.6-1.9-5-4.5-5c-2.7,0-4.5,2.5-4.5,5
		C91.4,182.5,93.3,185,95.9,185z"/>
	<path fill="#FFFFFF" d="M108.3,174h1.1l1.7,4.3l1.7-4.3h1.1l-2.1,5.2l2.3,5.5l4.4-10.7h1.3l-5.1,12.1h-1.1l-2.5-6l-2.5,6h-1.1
		l-5.1-12.1h1.3l4.4,10.7l2.3-5.5L108.3,174z"/>
	<path fill="#FFFFFF" d="M136.7,185.9V176l-4.4,7.7h-0.7l-4.4-7.7v9.9H126v-12.1h1.2l4.7,8.3l4.7-8.3h1.2v12.1H136.7z"/>
	<path fill="#FFFFFF" d="M149.4,184.9v1.1h-8.1v-12.1h8v1.1h-6.8v4.4h5.9v1h-5.9v4.6H149.4z"/>
</g>
</svg>
