<?xml version="1.0" encoding="utf-8"?>
<!-- Generator: Adobe Illustrator 18.0.0, SVG Export Plug-In . SVG Version: 6.00 Build 0)  -->
<!DOCTYPE svg PUBLIC "-//W3C//DTD SVG 1.1//EN" "http://www.w3.org/Graphics/SVG/1.1/DTD/svg11.dtd">
<svg version="1.1" id="Layer_1" xmlns="http://www.w3.org/2000/svg" xmlns:xlink="http://www.w3.org/1999/xlink" x="0px" y="0px"
	 viewBox="0 0 215.9 216" enable-background="new 0 0 215.9 216" xml:space="preserve">
<g>
	<defs>
		<rect id="SVGID_1_" x="-306.6" width="828.7" height="285.8"/>
	</defs>
	<clipPath id="SVGID_2_">
		<use xlink:href="#SVGID_1_"  overflow="visible"/>
	</clipPath>
</g>
<g>
	<defs>
		<rect id="SVGID_3_" x="-306.6" width="828.7" height="285.8"/>
	</defs>
	<clipPath id="SVGID_4_">
		<use xlink:href="#SVGID_3_"  overflow="visible"/>
	</clipPath>
	<path clip-path="url(#SVGID_4_)" fill="#EF4066" d="M107.9,216c59.6,0,108-48.4,108-108c0-59.6-48.4-108-108-108s-108,48.4-108,108
		C-0.1,167.6,48.3,216,107.9,216"/>
</g>
<g>
	<defs>
		<rect id="SVGID_5_" x="-306.6" width="828.7" height="285.8"/>
	</defs>
	<clipPath id="SVGID_6_">
		<use xlink:href="#SVGID_5_"  overflow="visible"/>
	</clipPath>
</g>
<polyline fill="none" stroke="#BCBEC0" points="-192.6,216 -192.6,250.9 407.2,250.9 407.2,216 "/>
<g>
	<defs>
		<rect id="SVGID_7_" x="-306.6" width="828.7" height="285.8"/>
	</defs>
	<clipPath id="SVGID_8_">
		<use xlink:href="#SVGID_7_"  overflow="visible"/>
	</clipPath>
</g>
<g>
	<path fill="#FFFFFF" d="M70.2,100.6V84.3h6.9c2.8,0,4.9,2.6,4.9,5.1c0,2.4-1.5,4.5-3.7,4.9l4,6.3h-1.8l-3.9-6h-4.8v6H70.2z
		 M71.8,93.1h5.4c1.9,0,3.2-1.8,3.2-3.7c0-2-1.5-3.7-3.3-3.7h-5.2V93.1z"/>
	<path fill="#FFFFFF" d="M96.8,99.2v1.4h-11V84.3h10.8v1.4h-9.2v5.9h8v1.4h-8v6.2H96.8z"/>
	<path fill="#FFFFFF" d="M112,85.7h-5.8v14.9h-1.6V85.7h-5.8v-1.4H112V85.7z"/>
	<path fill="#FFFFFF" d="M111.6,100.6l6.8-16.3h1.3l6.8,16.3h-1.7l-2.1-5.1h-7.3l-2.1,5.1H111.6z M119.1,86.2l-3.4,8.1h6.6
		L119.1,86.2z"/>
	<path fill="#FFFFFF" d="M129.4,100.6V84.3h1.6v16.3H129.4z"/>
	<path fill="#FFFFFF" d="M135.6,100.6V84.3h1.6v14.9h9.5v1.4H135.6z"/>
	<path fill="#FFFFFF" d="M31.5,128.2v-16.3h6.8c2.8,0,4.8,2.6,4.8,5.1c0,2.7-1.9,5.2-4.7,5.2h-5.3v6H31.5z M33.1,120.7h5.2
		c1.9,0,3.2-1.8,3.2-3.7c0-2-1.5-3.7-3.3-3.7h-5.1V120.7z"/>
	<path fill="#FFFFFF" d="M57.2,126.8v1.4h-11v-16.3H57v1.4h-9.2v5.9h8v1.4h-8v6.2H57.2z"/>
	<path fill="#FFFFFF" d="M60.8,128.2v-16.3h6.9c2.8,0,4.9,2.6,4.9,5.1c0,2.4-1.5,4.5-3.7,4.9l4,6.3h-1.8l-3.9-6h-4.8v6H60.8z
		 M62.4,120.7h5.4c1.9,0,3.2-1.8,3.2-3.7c0-2-1.5-3.7-3.3-3.7h-5.2V120.7z"/>
	<path fill="#FFFFFF" d="M86,114.9c-0.9-1-2.5-1.7-4.5-1.7c-2.9,0-4.2,1.2-4.2,3c0,1.9,1.4,2.4,4.6,3.1c3.5,0.7,5.6,1.7,5.6,4.6
		c0,3-2.5,4.4-5.9,4.4c-2.6,0-4.8-0.8-6.6-2.4l0.8-1.3c1.2,1.2,3.3,2.3,5.8,2.3c2.6,0,4.2-0.9,4.2-2.8c0-2-1.7-2.6-4.9-3.4
		c-3.4-0.8-5.2-1.6-5.2-4.3c0-3,2.4-4.7,5.8-4.7c2.1,0,3.8,0.7,5.2,1.9L86,114.9z"/>
	<path fill="#FFFFFF" d="M91,128.2v-16.3h6.8c2.8,0,4.8,2.6,4.8,5.1c0,2.7-1.9,5.2-4.7,5.2h-5.3v6H91z M92.5,120.7h5.2
		c1.9,0,3.2-1.8,3.2-3.7c0-2-1.5-3.7-3.3-3.7h-5.1V120.7z"/>
	<path fill="#FFFFFF" d="M116.7,126.8v1.4h-11v-16.3h10.8v1.4h-9.2v5.9h8v1.4h-8v6.2H116.7z"/>
	<path fill="#FFFFFF" d="M127,111.8c2.9,0,5,1.5,6,3.6l-1.3,0.8c-1-2.2-3.1-2.9-4.8-2.9c-3.9,0-6,3.5-6,6.8c0,3.6,2.6,6.9,6.1,6.9
		c1.8,0,4-0.9,5-3l1.3,0.7c-1.1,2.4-4,3.8-6.5,3.8c-4.5,0-7.6-4.3-7.6-8.4C119.2,116,122,111.8,127,111.8z"/>
	<path fill="#FFFFFF" d="M148,113.3h-5.8v14.9h-1.6v-14.9h-5.8v-1.4H148V113.3z"/>
	<path fill="#FFFFFF" d="M151,128.2v-16.3h1.6v16.3H151z"/>
	<path fill="#FFFFFF" d="M157,111.9l5.8,14.3l5.8-14.3h1.7l-6.8,16.3h-1.4l-6.8-16.3H157z"/>
	<path fill="#FFFFFF" d="M184.2,126.8v1.4h-11v-16.3h10.8v1.4h-9.2v5.9h8v1.4h-8v6.2H184.2z"/>
</g>
</svg>
