<?xml version="1.0" encoding="utf-8"?>
<!-- Generator: Adobe Illustrator 18.0.0, SVG Export Plug-In . SVG Version: 6.00 Build 0)  -->
<!DOCTYPE svg PUBLIC "-//W3C//DTD SVG 1.1//EN" "http://www.w3.org/Graphics/SVG/1.1/DTD/svg11.dtd">
<svg version="1.1" id="Layer_1" xmlns="http://www.w3.org/2000/svg" xmlns:xlink="http://www.w3.org/1999/xlink" x="0px" y="0px"
	 viewBox="0 0 653.1 102.2" enable-background="new 0 0 653.1 102.2" xml:space="preserve">
<g>
	<g>
		<path fill="#D1D3D4" d="M26.3,20c0,3.9-2.2,5.8-6.4,5.8H9.6V14.3h10.2C23.8,14.3,26.3,16.1,26.3,20z M35.5,19.8
			c0-9.5-6.9-14.1-15.4-14.1H0.7v44.6h8.9V34.4h9.8C28.6,34.4,35.5,30.1,35.5,19.8z"/>
		<path fill="#D1D3D4" d="M64.5,31.8H54.3l2.9-8.1c0.9-2.6,1.8-5.3,2.2-7c0.4,1.7,1.3,4.4,2.2,7L64.5,31.8z M80.9,50.2L64,5.6h-8.6
			L38.2,50.2h9.5l3.5-9.9h16.3l3.5,9.9H80.9z"/>
		<path fill="#D1D3D4" d="M117.4,20c0,3.9-2.2,5.8-6.4,5.8H99.4V14.3H111C115,14.3,117.4,15.9,117.4,20z M126.6,50.2L118,32.9
			c5.7-2.2,8.5-6.4,8.5-13.1c0-9.5-6.9-14.1-15.4-14.1H90.5v44.6h8.9v-16h9l8,16H126.6z"/>
		<path fill="#D1D3D4" d="M168.2,50.2V31.5h-18.3v18.7H141V5.6h8.9v17.1h18.3V5.6h8.9v44.6H168.2z"/>
		<path fill="#D1D3D4" d="M214.3,31.8h-10.2l2.9-8.1c0.9-2.6,1.8-5.3,2.2-7c0.4,1.7,1.3,4.4,2.2,7L214.3,31.8z M230.6,50.2
			L213.7,5.6H205L188,50.2h9.5l3.5-9.9h16.3l3.5,9.9H230.6z"/>
		<path fill="#D1D3D4" d="M275.6,50.2V33.8c0-2.4,0.1-8.1,0.1-9.8c-0.6,1.7-2,4.9-3.1,7.4l-9,19.8l-9-19.8c-1.1-2.6-2.5-5.7-3.1-7.4
			c0,1.7,0.1,7.4,0.1,9.8v16.4h-8.7V5.6h8.6l9.3,20.2c1.2,2.5,2.5,5.9,3.1,7.5c0.6-1.7,1.9-4.9,3-7.5l9-20.2h8.8v44.6H275.6z"/>
		<path fill="#D1D3D4" d="M357,50.9c-7.5,0-13.9-3.1-17.3-8.1l6.4-5.7c3.1,3.6,7.1,5.1,11.4,5.1c5.3,0,7.8-1.5,7.8-4.9
			c0-2.9-1.5-4.1-9.9-6c-8.2-1.9-14-4.5-14-13.3c0-8.1,7.1-13,15.9-13c6.9,0,12,2.6,16.3,7l-6.4,6.2c-2.9-2.9-6.1-4.6-10.1-4.6
			c-4.8,0-6.4,2-6.4,4c0,2.8,1.9,3.7,9,5.4c7.1,1.6,14.9,4,14.9,13.7C374.5,45.2,369.1,50.9,357,50.9z"/>
		<path fill="#D1D3D4" d="M405.8,31.8h-10.2l2.9-8.1c0.9-2.6,1.8-5.3,2.2-7c0.4,1.7,1.3,4.4,2.2,7L405.8,31.8z M422.1,50.2
			L405.2,5.6h-8.7l-17.1,44.6h9.6l3.5-9.9h16.3l3.5,9.9H422.1z"/>
		<path fill="#D1D3D4" d="M459.8,50.2l-16.4-24.3c-1.1-1.7-2.6-3.9-3.1-5c0,1.7,0.1,7.3,0.1,9.7v19.6h-8.8V5.6h8.5L456,29.2
			c1.1,1.7,2.6,3.9,3.1,5.1c0-1.7-0.1-7.3-0.1-9.8V5.6h8.8v44.6H459.8z"/>
		<path fill="#D1D3D4" d="M500.7,14.4v35.8h-8.9V14.4h-12.8V5.6h34.5v8.8H500.7z"/>
		<path fill="#D1D3D4" d="M541.4,31.8h-10.2l2.9-8.1c0.9-2.6,1.8-5.3,2.2-7c0.4,1.7,1.3,4.4,2.2,7L541.4,31.8z M557.7,50.2l-17-44.6
			h-8.6l-17.1,44.6h9.6l3.5-9.9h16.3l3.5,9.9H557.7z"/>
		<path fill="#D1D3D4" d="M595.5,50.2l-16.4-24.3c-1.1-1.7-2.6-3.9-3.1-5c0,1.7,0.1,7.3,0.1,9.7v19.6h-8.8V5.6h8.5l15.8,23.5
			c1.1,1.7,2.5,3.9,3.1,5.1c0-1.7-0.1-7.3-0.1-9.8V5.6h8.8v44.6H595.5z"/>
		<path fill="#D1D3D4" d="M636.7,31.8h-10.2l2.9-8.1c0.9-2.6,1.8-5.3,2.2-7c0.4,1.7,1.4,4.4,2.2,7L636.7,31.8z M653.1,50.2
			L636.2,5.6h-8.7l-17.1,44.6h9.5l3.5-9.9h16.3l3.5,9.9H653.1z"/>
	</g>
	<g>
		<rect x="313.9" y="0" fill="#D1D3D4" width="2" height="56.2"/>
	</g>
</g>
<g>
	<path fill="#D1D3D4" d="M42.8,85.3h-6.5v-5.3h19v5.3h-6.5v16.4h-6V85.3z"/>
	<path fill="#D1D3D4" d="M59.8,80.1h6v8.1h7.7v-8.1h6v21.7h-6v-8.2h-7.7v8.2h-6V80.1z"/>
	<path fill="#D1D3D4" d="M85.3,80.1h17.5v5.1H91.2v3.3h10.4v4.7H91.2v3.4h11.7v5.1H85.3V80.1z"/>
	<path fill="#D1D3D4" d="M118.3,80.1h11.1c2.7,0,4.7,0.7,5.9,2c0.9,0.9,1.4,2,1.4,3.5v0.1c0,2.5-1.4,4-3.3,4.8
		c2.6,0.9,4.3,2.4,4.3,5.3v0.1c0,3.7-3,6-8.2,6h-11.2V80.1z M127.9,88.7c1.8,0,2.9-0.6,2.9-1.9v-0.1c0-1.2-0.9-1.9-2.7-1.9h-3.9v3.8
		H127.9z M128.8,96.9c1.8,0,2.9-0.7,2.9-2v-0.1c0-1.2-0.9-2-2.9-2h-4.6v4H128.8z"/>
	<path fill="#D1D3D4" d="M142.3,80.1h10.3c3.3,0,5.6,0.9,7.1,2.4c1.3,1.2,1.9,2.9,1.9,5.1v0.1c0,3.3-1.8,5.5-4.5,6.7l5.2,7.6h-6.9
		l-4.4-6.6h-0.1h-2.6v6.6h-6V80.1z M152.3,90.5c2,0,3.2-1,3.2-2.6v-0.1c0-1.7-1.2-2.6-3.3-2.6h-3.9v5.2H152.3z"/>
	<path fill="#D1D3D4" d="M173.6,79.9h5.8l9.2,21.9h-6.4l-1.6-3.9h-8.4l-1.6,3.9h-6.3L173.6,79.9z M178.8,93.2l-2.4-6.2l-2.4,6.2
		H178.8z"/>
	<path fill="#D1D3D4" d="M192.6,80.1h5.6l8.9,11.5V80.1h6v21.7h-5.3l-9.3-11.9v11.9h-6V80.1z"/>
	<path fill="#D1D3D4" d="M218.8,80.1h8.4c7.8,0,12.2,4.5,12.2,10.7v0.1c0,6.3-4.6,10.9-12.4,10.9h-8.2V80.1z M227.2,96.4
		c3.6,0,6-2,6-5.5v-0.1c0-3.5-2.4-5.5-6-5.5h-2.4v11H227.2z"/>
	<path fill="#D1D3D4" d="M254.8,80.1h17.5v5.1h-11.5v3.3h10.4v4.7h-10.4v3.4h11.7v5.1h-17.6V80.1z"/>
	<path fill="#D1D3D4" d="M283.2,90.7L276,80.1h6.9l3.8,6.1l3.9-6.1h6.8l-7.1,10.6l7.4,11.1h-6.9l-4.2-6.5l-4.2,6.5h-6.8L283.2,90.7z
		"/>
	<path fill="#D1D3D4" d="M307.2,85.3h-6.5v-5.3h19v5.3h-6.5v16.4h-6V85.3z"/>
	<path fill="#D1D3D4" d="M324.2,80.1h17.5v5.1h-11.5v3.3h10.4v4.7h-10.4v3.4h11.7v5.1h-17.6V80.1z"/>
	<path fill="#D1D3D4" d="M346.7,80.1h5.6l8.9,11.5V80.1h6v21.7h-5.3l-9.3-11.9v11.9h-6V80.1z"/>
	<path fill="#D1D3D4" d="M371.3,98.5l3.3-4c2.1,1.7,4.5,2.6,7,2.6c1.6,0,2.5-0.6,2.5-1.5v-0.1c0-0.9-0.7-1.4-3.7-2.1
		c-4.6-1.1-8.2-2.4-8.2-6.8v-0.1c0-4,3.2-6.9,8.4-6.9c3.7,0,6.6,1,8.9,2.9l-3,4.2c-2-1.4-4.2-2.1-6.1-2.1c-1.5,0-2.2,0.6-2.2,1.4
		v0.1c0,1,0.7,1.4,3.8,2.1c5,1.1,8.1,2.7,8.1,6.8v0.1c0,4.4-3.5,7.1-8.8,7.1C377.6,102.1,373.9,100.9,371.3,98.5z"/>
	<path fill="#D1D3D4" d="M395.1,80.1h6v21.7h-6V80.1z"/>
	<path fill="#D1D3D4" d="M406.2,91L406.2,91c0-6.3,5-11.3,11.7-11.3c6.7,0,11.7,5,11.7,11.2v0.1c0,6.2-5,11.3-11.7,11.3
		C411.2,102.2,406.2,97.2,406.2,91z M423.5,91L423.5,91c0-3.2-2.3-5.9-5.6-5.9c-3.3,0-5.5,2.7-5.5,5.8v0.1c0,3.1,2.3,5.9,5.5,5.9
		C421.3,96.8,423.5,94.1,423.5,91z"/>
	<path fill="#D1D3D4" d="M434.6,80.1h5.6l8.9,11.5V80.1h6v21.7h-5.3l-9.3-11.9v11.9h-6V80.1z"/>
	<path fill="#D1D3D4" d="M478.8,79.9h5.8l9.2,21.9h-6.4l-1.6-3.9h-8.4l-1.6,3.9h-6.3L478.8,79.9z M484,93.2l-2.4-6.2l-2.4,6.2H484z"
		/>
	<path fill="#D1D3D4" d="M495.6,91L495.6,91c0-6.4,5-11.3,11.7-11.3c3.8,0,6.5,1.2,8.8,3.2l-3.5,4.2c-1.6-1.3-3.1-2-5.2-2
		c-3.1,0-5.5,2.6-5.5,6V91c0,3.5,2.4,6,5.9,6c1.5,0,2.6-0.3,3.5-0.9v-2.6h-4.3v-4.4h10v9.8c-2.3,1.9-5.5,3.3-9.4,3.3
		C500.7,102.2,495.6,97.5,495.6,91z"/>
	<path fill="#D1D3D4" d="M522.1,80.1h17.5v5.1H528v3.3h10.4v4.7H528v3.4h11.7v5.1h-17.6V80.1z"/>
	<path fill="#D1D3D4" d="M544.6,80.1h5.6l8.9,11.5V80.1h6v21.7h-5.3l-9.3-11.9v11.9h-6V80.1z"/>
	<path fill="#D1D3D4" d="M570,91L570,91c0-6.4,4.9-11.3,11.4-11.3c4.4,0,7.3,1.9,9.2,4.5l-4.5,3.5c-1.2-1.6-2.7-2.5-4.7-2.5
		c-3,0-5.2,2.6-5.2,5.7v0.1c0,3.3,2.1,5.8,5.2,5.8c2.3,0,3.6-1.1,4.9-2.6l4.5,3.2c-2,2.8-4.8,4.9-9.6,4.9C575,102.2,570,97.5,570,91
		z"/>
	<path fill="#D1D3D4" d="M600.9,93.6l-8.2-13.6h6.9L604,88l4.5-7.9h6.7L607,93.5v8.2h-6V93.6z"/>
</g>
</svg>
