<?xml version="1.0" encoding="utf-8"?>
<!-- Generator: Adobe Illustrator 17.1.0, SVG Export Plug-In . SVG Version: 6.00 Build 0)  -->
<!DOCTYPE svg PUBLIC "-//W3C//DTD SVG 1.1//EN" "http://www.w3.org/Graphics/SVG/1.1/DTD/svg11.dtd">
<svg version="1.1" id="Layer_1" xmlns="http://www.w3.org/2000/svg" xmlns:xlink="http://www.w3.org/1999/xlink" x="0px" y="0px"
	 viewBox="0 0 653.1 56.2" enable-background="new 0 0 653.1 56.2" xml:space="preserve">
<g>
	<g>
		<path fill="#F26531" d="M26.3,20c0,3.9-2.2,5.8-6.4,5.8H9.6V14.3h10.2C23.8,14.3,26.3,16.1,26.3,20z M35.5,19.8
			c0-9.5-6.9-14.1-15.4-14.1H0.7v44.6h8.9V34.4h9.8C28.6,34.4,35.5,30.1,35.5,19.8z"/>
		<path fill="#F26531" d="M64.5,31.8H54.3l2.9-8.1c0.9-2.6,1.8-5.3,2.2-7c0.4,1.7,1.3,4.4,2.2,7L64.5,31.8z M80.9,50.2L64,5.6h-8.6
			L38.2,50.2h9.5l3.5-9.9h16.3l3.5,9.9H80.9z"/>
		<path fill="#F26531" d="M117.4,20c0,3.9-2.2,5.8-6.4,5.8H99.4V14.3H111C115,14.3,117.4,15.9,117.4,20z M126.6,50.2L118,32.9
			c5.7-2.2,8.5-6.4,8.5-13.1c0-9.5-6.9-14.1-15.4-14.1H90.5v44.6h8.9v-16h9l8,16H126.6z"/>
		<path fill="#F26531" d="M168.2,50.2V31.5h-18.3v18.7H141V5.6h8.9v17.1h18.3V5.6h8.9v44.6H168.2z"/>
		<path fill="#F26531" d="M214.3,31.8h-10.2l2.9-8.1c0.9-2.6,1.8-5.3,2.2-7c0.4,1.7,1.3,4.4,2.2,7L214.3,31.8z M230.6,50.2
			L213.7,5.6H205L188,50.2h9.5l3.5-9.9h16.3l3.5,9.9H230.6z"/>
		<path fill="#F26531" d="M275.6,50.2V33.8c0-2.4,0.1-8.1,0.1-9.8c-0.6,1.7-2,4.9-3.1,7.4l-9,19.8l-9-19.8c-1.1-2.6-2.5-5.7-3.1-7.4
			c0,1.7,0.1,7.4,0.1,9.8v16.4h-8.7V5.6h8.6l9.3,20.2c1.2,2.5,2.5,5.9,3.1,7.5c0.6-1.7,1.9-4.9,3-7.5l9-20.2h8.8v44.6H275.6z"/>
		<path fill="#F26531" d="M357,50.9c-7.5,0-13.9-3.1-17.3-8.1l6.4-5.7c3.1,3.6,7.1,5.1,11.4,5.1c5.3,0,7.8-1.5,7.8-4.9
			c0-2.9-1.5-4.1-9.9-6c-8.2-1.9-14-4.5-14-13.3c0-8.1,7.1-13,15.9-13c6.9,0,12,2.6,16.3,7l-6.4,6.2c-2.9-2.9-6.1-4.6-10.1-4.6
			c-4.8,0-6.4,2-6.4,4c0,2.8,1.9,3.7,9,5.4c7.1,1.6,14.9,4,14.9,13.7C374.5,45.2,369.1,50.9,357,50.9z"/>
		<path fill="#F26531" d="M405.8,31.8h-10.2l2.9-8.1c0.9-2.6,1.8-5.3,2.2-7c0.4,1.7,1.3,4.4,2.2,7L405.8,31.8z M422.1,50.2
			L405.2,5.6h-8.7l-17.1,44.6h9.6l3.5-9.9h16.3l3.5,9.9H422.1z"/>
		<path fill="#F26531" d="M459.8,50.2l-16.4-24.3c-1.1-1.7-2.6-3.9-3.1-5c0,1.7,0.1,7.3,0.1,9.7v19.6h-8.8V5.6h8.5L456,29.2
			c1.1,1.7,2.6,3.9,3.1,5.1c0-1.7-0.1-7.3-0.1-9.8V5.6h8.8v44.6H459.8z"/>
		<path fill="#F26531" d="M500.7,14.4v35.8h-8.9V14.4h-12.8V5.6h34.5v8.8H500.7z"/>
		<path fill="#F26531" d="M541.4,31.8h-10.2l2.9-8.1c0.9-2.6,1.8-5.3,2.2-7c0.4,1.7,1.3,4.4,2.2,7L541.4,31.8z M557.7,50.2l-17-44.6
			h-8.6l-17.1,44.6h9.6l3.5-9.9h16.3l3.5,9.9H557.7z"/>
		<path fill="#F26531" d="M595.5,50.2l-16.4-24.3c-1.1-1.7-2.6-3.9-3.1-5c0,1.7,0.1,7.3,0.1,9.7v19.6h-8.8V5.6h8.5l15.8,23.5
			c1.1,1.7,2.5,3.9,3.1,5.1c0-1.7-0.1-7.3-0.1-9.8V5.6h8.8v44.6H595.5z"/>
		<path fill="#F26531" d="M636.7,31.8h-10.2l2.9-8.1c0.9-2.6,1.8-5.3,2.2-7c0.4,1.7,1.4,4.4,2.2,7L636.7,31.8z M653.1,50.2
			L636.2,5.6h-8.7l-17.1,44.6h9.5l3.5-9.9h16.3l3.5,9.9H653.1z"/>
	</g>
	<g>
		<rect x="313.9" y="0" fill="#F26531" width="2" height="56.2"/>
	</g>
</g>
</svg>
