<?xml version="1.0" encoding="utf-8"?>
<!-- Generator: Adobe Illustrator 17.1.0, SVG Export Plug-In . SVG Version: 6.00 Build 0)  -->
<!DOCTYPE svg PUBLIC "-//W3C//DTD SVG 1.1//EN" "http://www.w3.org/Graphics/SVG/1.1/DTD/svg11.dtd">
<svg version="1.1" id="Layer_1" xmlns="http://www.w3.org/2000/svg" xmlns:xlink="http://www.w3.org/1999/xlink" x="0px" y="0px"
	 viewBox="0 0 579.7 24.5" enable-background="new 0 0 579.7 24.5" xml:space="preserve">
<g>
	<path d="M7.3,6.6H0.8V1.3h19v5.3h-6.5V23h-6V6.6z"/>
	<path d="M24.3,1.3h6v8.1h7.7V1.3h6V23h-6v-8.2h-7.7V23h-6V1.3z"/>
	<path d="M49.8,1.3h17.5v5.1H55.7v3.3h10.4v4.7H55.7v3.4h11.7V23H49.8V1.3z"/>
	<path d="M82.8,1.3h11.1c2.7,0,4.7,0.7,5.9,2c0.9,0.9,1.4,2,1.4,3.5v0.1c0,2.5-1.4,4-3.3,4.8c2.6,0.9,4.3,2.4,4.3,5.3v0.1
		c0,3.7-3,6-8.2,6H82.8V1.3z M92.4,10c1.8,0,2.9-0.6,2.9-1.9V8c0-1.2-0.9-1.9-2.7-1.9h-3.9V10H92.4z M93.3,18.2c1.8,0,2.9-0.7,2.9-2
		v-0.1c0-1.2-0.9-2-2.9-2h-4.6v4H93.3z"/>
	<path d="M106.8,1.3h10.3c3.3,0,5.6,0.9,7.1,2.4c1.3,1.2,1.9,2.9,1.9,5.1v0.1c0,3.3-1.8,5.5-4.5,6.7l5.2,7.6h-6.9l-4.4-6.6h-0.1
		h-2.6V23h-6V1.3z M116.8,11.8c2,0,3.2-1,3.2-2.6V9.1c0-1.7-1.2-2.6-3.3-2.6h-3.9v5.2H116.8z"/>
	<path d="M138.1,1.2h5.8l9.2,21.9h-6.4l-1.6-3.9h-8.4l-1.6,3.9h-6.3L138.1,1.2z M143.3,14.5l-2.4-6.2l-2.4,6.2H143.3z"/>
	<path d="M157.1,1.3h5.6l8.9,11.5V1.3h6V23h-5.3L163,11.1V23h-6V1.3z"/>
	<path d="M183.3,1.3h8.4c7.8,0,12.2,4.5,12.2,10.7v0.1c0,6.3-4.6,10.9-12.4,10.9h-8.2V1.3z M191.7,17.7c3.6,0,6-2,6-5.5v-0.1
		c0-3.5-2.4-5.5-6-5.5h-2.4v11H191.7z"/>
	<path d="M219.3,1.3h17.5v5.1h-11.5v3.3h10.4v4.7h-10.4v3.4h11.7V23h-17.6V1.3z"/>
	<path d="M247.7,12l-7.1-10.7h6.9l3.8,6.1l3.9-6.1h6.8l-7.1,10.6l7.4,11.1h-6.9l-4.2-6.5L247,23h-6.8L247.7,12z"/>
	<path d="M271.7,6.6h-6.5V1.3h19v5.3h-6.5V23h-6V6.6z"/>
	<path d="M288.7,1.3h17.5v5.1h-11.5v3.3h10.4v4.7h-10.4v3.4h11.7V23h-17.6V1.3z"/>
	<path d="M311.2,1.3h5.6l8.9,11.5V1.3h6V23h-5.3l-9.3-11.9V23h-6V1.3z"/>
	<path d="M335.8,19.8l3.3-4c2.1,1.7,4.5,2.6,7,2.6c1.6,0,2.5-0.6,2.5-1.5v-0.1c0-0.9-0.7-1.4-3.7-2.1c-4.6-1.1-8.2-2.4-8.2-6.8V7.9
		c0-4,3.2-6.9,8.4-6.9c3.7,0,6.6,1,8.9,2.9l-3,4.2c-2-1.4-4.2-2.1-6.1-2.1c-1.5,0-2.2,0.6-2.2,1.4v0.1c0,1,0.7,1.4,3.8,2.1
		c5,1.1,8.1,2.7,8.1,6.8v0.1c0,4.4-3.5,7.1-8.8,7.1C342.1,23.4,338.5,22.2,335.8,19.8z"/>
	<path d="M359.6,1.3h6V23h-6V1.3z"/>
	<path d="M370.8,12.2L370.8,12.2c0-6.3,5-11.3,11.7-11.3s11.7,5,11.7,11.2v0.1c0,6.2-5,11.3-11.7,11.3S370.8,18.5,370.8,12.2z
		 M388,12.2L388,12.2c0-3.2-2.3-5.9-5.6-5.9c-3.3,0-5.5,2.7-5.5,5.8v0.1c0,3.1,2.3,5.9,5.5,5.9C385.8,18,388,15.4,388,12.2z"/>
	<path d="M399.1,1.3h5.6l8.9,11.5V1.3h6V23h-5.3l-9.3-11.9V23h-6V1.3z"/>
	<path d="M443.3,1.2h5.8l9.2,21.9h-6.4l-1.6-3.9h-8.4l-1.6,3.9H434L443.3,1.2z M448.5,14.5l-2.4-6.2l-2.4,6.2H448.5z"/>
	<path d="M460.1,12.2L460.1,12.2c0-6.4,5-11.3,11.7-11.3c3.8,0,6.5,1.2,8.8,3.2l-3.5,4.2c-1.6-1.3-3.1-2-5.2-2c-3.1,0-5.5,2.6-5.5,6
		v0.1c0,3.5,2.4,6,5.9,6c1.5,0,2.6-0.3,3.5-0.9v-2.6h-4.3v-4.4h10v9.8c-2.3,1.9-5.5,3.3-9.4,3.3C465.2,23.5,460.1,18.8,460.1,12.2z"
		/>
	<path d="M486.6,1.3H504v5.1h-11.5v3.3h10.4v4.7h-10.4v3.4h11.7V23h-17.6V1.3z"/>
	<path d="M509.1,1.3h5.6l8.9,11.5V1.3h6V23h-5.3l-9.3-11.9V23h-6V1.3z"/>
	<path d="M534.6,12.2L534.6,12.2c0-6.4,4.9-11.3,11.4-11.3c4.4,0,7.3,1.9,9.2,4.5l-4.5,3.5c-1.2-1.6-2.7-2.5-4.7-2.5
		c-3,0-5.2,2.6-5.2,5.7v0.1c0,3.3,2.1,5.8,5.2,5.8c2.3,0,3.6-1.1,4.9-2.6l4.5,3.2c-2,2.8-4.8,4.9-9.6,4.9
		C539.6,23.5,534.6,18.7,534.6,12.2z"/>
	<path d="M565.4,14.9l-8.2-13.6h6.9l4.5,7.9l4.5-7.9h6.7l-8.2,13.5V23h-6V14.9z"/>
</g>
</svg>
