<?xml version="1.0" encoding="utf-8"?>
<!-- Generator: Adobe Illustrator 17.1.0, SVG Export Plug-In . SVG Version: 6.00 Build 0)  -->
<!DOCTYPE svg PUBLIC "-//W3C//DTD SVG 1.1//EN" "http://www.w3.org/Graphics/SVG/1.1/DTD/svg11.dtd">
<svg version="1.1" id="Layer_1" xmlns="http://www.w3.org/2000/svg" xmlns:xlink="http://www.w3.org/1999/xlink" x="0px" y="0px"
	 viewBox="0 0 44.3 54.2" enable-background="new 0 0 44.3 54.2" xml:space="preserve">
<g>
	<path fill="#D71B32" d="M1.4,20.9C1.4,9.4,10.7,0,22.2,0C33.8,0,43,9.3,43,20.9c0,11.5-9.3,20.8-20.7,20.8
		C10.7,41.7,1.4,32.5,1.4,20.9z M22.2,34.8c7.6,0,13.9-6.2,13.9-13.8c0-7.7-6.3-14.1-14-14c-7.7,0-13.9,6.3-13.9,14
		C8.3,28.5,14.6,34.8,22.2,34.8z"/>
	<path fill="#D71B32" d="M29.4,51.5c0,0.2,0,0.5,0,0.7c0,1.7,0,1.7-1.8,1.4c-0.4-0.1-0.6,0.2-0.9,0.3c-2.4,0.9-4.5-0.2-5.2-2.6
		c-0.7-2.4-0.1-4.7,1.5-5.9c1.9-1.5,4.9-0.9,5.9,1.2c0.2,0.3,0.6,0.8,0.2,1c-0.5,0.3-1.3,0.4-1.6-0.2c-0.7-1-1.4-1.8-2.7-1.1
		c-1.2,0.6-1.9,2.2-1.5,3.6c0.2,1,0.5,2,1.7,2.4c0.8,0.3,1.5,0,2.1-0.5c0.3-0.2,0.5-0.6,0.4-1c-0.1-0.4-0.5-0.3-0.8-0.3
		c-0.6,0-1.1,0-1-0.9c0-0.5,0.2-0.8,0.8-0.8c0.2,0,0.4,0,0.6,0C29.4,48.9,29.4,48.9,29.4,51.5z"/>
	<path fill="#D71B32" d="M13.9,49.5c0-1.2,0-2.4,0-3.6c0-0.7,0.2-0.9,0.9-0.9c1.2,0,2.3,0,3.5,0c2.2,0.1,3.3,2,2,3.9
		c-0.4,0.6-0.4,0.9,0,1.5c0.6,1,0.1,2.2,0.4,3.3c0.1,0.4-0.5,0.2-0.8,0.2c-0.5,0-1.1,0-1.2-0.7c-0.1-0.5,0-1-0.1-1.6
		c0-1.3-1-1.1-1.8-1.1c-1-0.1-1,0.5-1,1.2c0,0.4,0,0.8,0,1.2c0.1,0.8-0.2,1-1,1c-0.8,0-0.9-0.3-0.9-1C14,51.8,13.9,50.7,13.9,49.5z
		 M17.2,46.7c-0.4,0.2-1-0.3-1.3,0.4c-0.2,0.4-0.3,1,0.1,1.2c0.7,0.4,1.5,0.3,2.3,0.1c0.4-0.1,0.7-0.4,0.6-0.9
		c0-0.4-0.3-0.7-0.7-0.7C18,46.7,17.6,46.7,17.2,46.7z"/>
	<path fill="#D71B32" d="M30.2,49.4c0-1.2,0-2.3,0-3.5c0-0.7,0.3-1,1-1c1.6,0,3.1,0,4.7,0c0.7,0,0.9,0.3,0.9,0.9
		c0,0.6-0.3,0.8-0.9,0.8c-0.9,0-1.8,0-2.8,0c-0.6,0-0.8,0.2-0.9,0.8c0,0.6,0.3,0.8,0.9,0.8c0.7,0,1.4,0,2,0c0.6,0,0.9,0.2,0.9,0.8
		c0,0.6-0.2,0.9-0.8,0.8c-0.6,0-1.2,0-1.8,0c-0.8-0.1-1.2,0.2-1.2,1c0,0.9,0.4,1.1,1.1,1c0.8,0,1.6,0,2.4,0c0.7,0,1,0.3,1,1
		c0,0.7-0.2,0.9-0.9,0.9c-1.6,0-3.2,0-4.8,0c-0.6,0-0.8-0.2-0.8-0.8C30.2,51.9,30.2,50.7,30.2,49.4z"/>
	<path fill="#D71B32" d="M5.3,54c0.9-2.9,1.9-5.5,2.7-8.2C8.2,44.9,8.9,45,9.5,45c0.7-0.1,1.1,0.2,1.3,0.9c0.8,2.3,1.6,4.5,2.3,6.8
		c0.1,0.4,0.8,1-0.1,1.2c-0.7,0.1-1.7,0.5-1.9-0.7c-0.2-1-0.8-1.2-1.7-1.2c-0.9,0-1.5,0.1-1.8,1.1C7.4,54.5,6.3,53.8,5.3,54z
		 M9.5,48.5c-0.3,0.6-1,1.1-0.6,1.9c0.1,0.3,0.8,0.3,1,0C10.4,49.7,9.6,49.2,9.5,48.5z"/>
	<path fill="#D71B32" d="M4.7,50.5c0,0.8-0.1,1.5,0,2.3c0.1,1-0.3,1.3-1.3,1.3c-0.7,0-1-0.3-0.9-1c0-1.6-0.1-3.2,0-4.8
		c0.1-1.2-0.2-1.8-1.5-1.5c-0.8,0.1-1.1-0.2-1-1c0-0.5,0.2-0.7,0.7-0.7c1.9,0,3.7,0,5.6,0c0.6,0,0.8,0.3,0.8,0.8
		c0,0.5,0,0.8-0.7,0.9c-1.7,0.2-1.7,0.2-1.7,2C4.7,49.3,4.7,49.9,4.7,50.5z"/>
	<path fill="#D71B32" d="M40.7,45c0.9,0,1.8,0,2.8,0c0.6,0,0.8,0.3,0.8,0.9c0,0.6-0.2,0.8-0.8,0.9c-1.7,0.1-1.7,0.1-1.7,1.9
		c0,1.4,0,2.7,0,4.1c0,0.8,0.1,1.3-1.1,1.3c-1.2,0-1-0.7-1-1.4c0-1.5-0.1-3,0-4.4c0.1-1.1-0.2-1.7-1.4-1.5c-0.6,0.1-1.1,0-1.1-0.8
		c0-0.6,0.2-0.9,0.8-0.9C38.8,45,39.7,45,40.7,45z"/>
	<path fill="#D71B32" d="M22.2,27.8c-4,0-7.1-3.1-7.1-7.2c0-4,3.2-7.1,7.1-7.1c3.9,0,7.2,3.2,7.2,7.2C29.4,24.6,26.2,27.8,22.2,27.8
		z"/>
</g>
</svg>
