<?xml version="1.0" encoding="utf-8"?>
<!-- Generator: Adobe Illustrator 18.1.1, SVG Export Plug-In . SVG Version: 6.00 Build 0)  -->
<!DOCTYPE svg PUBLIC "-//W3C//DTD SVG 1.1//EN" "http://www.w3.org/Graphics/SVG/1.1/DTD/svg11.dtd">
<svg version="1.1" id="Layer_1" xmlns="http://www.w3.org/2000/svg" xmlns:xlink="http://www.w3.org/1999/xlink" x="0px" y="0px"
	 viewBox="0 0 766.1 40.9" enable-background="new 0 0 766.1 40.9" xml:space="preserve">
<g>
	<path d="M13.2,11.9H3.9V4.4H31v7.5h-9.3v23.4h-8.5V11.9z"/>
	<path d="M37.7,4.4h8.5V16h11V4.4h8.5v30.8h-8.5V23.5h-11v11.7h-8.5V4.4z"/>
	<path d="M74.2,4.4H99v7.3H82.6v4.7h14.8v6.7H82.6V28h16.6v7.3h-25V4.4z"/>
	<path d="M119.3,30.7l4.8-5.7c3,2.4,6.4,3.7,10,3.7c2.3,0,3.5-0.8,3.5-2.1v-0.1c0-1.3-1-2-5.2-3c-6.6-1.5-11.6-3.3-11.6-9.7v-0.1
		c0-5.7,4.5-9.9,11.9-9.9c5.2,0,9.3,1.4,12.7,4.1l-4.3,6c-2.8-2-5.9-3-8.6-3c-2.1,0-3.1,0.9-3.1,2v0.1c0,1.4,1.1,2,5.3,3
		c7.1,1.5,11.5,3.8,11.5,9.6v0.1c0,6.3-5,10-12.5,10C128.3,35.8,123.1,34.1,119.3,30.7z"/>
	<path d="M160,11.9h-9.3V4.4h27.1v7.5h-9.3v23.4H160V11.9z"/>
	<path d="M193.4,23.7L181.7,4.4h9.7l6.3,11.2l6.4-11.2h9.6L202,23.6v11.7h-8.6V23.7z"/>
	<path d="M219.3,4.4h8.5v23.4h14.9v7.5h-23.5V4.4z"/>
	<path d="M249.4,4.4h24.8v7.3h-16.3v4.7h14.8v6.7h-14.8V28h16.6v7.3h-25V4.4z"/>
	<path d="M295.9,19.9L295.9,19.9c0-9.1,7.1-16.1,16.6-16.1c5.4,0,9.3,1.7,12.5,4.5l-5,6c-2.2-1.9-4.4-2.9-7.4-2.9
		c-4.5,0-7.9,3.7-7.9,8.5V20c0,5,3.5,8.5,8.4,8.5c2.1,0,3.7-0.4,4.9-1.3v-3.7h-6.1v-6.3h14.2v13.9c-3.3,2.7-7.8,4.8-13.4,4.8
		C303.1,35.9,295.9,29.3,295.9,19.9z"/>
	<path d="M333.4,21.7V4.4h8.7v17.1c0,4.5,2.2,6.6,5.7,6.6c3.4,0,5.7-2,5.7-6.3V4.4h8.7v17.1c0,10-5.7,14.3-14.5,14.3
		C338.9,35.8,333.4,31.4,333.4,21.7z"/>
	<path d="M370.3,4.4h8.6v30.8h-8.6V4.4z"/>
	<path d="M387.5,4.4h11.9c11,0,17.4,6.3,17.4,15.2v0.1c0,8.9-6.5,15.5-17.6,15.5h-11.7V4.4z M399.5,27.7c5.1,0,8.5-2.8,8.5-7.8v-0.1
		c0-4.9-3.4-7.8-8.5-7.8H396v15.7H399.5z"/>
	<path d="M424.2,4.4H449v7.3h-16.3v4.7h14.8v6.7h-14.8V28h16.6v7.3h-25V4.4z"/>
	<path d="M471.7,4.4h13.2c7.8,0,12.8,4,12.8,10.8v0.1c0,7.3-5.6,11.1-13.3,11.1h-4.2v8.8h-8.5V4.4z M484.3,19.8c3,0,4.9-1.6,4.9-4
		v-0.1c0-2.6-1.8-4.1-4.9-4.1h-4v8.2H484.3z"/>
	<path d="M503.2,19.9L503.2,19.9c0-8.9,7.1-16.1,16.7-16.1c9.5,0,16.6,7.1,16.6,16v0.1c0,8.9-7.1,16-16.7,16
		C510.3,35.9,503.2,28.8,503.2,19.9z M527.7,19.9L527.7,19.9c0-4.5-3.2-8.4-7.9-8.4c-4.7,0-7.8,3.8-7.8,8.2v0.1
		c0,4.5,3.2,8.3,7.9,8.3C524.6,28.2,527.7,24.4,527.7,19.9z"/>
	<path d="M543.8,4.4h14.6c4.7,0,8,1.2,10,3.3c1.8,1.8,2.7,4.1,2.7,7.2V15c0,4.7-2.5,7.8-6.3,9.5l7.4,10.8h-9.9l-6.2-9.3H556h-3.7
		v9.3h-8.5V4.4z M558,19.2c2.9,0,4.6-1.4,4.6-3.7v-0.1c0-2.4-1.8-3.7-4.6-3.7h-5.6v7.4H558z"/>
	<path d="M586,11.9h-9.3V4.4h27.1v7.5h-9.3v23.4H586V11.9z"/>
	<path d="M610.5,4.4h24.7v7.5h-16.1v5.2h14.6v7.1h-14.6v11h-8.5V4.4z"/>
	<path d="M641,19.9L641,19.9c0-8.9,7.1-16.1,16.7-16.1c9.5,0,16.6,7.1,16.6,16v0.1c0,8.9-7.1,16-16.7,16C648,35.9,641,28.8,641,19.9
		z M665.5,19.9L665.5,19.9c0-4.5-3.2-8.4-7.9-8.4c-4.7,0-7.8,3.8-7.8,8.2v0.1c0,4.5,3.2,8.3,7.9,8.3
		C662.3,28.2,665.5,24.4,665.5,19.9z"/>
	<path d="M681.6,4.4h8.5v23.4h14.9v7.5h-23.5V4.4z"/>
	<path d="M711.9,4.4h8.6v30.8h-8.6V4.4z"/>
	<path d="M728,19.9L728,19.9c0-8.9,7.1-16.1,16.7-16.1c9.5,0,16.6,7.1,16.6,16v0.1c0,8.9-7.1,16-16.7,16C735,35.9,728,28.8,728,19.9
		z M752.5,19.9L752.5,19.9c0-4.5-3.2-8.4-7.9-8.4c-4.7,0-7.8,3.8-7.8,8.2v0.1c0,4.5,3.2,8.3,7.9,8.3
		C749.4,28.2,752.5,24.4,752.5,19.9z"/>
</g>
</svg>
