<?xml version="1.0" encoding="utf-8"?>
<!-- Generator: Adobe Illustrator 18.0.0, SVG Export Plug-In . SVG Version: 6.00 Build 0)  -->
<!DOCTYPE svg PUBLIC "-//W3C//DTD SVG 1.1//EN" "http://www.w3.org/Graphics/SVG/1.1/DTD/svg11.dtd">
<svg version="1.1" id="Layer_1" xmlns="http://www.w3.org/2000/svg" xmlns:xlink="http://www.w3.org/1999/xlink" x="0px" y="0px"
	 viewBox="0 0 165.2 165.4" enable-background="new 0 0 165.2 165.4" xml:space="preserve">
<circle fill="#F26531" cx="82.5" cy="82.9" r="82.5"/>
<g>
	<path fill="#FFFFFF" d="M73.5,102.2v9.9H35.4v-9.9h14.2V67.3c-2.4,3.1-11.1,7.5-16.3,7.5V64.5c5.4,0,15.3-7.6,16.3-9.5h11.2v47.2
		H73.5z"/>
	<path fill="#FFFFFF" d="M106.6,113.1c-14.7,0-25.6-12.7-25.6-30.3s10.9-30.4,25.6-30.4c14.6,0,25.5,12.8,25.5,30.4
		S121.2,113.1,106.6,113.1z M106.6,62.6c-8.7,0-14.6,8.2-14.6,20.2c0,12,5.9,20.1,14.6,20.1c8.4,0,14.4-8.1,14.4-20.1
		C121,70.8,115,62.6,106.6,62.6z"/>
</g>
</svg>
