<?xml version="1.0" encoding="utf-8"?>
<!-- Generator: Adobe Illustrator 18.0.0, SVG Export Plug-In . SVG Version: 6.00 Build 0)  -->
<!DOCTYPE svg PUBLIC "-//W3C//DTD SVG 1.1//EN" "http://www.w3.org/Graphics/SVG/1.1/DTD/svg11.dtd">
<svg version="1.1" id="Layer_1" xmlns="http://www.w3.org/2000/svg" xmlns:xlink="http://www.w3.org/1999/xlink" x="0px" y="0px"
	 viewBox="0 0 504 170.8" enable-background="new 0 0 504 170.8" xml:space="preserve">
<circle fill="#FDB913" cx="49.6" cy="45" r="40.3"/>
<g>
	<path fill="#FFFFFF" d="M21.7,57.1c0-4.9,1.3-8.1,6.9-11.2c4-2.2,7.4-3.4,7.4-6.1c0-1.8-1.6-3.6-4.6-3.6c-3.1,0-5.1,1.9-6.4,3.4
		l-3-3.5c1.2-1.3,5-4.1,10.2-4.1c5.5,0,8.9,3.1,8.9,7.1c0,4.3-3.8,6.4-6.4,7.7c-2.3,1.2-5.9,3.1-6.7,5.9h13.5v4.3H21.7z"/>
	<path fill="#FFFFFF" d="M66.1,53.3c0,6.1-4.8,10.2-11.1,10.2c-4.3,0-8.1-2.2-9.9-5.5l2.8-2.7c1.6,2.4,4.3,4,7.1,4
		c3.5,0,6.1-2.4,6.1-6c0-3.4-2.5-5.8-5.8-5.8c-2.2,0-4.2,1-5.4,2.8h-4.2c0.2-1,3.4-17.8,3.4-17.8h15v4.3H52.8l-1.5,8.3
		c1-1.1,2.7-1.8,4.8-1.8C61.8,43.4,66.1,47.5,66.1,53.3z"/>
	<path fill="#FFFFFF" d="M82.1,39.9v3.8h-4.7v5.2H73v-5.2h-4.8v-3.8H73v-5.2h4.3v5.2H82.1z"/>
</g>
<g>
	<path d="M18.1,101.1l2.8,4.6l2.8-4.6h0.9l-3.3,5.3v3.2h-0.8v-3.2l-3.3-5.3H18.1z"/>
	<path d="M32.4,108.9v0.7h-5.7v-8.5h5.6v0.7h-4.8v3.1h4.2v0.7h-4.2v3.2H32.4z"/>
	<path d="M34.1,109.6l3.6-8.5h0.7l3.6,8.5H41l-1.1-2.7h-3.8l-1.1,2.7H34.1z M38,102.1l-1.8,4.2h3.5L38,102.1z"/>
	<path d="M44.1,109.6v-8.5h3.6c1.5,0,2.5,1.4,2.5,2.7c0,1.2-0.8,2.3-1.9,2.6l2.1,3.3h-0.9l-2-3.1H45v3.1H44.1z M45,105.7h2.8
		c1,0,1.7-0.9,1.7-2c0-1-0.8-1.9-1.7-1.9H45V105.7z"/>
	<path d="M58,102.7c-0.5-0.5-1.3-0.9-2.3-0.9c-1.5,0-2.2,0.6-2.2,1.6c0,1,0.7,1.3,2.4,1.6c1.8,0.4,2.9,0.9,2.9,2.4
		c0,1.6-1.3,2.3-3.1,2.3c-1.3,0-2.5-0.4-3.4-1.2l0.4-0.7c0.6,0.6,1.7,1.2,3,1.2c1.4,0,2.2-0.5,2.2-1.5c0-1-0.9-1.4-2.6-1.8
		c-1.8-0.4-2.7-0.8-2.7-2.2c0-1.6,1.2-2.4,3-2.4c1.1,0,2,0.4,2.7,1L58,102.7z"/>
	<path d="M65.4,109.6v-8.5h0.8v8.5H65.4z"/>
	<path d="M70.1,102.7v7h-0.8v-8.5h0.6l5.6,7.1v-7.1h0.8v8.5h-0.7L70.1,102.7z"/>
	<path d="M21.7,127.6h-4v-8.5h4.1c1.2,0,1.9,1.1,1.9,2.2c0,0.9-0.5,1.6-1.2,2c1,0.3,1.6,1.1,1.6,2.2C24.1,126.7,23,127.6,21.7,127.6
		z M18.6,119.9v3.1h2.9c0.8,0,1.5-0.7,1.5-1.6c0-0.9-0.6-1.6-1.4-1.6H18.6z M21.8,123.7h-3.3v3.2h3.2c0.9,0,1.5-0.8,1.5-1.6
		C23.3,124.5,22.7,123.7,21.8,123.7z"/>
	<path d="M32.9,123.4v-4.3h0.8v4.3c0,2.3-1,4.3-3.6,4.3c-2.7,0-3.6-2.1-3.6-4.3v-4.3h0.8v4.3c0,1.8,0.6,3.5,2.7,3.5
		C32.3,126.9,32.9,125.2,32.9,123.4z"/>
	<path d="M41.7,120.7c-0.5-0.5-1.3-0.9-2.3-0.9c-1.5,0-2.2,0.6-2.2,1.6c0,1,0.7,1.3,2.4,1.6c1.8,0.4,2.9,0.9,2.9,2.4
		c0,1.6-1.3,2.3-3.1,2.3c-1.3,0-2.5-0.4-3.4-1.2l0.4-0.7c0.6,0.6,1.7,1.2,3,1.2c1.4,0,2.2-0.5,2.2-1.5c0-1-0.9-1.4-2.6-1.8
		c-1.8-0.4-2.7-0.8-2.7-2.2c0-1.6,1.2-2.4,3-2.4c1.1,0,2,0.4,2.7,1L41.7,120.7z"/>
	<path d="M45,127.6v-8.5h0.8v8.5H45z"/>
	<path d="M49.8,120.7v7H49v-8.5h0.6l5.6,7.1v-7.1h0.8v8.5h-0.7L49.8,120.7z"/>
	<path d="M64.9,126.9v0.7h-5.7v-8.5h5.6v0.7H60v3.1h4.2v0.7H60v3.2H64.9z"/>
	<path d="M72.4,120.7c-0.5-0.5-1.3-0.9-2.3-0.9c-1.5,0-2.2,0.6-2.2,1.6c0,1,0.7,1.3,2.4,1.6c1.8,0.4,2.9,0.9,2.9,2.4
		c0,1.6-1.3,2.3-3.1,2.3c-1.3,0-2.5-0.4-3.4-1.2l0.4-0.7c0.6,0.6,1.7,1.2,3,1.2c1.4,0,2.2-0.5,2.2-1.5c0-1-0.9-1.4-2.6-1.8
		c-1.8-0.4-2.7-0.8-2.7-2.2c0-1.6,1.2-2.4,3-2.4c1.1,0,2,0.4,2.7,1L72.4,120.7z"/>
	<path d="M80.7,120.7c-0.5-0.5-1.3-0.9-2.3-0.9c-1.5,0-2.2,0.6-2.2,1.6c0,1,0.7,1.3,2.4,1.6c1.8,0.4,2.9,0.9,2.9,2.4
		c0,1.6-1.3,2.3-3.1,2.3c-1.3,0-2.5-0.4-3.4-1.2l0.4-0.7c0.6,0.6,1.7,1.2,3,1.2c1.4,0,2.2-0.5,2.2-1.5c0-1-0.9-1.4-2.6-1.8
		c-1.8-0.4-2.7-0.8-2.7-2.2c0-1.6,1.2-2.4,3-2.4c1.1,0,2,0.4,2.7,1L80.7,120.7z"/>
</g>
<g>
	<path d="M142.5,101.9h-3v7.8h-0.8v-7.8h-3v-0.7h6.9V101.9z"/>
	<path d="M143.8,105.4c0-2.3,1.7-4.3,4-4.3c2.4,0,4,2.2,4,4.3c0,2.3-1.7,4.3-4,4.3C145.4,109.7,143.8,107.6,143.8,105.4z
		 M147.8,108.9c1.9,0,3.2-1.8,3.2-3.6c0-1.8-1.3-3.6-3.2-3.6c-1.9,0-3.2,1.8-3.2,3.6C144.7,107.2,145.9,108.9,147.8,108.9z"/>
	<path d="M154.4,109.6v-8.5h3.5c1.5,0,2.5,1.4,2.5,2.7c0,1.4-1,2.7-2.4,2.7h-2.8v3.1H154.4z M155.2,105.7h2.7c1,0,1.7-0.9,1.7-2
		c0-1.1-0.8-1.9-1.7-1.9h-2.7V105.7z"/>
	<path d="M115.8,127.6v-8.5h3.6c1.5,0,2.5,1.4,2.5,2.7c0,1.2-0.8,2.3-1.9,2.6l2.1,3.3h-0.9l-2-3.1h-2.5v3.1H115.8z M116.7,123.7h2.8
		c1,0,1.7-0.9,1.7-2c0-1-0.8-1.9-1.7-1.9h-2.7V123.7z"/>
	<path d="M130.4,126.9v0.7h-5.7v-8.5h5.6v0.7h-4.8v3.1h4.2v0.7h-4.2v3.2H130.4z"/>
	<path d="M139.1,119.9h-3v7.8h-0.8v-7.8h-3v-0.7h6.9V119.9z"/>
	<path d="M139.6,127.6l3.6-8.5h0.7l3.6,8.5h-0.9l-1.1-2.7h-3.8l-1.1,2.7H139.6z M143.5,120.1l-1.8,4.2h3.5L143.5,120.1z"/>
	<path d="M149.6,127.6v-8.5h0.8v8.5H149.6z"/>
	<path d="M153.6,127.6v-8.5h0.8v7.8h4.9v0.7H153.6z"/>
	<path d="M167.3,126.9v0.7h-5.7v-8.5h5.6v0.7h-4.8v3.1h4.2v0.7h-4.2v3.2H167.3z"/>
	<path d="M169.9,127.6v-8.5h3.6c1.5,0,2.5,1.4,2.5,2.7c0,1.2-0.8,2.3-1.9,2.6l2.1,3.3h-0.9l-2-3.1h-2.5v3.1H169.9z M170.8,123.7h2.8
		c1,0,1.7-0.9,1.7-2c0-1-0.8-1.9-1.7-1.9h-2.7V123.7z"/>
	<path d="M183.8,120.7c-0.5-0.5-1.3-0.9-2.3-0.9c-1.5,0-2.2,0.6-2.2,1.6c0,1,0.7,1.3,2.4,1.6c1.8,0.4,2.9,0.9,2.9,2.4
		c0,1.6-1.3,2.3-3.1,2.3c-1.3,0-2.5-0.4-3.4-1.2l0.4-0.7c0.6,0.6,1.7,1.2,3,1.2c1.4,0,2.2-0.5,2.2-1.5c0-1-0.9-1.4-2.6-1.8
		c-1.8-0.4-2.7-0.8-2.7-2.2c0-1.6,1.2-2.4,3-2.4c1.1,0,2,0.4,2.7,1L183.8,120.7z"/>
	<path d="M123.3,137.2h0.8l1.2,3l1.2-3h0.8l-1.5,3.6l1.6,3.8l3.1-7.5h0.9l-3.6,8.5h-0.7l-1.8-4.2l-1.8,4.2h-0.7l-3.6-8.5h0.9
		l3.1,7.5l1.6-3.8L123.3,137.2z"/>
	<path d="M132.8,141.4c0-2.3,1.7-4.3,4-4.3c2.4,0,4,2.2,4,4.3c0,2.3-1.7,4.3-4,4.3C134.4,145.7,132.8,143.6,132.8,141.4z
		 M136.8,144.9c1.9,0,3.2-1.8,3.2-3.6c0-1.8-1.3-3.6-3.2-3.6c-1.9,0-3.2,1.8-3.2,3.6C133.6,143.2,134.9,144.9,136.8,144.9z"/>
	<path d="M143.4,145.6v-8.5h3.6c1.5,0,2.5,1.4,2.5,2.7c0,1.2-0.8,2.3-1.9,2.6l2.1,3.3h-0.9l-2-3.1h-2.5v3.1H143.4z M144.2,141.7h2.8
		c1,0,1.7-0.9,1.7-2c0-1-0.8-1.9-1.7-1.9h-2.7V141.7z"/>
	<path d="M152.2,145.6v-8.5h0.8v4.9l4.7-5h0.9l-3.5,3.7l3.7,4.8H158l-3.3-4.3l-1.6,1.7v2.6H152.2z"/>
	<path d="M166.6,144.9v0.7h-5.7v-8.5h5.6v0.7h-4.8v3.1h4.2v0.7h-4.2v3.2H166.6z"/>
	<path d="M169.2,145.6v-8.5h2.9c2.7,0,4.1,1.9,4.1,4.2c0,2.6-1.6,4.3-4.1,4.3H169.2z M172.1,137.9H170v7h2.1c2.1,0,3.2-1.5,3.2-3.5
		C175.3,139.3,174.2,137.9,172.1,137.9z"/>
	<path d="M136.8,155.2h0.8l1.2,3l1.2-3h0.8l-1.5,3.6l1.6,3.8l3.1-7.5h0.9l-3.6,8.5h-0.7l-1.8-4.2l-1.8,4.2h-0.7l-3.6-8.5h0.9
		l3.1,7.5l1.6-3.8L136.8,155.2z"/>
	<path d="M147.2,163.6v-8.5h0.8v8.5H147.2z"/>
	<path d="M157.2,155.9h-3v7.8h-0.8v-7.8h-3v-0.7h6.9V155.9z"/>
	<path d="M166.2,155.1v8.5h-0.8v-4h-5v4h-0.8v-8.5h0.8v3.8h5v-3.8H166.2z"/>
</g>
<g>
	<path d="M230.1,109.6v-8.5h3.6c1.5,0,2.5,1.4,2.5,2.7c0,1.2-0.8,2.3-1.9,2.6l2.1,3.3h-0.9l-2-3.1h-2.5v3.1H230.1z M230.9,105.7h2.8
		c1,0,1.7-0.9,1.7-2c0-1-0.8-1.9-1.7-1.9h-2.7V105.7z"/>
	<path d="M244.7,108.9v0.7H239v-8.5h5.6v0.7h-4.8v3.1h4.2v0.7h-4.2v3.2H244.7z"/>
	<path d="M253.4,101.9h-3v7.8h-0.8v-7.8h-3v-0.7h6.9V101.9z"/>
	<path d="M253.9,109.6l3.6-8.5h0.7l3.6,8.5h-0.9l-1.1-2.7h-3.8l-1.1,2.7H253.9z M257.8,102.1l-1.8,4.2h3.5L257.8,102.1z"/>
	<path d="M263.9,109.6v-8.5h0.8v8.5H263.9z"/>
	<path d="M267.8,109.6v-8.5h0.8v7.8h4.9v0.7H267.8z"/>
	<path d="M231.1,119.1l3,7.5l3-7.5h0.9l-3.5,8.5h-0.7l-3.5-8.5H231.1z"/>
	<path d="M238.7,127.6l3.6-8.5h0.7l3.6,8.5h-0.9l-1.1-2.7h-3.8l-1.1,2.7H238.7z M242.6,120.1l-1.8,4.2h3.5L242.6,120.1z"/>
	<path d="M248.7,127.6v-8.5h0.8v7.8h4.9v0.7H248.7z"/>
	<path d="M262.4,123.4v-4.3h0.8v4.3c0,2.3-1,4.3-3.6,4.3c-2.7,0-3.6-2.1-3.6-4.3v-4.3h0.8v4.3c0,1.8,0.6,3.5,2.7,3.5
		C261.8,126.9,262.4,125.2,262.4,123.4z"/>
	<path d="M271.9,126.9v0.7h-5.7v-8.5h5.6v0.7H267v3.1h4.2v0.7H267v3.2H271.9z"/>
	<path d="M225.9,137.1c1.5,0,2.6,0.8,3.1,1.9l-0.7,0.4c-0.5-1.1-1.6-1.5-2.5-1.5c-2,0-3.2,1.8-3.2,3.5c0,1.9,1.4,3.6,3.2,3.6
		c1,0,2.1-0.5,2.6-1.6l0.7,0.4c-0.6,1.3-2.1,2-3.4,2c-2.3,0-4-2.2-4-4.4C221.8,139.3,223.3,137.1,225.9,137.1z"/>
	<path d="M231.6,145.6v-8.5h3.6c1.5,0,2.5,1.4,2.5,2.7c0,1.2-0.8,2.3-1.9,2.6l2.1,3.3H237l-2-3.1h-2.5v3.1H231.6z M232.4,141.7h2.8
		c1,0,1.7-0.9,1.7-2c0-1-0.8-1.9-1.7-1.9h-2.7V141.7z"/>
	<path d="M246.2,144.9v0.7h-5.7v-8.5h5.6v0.7h-4.8v3.1h4.2v0.7h-4.2v3.2H246.2z"/>
	<path d="M247.9,145.6l3.6-8.5h0.7l3.6,8.5h-0.9l-1.1-2.7h-3.8l-1.1,2.7H247.9z M251.8,138.1l-1.8,4.2h3.5L251.8,138.1z"/>
	<path d="M263.1,137.9h-3v7.8h-0.8v-7.8h-3v-0.7h6.9V137.9z"/>
	<path d="M271.1,144.9v0.7h-5.7v-8.5h5.6v0.7h-4.8v3.1h4.2v0.7h-4.2v3.2H271.1z"/>
	<path d="M273.7,145.6v-8.5h2.9c2.7,0,4.1,1.9,4.1,4.2c0,2.6-1.6,4.3-4.1,4.3H273.7z M276.6,137.9h-2.1v7h2.1c2.1,0,3.2-1.5,3.2-3.5
		C279.8,139.3,278.7,137.9,276.6,137.9z"/>
</g>
<g>
	<path d="M313.3,109.6v-8.5h0.8v7.8h4.9v0.7H313.3z"/>
	<path d="M320.4,109.6l3.6-8.5h0.7l3.6,8.5h-0.9l-1.1-2.7h-3.8l-1.1,2.7H320.4z M324.3,102.1l-1.8,4.2h3.5L324.3,102.1z"/>
	<path d="M331.2,102.7v7h-0.8v-8.5h0.6l5.6,7.1v-7.1h0.8v8.5h-0.7L331.2,102.7z"/>
	<path d="M346.8,108.4c-0.8,0.9-1.7,1.3-2.7,1.3c-2.3,0-4-2.2-4-4.3c0-2.3,1.7-4.3,3.9-4.3c1.7,0,2.7,0.8,3.2,1.9l-0.6,0.4
		c-0.6-1.1-1.5-1.5-2.6-1.5c-1.9,0-3.1,1.8-3.1,3.6c0,1.9,1.4,3.6,3.2,3.6c1,0,1.8-0.4,2.7-1.4v-1.4h-1.9v-0.6h2.6v4.2h-0.7V108.4z"
		/>
	<path d="M356.5,105.4v-4.3h0.8v4.3c0,2.3-1,4.3-3.6,4.3c-2.7,0-3.6-2.1-3.6-4.3v-4.3h0.8v4.3c0,1.8,0.6,3.5,2.7,3.5
		C355.9,108.9,356.5,107.2,356.5,105.4z"/>
	<path d="M359,109.6l3.6-8.5h0.7l3.6,8.5h-0.9l-1.1-2.7H361l-1.1,2.7H359z M362.9,102.1l-1.8,4.2h3.5L362.9,102.1z"/>
	<path d="M375.2,108.4c-0.8,0.9-1.7,1.3-2.7,1.3c-2.3,0-4-2.2-4-4.3c0-2.3,1.7-4.3,3.9-4.3c1.7,0,2.7,0.8,3.2,1.9l-0.6,0.4
		c-0.6-1.1-1.5-1.5-2.6-1.5c-1.9,0-3.1,1.8-3.1,3.6c0,1.9,1.4,3.6,3.2,3.6c1,0,1.8-0.4,2.7-1.4v-1.4h-1.9v-0.6h2.6v4.2h-0.7V108.4z"
		/>
	<path d="M384.4,108.9v0.7h-5.7v-8.5h5.6v0.7h-4.8v3.1h4.2v0.7h-4.2v3.2H384.4z"/>
	<path d="M391.8,102.7c-0.5-0.5-1.3-0.9-2.3-0.9c-1.5,0-2.2,0.6-2.2,1.6c0,1,0.7,1.3,2.4,1.6c1.8,0.4,2.9,0.9,2.9,2.4
		c0,1.6-1.3,2.3-3.1,2.3c-1.3,0-2.5-0.4-3.4-1.2l0.4-0.7c0.6,0.6,1.7,1.2,3,1.2c1.4,0,2.2-0.5,2.2-1.5c0-1-0.9-1.4-2.6-1.8
		c-1.8-0.4-2.7-0.8-2.7-2.2c0-1.6,1.2-2.4,3-2.4c1.1,0,2,0.4,2.7,1L391.8,102.7z"/>
	<path d="M332.2,120.7c-0.5-0.5-1.3-0.9-2.3-0.9c-1.5,0-2.2,0.6-2.2,1.6c0,1,0.7,1.3,2.4,1.6c1.8,0.4,2.9,0.9,2.9,2.4
		c0,1.6-1.3,2.3-3.1,2.3c-1.3,0-2.5-0.4-3.4-1.2l0.4-0.7c0.6,0.6,1.7,1.2,3,1.2c1.4,0,2.2-0.5,2.2-1.5c0-1-0.9-1.4-2.6-1.8
		c-1.8-0.4-2.7-0.8-2.7-2.2c0-1.6,1.2-2.4,3-2.4c1.1,0,2,0.4,2.7,1L332.2,120.7z"/>
	<path d="M335.5,127.6v-8.5h3.5c1.5,0,2.5,1.4,2.5,2.7c0,1.4-1,2.7-2.4,2.7h-2.8v3.1H335.5z M336.4,123.7h2.7c1,0,1.7-0.9,1.7-2
		c0-1.1-0.8-1.9-1.7-1.9h-2.7V123.7z"/>
	<path d="M343.4,123.4c0-2.3,1.7-4.3,4-4.3c2.4,0,4,2.2,4,4.3c0,2.3-1.7,4.3-4,4.3C345,127.7,343.4,125.6,343.4,123.4z M347.4,126.9
		c1.9,0,3.2-1.8,3.2-3.6c0-1.8-1.3-3.6-3.2-3.6c-1.9,0-3.2,1.8-3.2,3.6C344.2,125.2,345.5,126.9,347.4,126.9z"/>
	<path d="M354,127.6v-8.5h0.8v4.9l4.7-5h0.9l-3.5,3.7l3.7,4.8h-0.9l-3.3-4.3l-1.6,1.7v2.6H354z"/>
	<path d="M368.3,126.9v0.7h-5.7v-8.5h5.6v0.7h-4.8v3.1h4.2v0.7h-4.2v3.2H368.3z"/>
	<path d="M371.8,120.7v7h-0.8v-8.5h0.6l5.6,7.1v-7.1h0.8v8.5h-0.7L371.8,120.7z"/>
</g>
<g>
	<path d="M435.2,109.6h-4v-8.5h4.1c1.2,0,1.9,1.1,1.9,2.2c0,0.9-0.5,1.6-1.2,2c1,0.3,1.6,1.1,1.6,2.2
		C437.6,108.7,436.5,109.6,435.2,109.6z M432.1,101.9v3.1h2.9c0.8,0,1.5-0.7,1.5-1.6c0-0.9-0.6-1.6-1.4-1.6H432.1z M435.3,105.7
		h-3.3v3.2h3.2c0.9,0,1.5-0.8,1.5-1.6C436.8,106.5,436.2,105.7,435.3,105.7z"/>
	<path d="M440.2,109.6v-8.5h3.6c1.5,0,2.5,1.4,2.5,2.7c0,1.2-0.8,2.3-1.9,2.6l2.1,3.3h-0.9l-2-3.1H441v3.1H440.2z M441,105.7h2.8
		c1,0,1.7-0.9,1.7-2c0-1-0.8-1.9-1.7-1.9H441V105.7z"/>
	<path d="M448.1,109.6l3.6-8.5h0.7l3.6,8.5H455l-1.1-2.7h-3.8l-1.1,2.7H448.1z M452,102.1l-1.8,4.2h3.5L452,102.1z"/>
	<path d="M458.9,102.7v7h-0.8v-8.5h0.6l5.6,7.1v-7.1h0.8v8.5h-0.7L458.9,102.7z"/>
	<path d="M468.3,109.6v-8.5h2.9c2.7,0,4.1,1.9,4.1,4.2c0,2.6-1.6,4.3-4.1,4.3H468.3z M471.2,101.9h-2.1v7h2.1c2.1,0,3.2-1.5,3.2-3.5
		C474.5,103.3,473.3,101.9,471.2,101.9z"/>
	<path d="M418,126.9v0.7h-5.7v-8.5h5.6v0.7h-4.8v3.1h4.2v0.7h-4.2v3.2H418z"/>
	<path d="M420.5,119.1l2.8,3.7l2.8-3.7h0.9l-3.3,4.3l3.2,4.2H426l-2.7-3.6l-2.7,3.6h-0.9l3.2-4.2l-3.3-4.3H420.5z"/>
	<path d="M435.2,119.9h-3v7.8h-0.8v-7.8h-3v-0.7h6.9V119.9z"/>
	<path d="M443.2,126.9v0.7h-5.7v-8.5h5.6v0.7h-4.8v3.1h4.2v0.7h-4.2v3.2H443.2z"/>
	<path d="M446.6,120.7v7h-0.8v-8.5h0.6l5.6,7.1v-7.1h0.8v8.5h-0.7L446.6,120.7z"/>
	<path d="M461,120.7c-0.5-0.5-1.3-0.9-2.3-0.9c-1.5,0-2.2,0.6-2.2,1.6c0,1,0.7,1.3,2.4,1.6c1.8,0.4,2.9,0.9,2.9,2.4
		c0,1.6-1.3,2.3-3.1,2.3c-1.3,0-2.5-0.4-3.4-1.2l0.4-0.7c0.6,0.6,1.7,1.2,3,1.2c1.4,0,2.2-0.5,2.2-1.5c0-1-0.9-1.4-2.6-1.8
		c-1.8-0.4-2.7-0.8-2.7-2.2c0-1.6,1.2-2.4,3-2.4c1.1,0,2,0.4,2.7,1L461,120.7z"/>
	<path d="M464.3,127.6v-8.5h0.8v8.5H464.3z"/>
	<path d="M467.7,123.4c0-2.3,1.7-4.3,4-4.3c2.4,0,4,2.2,4,4.3c0,2.3-1.7,4.3-4,4.3C469.4,127.7,467.7,125.6,467.7,123.4z
		 M471.7,126.9c1.9,0,3.2-1.8,3.2-3.6c0-1.8-1.3-3.6-3.2-3.6c-1.9,0-3.2,1.8-3.2,3.6C468.6,125.2,469.9,126.9,471.7,126.9z"/>
	<path d="M479.1,120.7v7h-0.8v-8.5h0.6l5.6,7.1v-7.1h0.8v8.5h-0.7L479.1,120.7z"/>
	<path d="M493.5,120.7c-0.5-0.5-1.3-0.9-2.3-0.9c-1.5,0-2.2,0.6-2.2,1.6c0,1,0.7,1.3,2.4,1.6c1.8,0.4,2.9,0.9,2.9,2.4
		c0,1.6-1.3,2.3-3.1,2.3c-1.3,0-2.5-0.4-3.4-1.2l0.4-0.7c0.6,0.6,1.7,1.2,3,1.2c1.4,0,2.2-0.5,2.2-1.5c0-1-0.9-1.4-2.6-1.8
		c-1.8-0.4-2.7-0.8-2.7-2.2c0-1.6,1.2-2.4,3-2.4c1.1,0,2,0.4,2.7,1L493.5,120.7z"/>
</g>
<g>
	<circle fill="#F26522" cx="150.2" cy="45" r="40.3"/>
	<g>
		<path fill="#FFFFFF" d="M145.6,54.5v4.3h-16.4v-4.3h6.1v-15c-1,1.3-4.8,3.2-7,3.2v-4.4c2.3,0,6.6-3.3,7-4.1h4.8v20.3H145.6z"/>
		<path fill="#FFFFFF" d="M160.8,59.2c-6.3,0-11-5.5-11-13c0-7.6,4.7-13.1,11-13.1c6.3,0,11,5.5,11,13.1
			C171.7,53.8,167.1,59.2,160.8,59.2z M160.8,37.5c-3.7,0-6.3,3.5-6.3,8.7s2.5,8.6,6.3,8.6c3.6,0,6.2-3.5,6.2-8.6
			S164.4,37.5,160.8,37.5z"/>
	</g>
</g>
<g>
	<circle fill="#FDB913" cx="251.6" cy="45" r="40.3"/>
	<g>
		<path fill="#FFFFFF" d="M236.5,41.1v-6.6l-2.6,4.9h-1.1l-2.6-4.9v6.6h-1.9v-9.9h2.1l2.9,5.7l3-5.7h2.1v9.9H236.5z"/>
		<path fill="#FFFFFF" d="M247.7,36.3v-5.1h1.9v5.1c0,2.7-1.3,4.9-4.3,4.9c-3.2,0-4.4-2.4-4.4-4.9v-5.1h1.9v5.1
			c0,1.7,0.6,3.2,2.4,3.2C247.1,39.5,247.7,37.9,247.7,36.3z"/>
		<path fill="#FFFFFF" d="M252.1,41.1v-9.9h1.9v8.2h5.1v1.7H252.1z"/>
		<path fill="#FFFFFF" d="M266.9,32.9h-3.2v8.3h-1.9v-8.3h-3.2v-1.7h8.3V32.9z"/>
		<path fill="#FFFFFF" d="M268.7,41.1v-9.9h1.9v9.9H268.7z"/>
		<path fill="#FFFFFF" d="M273.1,38.1v-1.7h4.2v1.7H273.1z"/>
		<path fill="#FFFFFF" d="M224.6,57.1h-4.8v-9.9h5.3c1.4,0,2.3,1.3,2.3,2.5c0,1-0.5,1.9-1.4,2.3c1.1,0.3,1.8,1.2,1.8,2.5
			C227.8,56.2,226.4,57.1,224.6,57.1z M221.8,48.8v2.5h2.6c0.6,0,1.2-0.5,1.2-1.3c0-0.8-0.5-1.2-1.1-1.2H221.8z M224.7,52.9h-3v2.6
			h2.9c0.7,0,1.3-0.6,1.3-1.3C225.9,53.5,225.4,52.9,224.7,52.9z"/>
		<path fill="#FFFFFF" d="M229.9,57.1v-9.9h1.9v9.9H229.9z"/>
		<path fill="#FFFFFF" d="M234.5,57.1v-9.9h1.9v8.2h5.1v1.7H234.5z"/>
		<path fill="#FFFFFF" d="M243.3,57.1v-9.9h1.9v8.2h5.1v1.7H243.3z"/>
		<path fill="#FFFFFF" d="M252.1,57.1v-9.9h1.9v9.9H252.1z"/>
		<path fill="#FFFFFF" d="M256.1,52.2c0-2.6,2-5,4.7-5c2.8,0,4.7,2.6,4.7,5.1c0,2.6-2,5-4.7,5C258,57.2,256.1,54.7,256.1,52.2z
			 M260.8,55.5c1.8,0,2.8-1.7,2.8-3.3c0-1.7-1.1-3.3-2.8-3.3c-1.8,0-2.8,1.7-2.8,3.3C258,53.9,259.1,55.5,260.8,55.5z"/>
		<path fill="#FFFFFF" d="M269.5,50.8v6.4h-1.9v-9.9h1.5l5.2,6.5v-6.5h1.9v9.9h-1.6L269.5,50.8z"/>
		<path fill="#FFFFFF" d="M284.9,49.8c-0.2-0.3-1.3-0.8-2.3-1v2.4l0.3,0.1c2,0.5,3.2,1.1,3.2,2.9c0,2-1.6,2.9-3.4,2.9v1.5h-0.8v-1.6
			c-1.3-0.1-2.6-0.5-3.6-1.3l0.9-1.7c0.3,0.3,1.5,1.1,2.9,1.2v-2.4l-0.5-0.1c-1.9-0.5-2.8-1.2-2.8-2.7c0-1.9,1.4-3,3.2-3.1v-1.4h0.8
			v1.4c1.2,0.1,2.3,0.6,3.1,1.1L284.9,49.8z M282,51.1v-2.3c-0.9,0.1-1.3,0.4-1.3,1.1C280.6,50.6,281.1,50.8,282,51.1z M282.6,53.2
			v2.3c1,0,1.5-0.4,1.5-1C284,53.8,283.5,53.5,282.6,53.2z"/>
	</g>
</g>
<g>
	<circle fill="#F58220" cx="352.9" cy="45" r="40.3"/>
	<g>
		<path fill="#FFFFFF" d="M363.4,52.1c0,6.1-4.8,10.2-11.1,10.2c-4.3,0-8.1-2.1-9.9-5.5l2.8-2.7c1.6,2.4,4.3,4,7.1,4
			c3.5,0,6.1-2.4,6.1-6c0-3.4-2.5-5.8-5.8-5.8c-2.2,0-4.2,1-5.4,2.8h-4.2c0.2-1,3.4-17.8,3.4-17.8h15v4.3h-11.5l-1.5,8.3
			c1-1.1,2.7-1.8,4.8-1.8C359,42.3,363.4,46.3,363.4,52.1z"/>
	</g>
</g>
<g>
	<circle fill="#ED1556" cx="453.3" cy="45" r="40.3"/>
	<g>
		<path fill="#FFFFFF" d="M436.9,51.1v3.6h-12.2v-3.6h4.3v-9.1c-0.7,0.9-3.3,2.2-4.9,2.2v-3.8c1.5,0,4.5-2.2,4.9-2.8h4.1v13.5H436.9
			z"/>
		<path fill="#FFFFFF" d="M446.8,55.1c-4.5,0-7.8-3.8-7.8-9.1c0-5.3,3.3-9.1,7.8-9.1c4.4,0,7.7,3.8,7.7,9.1
			C454.6,51.3,451.2,55.1,446.8,55.1z M446.8,40.6c-2.2,0-3.8,2.2-3.8,5.4c0,3.2,1.5,5.4,3.8,5.4c2.1,0,3.7-2.2,3.7-5.4
			C450.5,42.8,449,40.6,446.8,40.6z"/>
		<path fill="#FFFFFF" d="M465.3,55.1c-4.5,0-7.8-3.8-7.8-9.1c0-5.3,3.3-9.1,7.8-9.1c4.4,0,7.7,3.8,7.7,9.1
			C473,51.3,469.7,55.1,465.3,55.1z M465.3,40.6c-2.2,0-3.8,2.2-3.8,5.4c0,3.2,1.5,5.4,3.8,5.4c2.1,0,3.7-2.2,3.7-5.4
			C469,42.8,467.4,40.6,465.3,40.6z"/>
		<path fill="#FFFFFF" d="M485.7,42.5v3.2h-3.1v3.4h-3.6v-3.4h-3.1v-3.2h3.1v-3.4h3.6v3.4H485.7z"/>
	</g>
</g>
</svg>
