<?xml version="1.0" encoding="utf-8"?>
<!-- Generator: Adobe Illustrator 18.0.0, SVG Export Plug-In . SVG Version: 6.00 Build 0)  -->
<!DOCTYPE svg PUBLIC "-//W3C//DTD SVG 1.1//EN" "http://www.w3.org/Graphics/SVG/1.1/DTD/svg11.dtd">
<svg version="1.1" id="Layer_1" xmlns="http://www.w3.org/2000/svg" xmlns:xlink="http://www.w3.org/1999/xlink" x="0px" y="0px"
	 viewBox="0 0 165 165" enable-background="new 0 0 165 165" xml:space="preserve">
<circle fill="#DB4157" cx="82.5" cy="82.5" r="82.5"/>
<g>
	<g>
		<path fill="#FFFFFF" d="M51.8,91.3v5.9H28.9v-5.9h8.5V70.4c-1.4,1.9-6.7,4.5-9.8,4.5v-6.2c3.2,0,9.2-4.6,9.8-5.7h6.7v28.3H51.8z"
			/>
		<path fill="#FFFFFF" d="M71.6,97.8c-8.8,0-15.4-7.6-15.4-18.2s6.5-18.2,15.4-18.2c8.8,0,15.3,7.7,15.3,18.2S80.4,97.8,71.6,97.8z
			 M71.6,67.5c-5.2,0-8.8,4.9-8.8,12.1s3.5,12.1,8.8,12.1c5,0,8.6-4.9,8.6-12.1S76.7,67.5,71.6,67.5z"/>
		<path fill="#FFFFFF" d="M108.5,97.8c-8.8,0-15.4-7.6-15.4-18.2s6.5-18.2,15.4-18.2c8.8,0,15.3,7.7,15.3,18.2
			S117.3,97.8,108.5,97.8z M108.5,67.5c-5.2,0-8.8,4.9-8.8,12.1s3.5,12.1,8.8,12.1c5,0,8.6-4.9,8.6-12.1S113.6,67.5,108.5,67.5z"/>
	</g>
	<g>
		<path fill="#FFFFFF" d="M146.9,75.8v3.1h-7v7.6h-3.5v-7.6h-7v-3.1h7v-7.6h3.5v7.6H146.9z"/>
	</g>
</g>
</svg>
