<?xml version="1.0" encoding="utf-8"?>
<!-- Generator: Adobe Illustrator 18.0.0, SVG Export Plug-In . SVG Version: 6.00 Build 0)  -->
<!DOCTYPE svg PUBLIC "-//W3C//DTD SVG 1.1//EN" "http://www.w3.org/Graphics/SVG/1.1/DTD/svg11.dtd">
<svg version="1.1" id="Layer_1" xmlns="http://www.w3.org/2000/svg" xmlns:xlink="http://www.w3.org/1999/xlink" x="0px" y="0px"
	 viewBox="0 0 165 165" enable-background="new 0 0 165 165" xml:space="preserve">
<circle fill="#FCB52B" cx="82.5" cy="82.5" r="82.5"/>
<g>
	<g>
		<path fill="#FFFFFF" d="M28.5,103.7c0-10.2,2.7-16.9,14.4-23.4c8.4-4.7,15.5-7.2,15.5-12.7c0-3.9-3.4-7.5-9.6-7.5
			c-6.6,0-10.7,4-13.3,7.1L29.2,60c2.5-2.7,10.4-8.5,21.4-8.5c11.6,0,18.5,6.4,18.5,14.8c0,8.9-8,13.3-13.3,16.1
			c-4.8,2.4-12.4,6.6-14,12.4h28.3v8.9H28.5z"/>
		<path fill="#FFFFFF" d="M121.2,95.7c0,12.8-10.1,21.4-23.1,21.4c-9.1,0-16.9-4.5-20.7-11.5l5.8-5.7c3.4,5,9,8.5,14.9,8.5
			c7.4,0,12.9-5,12.9-12.5c0-7.1-5.3-12.1-12.1-12.1c-4.6,0-8.8,2.1-11.2,5.8h-8.7c0.4-2.1,7.2-37.3,7.2-37.3h31.3v9.1h-24
			l-3.2,17.5c2.1-2.2,5.6-3.7,10.1-3.7C112.1,75.2,121.2,83.7,121.2,95.7z"/>
	</g>
	<g>
		<path fill="#FFFFFF" d="M145.8,77.7v3.8h-8.5v9.2h-4.2v-9.2h-8.5v-3.8h8.5v-9.2h4.2v9.2H145.8z"/>
	</g>
</g>
</svg>
