<?xml version="1.0" encoding="utf-8"?>
<!-- Generator: Adobe Illustrator 18.0.0, SVG Export Plug-In . SVG Version: 6.00 Build 0)  -->
<!DOCTYPE svg PUBLIC "-//W3C//DTD SVG 1.1//EN" "http://www.w3.org/Graphics/SVG/1.1/DTD/svg11.dtd">
<svg version="1.1" id="Layer_1" xmlns="http://www.w3.org/2000/svg" xmlns:xlink="http://www.w3.org/1999/xlink" x="0px" y="0px"
	 viewBox="0 0 165 165" enable-background="new 0 0 165 165" xml:space="preserve">
<circle fill="#F7941E" cx="82.5" cy="82.5" r="82.5"/>
<g>
	<path fill="#FFFFFF" d="M106.5,95.8c0,14.2-11.2,23.8-25.7,23.8c-10.1,0-18.8-5-23-12.8l6.5-6.3c3.8,5.6,10,9.4,16.6,9.4
		c8.2,0,14.3-5.6,14.3-13.9c0-7.9-5.9-13.4-13.5-13.4c-5.1,0-9.8,2.3-12.5,6.5h-9.7c0.4-2.3,8-41.5,8-41.5h34.8v10.1H75.5l-3.6,19.4
		c2.3-2.5,6.2-4.1,11.2-4.1C96.4,73,106.5,82.4,106.5,95.8z"/>
</g>
</svg>
