<?xml version="1.0" encoding="utf-8"?>
<!-- Generator: Adobe Illustrator 18.0.0, SVG Export Plug-In . SVG Version: 6.00 Build 0)  -->
<!DOCTYPE svg PUBLIC "-//W3C//DTD SVG 1.1//EN" "http://www.w3.org/Graphics/SVG/1.1/DTD/svg11.dtd">
<svg version="1.1" id="Layer_1" xmlns="http://www.w3.org/2000/svg" xmlns:xlink="http://www.w3.org/1999/xlink" x="0px" y="0px"
	 viewBox="0 0 165 165" enable-background="new 0 0 165 165" xml:space="preserve">
<circle fill="#FFCB05" cx="82.5" cy="82.5" r="82.5"/>
<g>
	<path fill="#FFFFFF" d="M55,76.9V62.6l-5.9,10.8h-1.7l-5.9-10.8v14.3h-3.1V57h3.4l6.6,12.2L54.8,57h3.4v19.9H55z"/>
	<path fill="#FFFFFF" d="M76.3,67.1V57h3.2v10.1c0,5.4-2.5,9.9-8.6,9.9c-6.3,0-8.6-4.8-8.6-9.9V57h3.1v10.1c0,3.6,1.3,7.1,5.4,7.1
		C75.1,74.2,76.3,70.6,76.3,67.1z"/>
	<path fill="#FFFFFF" d="M83.7,76.9V57h3.1v17.1h10.7v2.8H83.7z"/>
	<path fill="#FFFFFF" d="M111.8,59.8h-6.6v17.1h-3.1V59.8h-6.6V57h16.4V59.8z"/>
	<path fill="#FFFFFF" d="M114.5,76.9V57h3.1v19.9H114.5z"/>
	<path fill="#FFFFFF" d="M121.6,70.6v-2.8h8.4v2.8H121.6z"/>
	<path fill="#FFFFFF" d="M32,107.9h-9.5V88h10.2c2.8,0,4.5,2.6,4.5,5.1c0,1.9-1,3.8-2.9,4.6c2.3,0.7,3.7,2.5,3.7,5.1
		C38.1,105.9,35.4,107.9,32,107.9z M25.7,90.7v5.9h5.8c1.5,0,2.7-1.2,2.7-2.9c0-1.7-1.1-2.9-2.6-2.9H25.7z M32.2,99.1h-6.6v6.1H32
		c1.7,0,2.9-1.4,2.9-3S33.8,99.1,32.2,99.1z"/>
	<path fill="#FFFFFF" d="M41.4,107.9V88h3.1v19.9H41.4z"/>
	<path fill="#FFFFFF" d="M49.1,107.9V88h3.1v17.1h10.7v2.8H49.1z"/>
	<path fill="#FFFFFF" d="M65.6,107.9V88h3.1v17.1h10.7v2.8H65.6z"/>
	<path fill="#FFFFFF" d="M82.1,107.9V88h3.1v19.9H82.1z"/>
	<path fill="#FFFFFF" d="M88.5,97.9c0-5.3,4-10.1,9.5-10.1c5.6,0,9.4,5.1,9.4,10.1c0,5.3-4,10.1-9.4,10.1
		C92.3,108,88.5,103,88.5,97.9z M97.9,105.2c3.9,0,6.2-3.7,6.2-7.3c0-3.8-2.5-7.2-6.2-7.2c-3.9,0-6.2,3.6-6.2,7.2
		C91.7,101.7,94.1,105.2,97.9,105.2z"/>
	<path fill="#FFFFFF" d="M113.7,93.9v14h-3.1V88h2.5l11.4,14.3V88h3.2v19.9H125L113.7,93.9z"/>
	<path fill="#FFFFFF" d="M144.1,92.7c-0.7-0.7-2.5-1.8-4.8-2v5.8c4.5,1.1,7.1,2.2,7.1,5.8c0,4-3.1,5.7-6.9,5.8v2.9H138v-3
		c-2.7-0.2-5.2-1.1-7.2-2.6l1.5-2.7c0.8,0.9,3.2,2.2,5.9,2.5v-5.8c-4.6-1.2-6.6-2.4-6.6-5.5c0-3.7,2.7-5.8,6.4-6V85h1.5v2.8
		c2.4,0.1,4.5,1.1,6,2.2L144.1,92.7z M138.2,96.2v-5.5c-2.2,0.1-3.4,1.1-3.4,2.7C134.9,95,135.9,95.6,138.2,96.2z M139.2,99.7v5.5
		c2.3,0,3.7-0.9,3.7-2.6C142.9,101,141.6,100.4,139.2,99.7z"/>
</g>
</svg>
